<svg width="835.55px" height="486.15px" viewBox="0 0 835.55 486.15" xmlns="http://www.w3.org/2000/svg" xmlns:xlink="http://www.w3.org/1999/xlink">
  <defs/>
  <g>
    <path stroke="none" fill="#ccff6c" d="M729.95 292 Q729.95 295.45 732 296.95 734.35 298.75 731.65 301.75 730.95 302.5 729.95 303.05 726.3 305 726.15 308 726.1 309.85 727.95 311 730.45 312.5 732.45 314.5 732.95 315 732.65 315.9 L732.45 317 Q732.45 317.5 733 317.95 735.05 319.55 733.35 323.15 732.95 323.95 732.85 324.95 732.2 331.15 729.4 335.25 728.95 335.95 729.05 336.95 729.15 338.15 730.9 339 732.95 340 731.2 343.1 L728.95 346.95 Q727.25 349.8 725.45 351.5 724.95 351.95 724.9 352.95 724.85 354.6 726.8 354.9 L726.5 355.65 725.2 357.2 Q722.7 359.75 726.05 360.55 L730.2 360.35 Q730.95 359.95 731.85 359.65 732.45 359.45 732.65 358.85 734.25 353.8 741.05 352.4 746.3 351.35 748.55 348.45 748.95 347.95 749.95 347.8 L754.95 347.45 Q755.45 347.45 756 347.9 758.45 349.95 761.2 351.5 L762.9 351.7 Q763.95 351.45 764.8 350.75 769.5 346.75 775.1 344.3 775.95 343.95 776.95 343.95 780.05 343.85 779.15 348 L778.95 349.95 Q779.45 349.45 780.05 349 783.9 345.75 789.05 344.35 L791.9 344.25 793.95 344.5 804.9 344.95 805.2 345.9 Q806.6 351.6 811.15 349.35 811.95 348.95 812.9 348.7 816.1 347.95 816.95 345.95 817.7 349.15 820.9 351 824.85 353.25 829.85 350.75 831.45 349.95 831.5 347.95 831.55 345.05 833.55 344.15 L834.35 343.15 Q836.15 339.3 839.85 337.7 L840.95 336.95 Q842.8 334.9 846.95 333.85 851.05 332.85 851.25 335.95 851.4 338.5 854.95 337.85 L858.95 336.95 860.95 337.95 Q863.05 339.55 864.55 342.2 L865.25 343.85 865.55 345.05 Q866.25 348.2 863.9 348.5 860.35 348.9 862.5 352.25 862.95 352.95 862.8 353.9 862.45 355.95 861.7 357.85 L861.2 359.05 Q860.35 361.1 861.55 361.7 L862.45 362.45 863.85 363.25 865 363.55 869.85 364.4 Q871.7 364.75 872.2 366.9 872.95 369.95 877 369.2 880.3 368.6 882.15 369.55 L883.9 370.2 Q889 371.55 894.95 370.95 898.3 370.6 900.15 371.55 L901.9 372.1 Q903.9 372.45 900.95 372.95 902.25 374.65 905.9 373.7 L908 373.3 Q912.8 372.7 914.65 375.5 L915.75 376.35 915.95 376.95 Q917.75 376.95 915 377.25 L911.95 377.9 911 378.15 909.8 378.5 908.1 379.25 Q898.2 383.65 894.9 383.45 L893.9 383.55 Q889.2 384.35 884.85 385.6 L881.95 386.05 Q876.75 386.4 871.85 387.6 L869 388.15 863.95 388.6 853 389.35 850.9 389.55 839.95 391.05 834.95 391.6 824 392.35 821.9 392.55 Q816.95 392.95 811.95 392.65 807.65 392.4 804.7 393.3 L804.35 393.4 Q803.6 393.65 802.95 393.95 L804.95 393.95 809.95 393.95 805 394.5 804.8 394.55 Q802.3 395.05 799.95 395.95 800.75 397.65 804 397.5 L805.05 397.6 Q808.75 398.45 811.15 399.55 L812.85 400.25 Q813.45 400.45 814.05 400.8 816.95 402.6 820.95 402.4 830.55 401.9 840 402.6 844.95 402.95 849.95 402.6 L854.95 402.35 861 402.15 861.15 403.25 861 403.25 843.9 406.7 834.85 408.6 824.95 409.9 823.05 410.25 821.85 410.65 Q818.4 411.85 813.95 411.85 810.55 411.9 807.7 413.5 L805.95 413.95 Q800.65 417.1 793.95 417.4 792.45 417.45 791.05 418.15 790.45 418.45 789.9 418.85 787.9 420.4 784.2 419.2 783.45 418.95 782.65 418.4 L780.95 417.9 774.9 417.25 Q771.4 416.6 768.65 418.5 L767 419.2 764.9 419.55 Q761.3 420 759.95 421.95 759.25 419.25 760.45 418.35 760.95 417.95 760.65 417.05 760.45 416.45 759.9 416.05 756.3 413.6 753.45 410.5 L752.45 409.45 Q751.95 408.95 750.95 408.95 749.75 410.25 749.5 412.9 749.45 413.45 748.85 413.75 746.8 414.8 746.95 416.9 L747.75 417.35 747.95 417.95 Q746.65 419.65 743.05 418.6 L741.85 418.3 739.05 417.6 737.9 417.4 Q734.85 417.15 731.95 417.95 731.2 417.75 732.95 415.95 L733.85 414.85 734.95 412.95 Q732.25 412.25 731.35 413.45 L730.15 414.35 Q729.95 414.45 729.95 414.95 728.75 415.15 729.5 412.8 730.2 410.75 728 410.5 L726.85 410.2 Q723.45 408.95 719.9 408.3 717.95 407.95 716.05 408.35 L714.85 408.6 Q712.4 409.35 710.45 407.45 709.95 406.95 709.05 406.65 L707.85 406.3 Q705.1 405.7 705 408.95 704.95 412.45 704.1 415.75 703.95 416.45 702.9 416.85 L699.95 417.95 Q701 420.4 704.7 421.7 705.45 421.95 705.65 423 706.15 425.65 704.05 426.3 703.45 426.45 703.2 427.05 702.35 429.1 703.55 429.75 703.95 429.95 703.75 430.9 703.45 432.45 703.4 433.95 703.05 442.85 693.95 443.95 691.2 444.3 689 446 688.45 446.45 687.9 446.5 685.2 446.7 684.6 444.05 684.45 443.45 683.85 443.3 L678.6 443.45 Q677.95 443.95 677 444.1 L672.95 444.45 Q671.95 444.45 671 443.85 669.2 442.7 668.5 440.05 667.95 437.95 666.95 435.95 664.05 435.55 664.4 439 664.45 439.45 663.9 439.85 662.4 441 661.6 443.85 L660.85 444.6 658 445.2 Q654.4 445.8 650.05 447.2 645.4 448.7 643.5 451.35 L643.7 452.05 Q644.95 455.25 644 458.7 643.95 458.95 643.05 459.25 L641.85 459.65 639.95 459.95 Q644.3 461.3 648.95 461.6 651.75 461.75 653.85 463.1 L655 463.55 659.9 464.3 Q660.95 464.45 661.95 464.95 665.45 466.65 670 466.35 674.65 466.05 679 466.5 683.95 466.95 688.9 466.55 L691 466.1 Q696 464.3 701.95 464.7 L708.9 465.4 Q709.45 465.45 709.95 465.95 708.35 468.7 703.95 468.5 L701.9 468.65 Q696.9 469.55 692.45 470.95 L690.8 471.5 688 472.2 Q683.45 472.9 680.05 474.2 L678.9 474.5 Q674.3 475.05 669.95 476.05 L663.85 477.5 660 477.7 Q654.55 477.05 653.6 480.85 L653.25 482.05 652.65 483.85 652.3 485.05 Q651.85 486.6 653.8 486.9 L653.65 487.85 653.35 489 Q653 490.9 653.55 492.15 653.95 492.95 653.95 493.95 L653.95 500.95 Q659 498.65 663.5 501.65 663.95 501.95 664.1 502.95 664.4 504.75 666.85 505.3 L668.05 505.8 Q670.6 507.3 673.95 506.95 669.6 510.95 664 511.4 663.45 511.45 663.05 512.05 661.3 514.65 658.4 516.65 L657.5 517.7 Q656.05 520.3 657.95 521.95 653.5 521.5 651.45 523.45 L650.15 524.35 647.75 525.6 Q645.75 526.75 642.95 526.85 638.95 526.95 635.2 526 634.95 525.95 634.75 525 L635.35 522.15 Q632.95 522.25 631.95 520.95 626.8 522.95 621.9 523.4 621.45 523.45 621 522.9 619.85 521.45 618.2 521 617.95 520.95 617.65 520.05 L616.95 518.95 615.95 517.95 Q620.2 514.85 626.1 512.3 L626.25 512.25 626.1 512.25 Q620.8 512.05 618.75 508.05 L616.8 505.05 Q615.2 503.15 616.3 499.05 616.45 498.45 617.05 498.05 617.95 497.45 618.95 496.95 613.9 496.4 610.8 497.5 L608 498.2 Q605.85 498.6 605.95 496.95 606.1 495.35 603.9 495.5 601.25 495.75 599.75 496.55 L596 498.1 593.9 498.7 Q592.35 499.1 592.45 496.95 592.45 496.45 591.85 496.1 585.25 492.1 578.95 485.95 L577.95 484.95 Q572.7 480.05 568.95 483.95 567.5 480.6 566.3 475.85 L565.6 473.05 Q565.45 472.45 564.9 472.4 L555.95 471.95 Q550.4 471.9 547.4 468.45 546.95 467.95 546.1 467.6 541.4 465.7 539.1 469.05 538.45 469.95 538.05 471 537 473.65 534 473.85 532.95 473.95 531.8 474.7 527.45 477.45 524.2 480.25 523.2 481.15 521.7 480.55 L520.85 480.7 517 482.1 514.9 482.85 Q512.85 483.6 512.2 482.35 L511 481.7 Q505.45 480.25 498.95 480.45 498.45 480.45 498.2 479.85 496.15 475.25 492.7 473.35 491.95 472.95 491 473.1 487.75 473.65 486.85 472 485.25 469.2 482.05 467.7 L481 466.9 Q479.65 465.25 475.9 465.7 473.65 465.95 472.2 463.8 L469.45 460.45 Q468.95 459.95 468.1 460.3 466.1 461.1 465.2 462.5 464.95 462.95 463.95 462.85 459.2 462.45 455.7 465.7 453.9 467.4 449.95 467.45 449.45 467.45 448.95 467.95 447.4 469.4 446.65 471.85 L445.9 472.9 Q444.3 474.3 440.95 474.45 440.45 474.45 439.85 474.8 L433.95 477.95 Q437.95 477.95 441.7 478.9 441.95 478.95 441.95 479.95 442.25 481.65 444.95 480.95 445.1 482.6 442.9 482.45 L441.85 482.7 434.95 484.95 427 487.1 419.95 488.15 Q413.35 488.4 406.75 490.3 L402 491.25 Q390.1 492.65 378.9 494.55 L373.95 495.05 363.95 495.9 Q360 496.4 357.9 495 356.4 493.95 355.25 491.25 L354.2 489.7 352.7 488.2 Q350.9 486.45 346.95 486.85 L344 487.25 341.9 487.8 337.9 488.6 Q333.95 488.95 331.95 486.95 331.45 486.45 330.95 486.45 L329.85 486.55 325.95 486.95 Q324 487 322.75 487.55 322 487.95 321 487.95 L316.05 487.6 Q315 487.45 314.25 486.7 L312.7 485.4 Q312 484.95 311.1 484.65 307.25 483.3 305.5 481.45 305 480.95 304.1 480.65 L303.05 479.9 Q301.15 477.6 298 477.45 L296.95 477.35 Q294 476.95 291.05 477.25 287.3 477.65 285.6 476.5 285.5 476.45 284.9 476.75 L280.35 478.8 Q280 478.95 279.6 479.75 278.95 480.9 277 481.1 274.8 481.25 274.1 483.7 L273.1 484.25 Q272.5 484.45 272.35 485.05 272 486.45 271.3 487.5 271 487.95 270.05 487.7 L267.95 487.1 264 485.95 259.95 485.15 257.05 484.65 254.95 484.25 Q251.6 483.55 249.8 484.55 L248.05 485.1 Q244.8 485.65 243.65 484.25 242.5 482.85 240.1 481.75 L239.05 480.9 Q236.15 477.25 230.05 476.95 229.5 476.95 228.75 476.2 226.95 474.35 224.15 475.35 L220.85 476.5 218 477 Q214.4 477.05 212.35 474.45 212 473.95 211 473.95 L201.05 473.5 199.9 473.15 Q197.2 471.65 195.6 470.45 195 469.95 194.05 469.8 L190.05 468.8 187.95 468.2 179 466 174.95 465.25 169.05 464.55 167.95 464.4 158.45 464.65 157.75 464.4 157.55 464.35 157.25 464.25 Q154.95 463.45 152.8 462.35 L151 461.95 148 461.95 Q149.7 460.25 148.9 460.4 L147.9 460.15 147 459.95 Q148 458.4 150.9 457.6 151.5 457.45 151.5 456.95 L151.5 455.95 151.4 455.25 Q151 454.45 149.95 454.2 L148.05 453.7 145.95 453.3 Q143.1 452.85 141.55 451.45 141 450.95 140 450.9 L129.1 451.5 127 451.95 Q125.1 451.45 128 451 L129 450.95 Q127.55 447.85 122.95 448.5 L117 448.95 Q113.65 448.95 114.5 448.45 L113.95 448.4 111.95 448.2 107 447.95 Q108.3 446.25 112.05 446.6 116.75 447.05 117.75 445.4 118 444.95 115.55 444.6 L92.5 442.85 Q74.45 441.7 85 441.95 84 441.8 88.3 441.35 L111 438.95 Q110.25 438.75 112.2 437.2 L113 436.95 Q109.15 436.1 105.1 436 L102 435.95 101 435.95 Q101.8 434.25 105.05 434.45 105.5 434.45 106.1 434.05 109.1 432.05 114 431.95 114.65 429.85 113.7 429.1 113.5 428.95 114.15 428.05 115.1 426.75 116.1 424 116.5 422.95 117.25 422.2 L118.55 420.65 Q119 419.95 119 418.95 119 414.95 124.05 415.4 L125 415.45 126.05 415.5 Q128.7 415.75 130.2 416.5 132 417.45 134 417.45 134.5 417.45 135.05 417.05 138.65 414.6 141 410.95 143 409.95 143.7 407.85 L144.3 406.05 144.5 404.95 144.5 403.95 Q144.5 403.45 145 403.45 147.95 403.4 147.55 399.9 147.5 399.45 148.1 399.1 150 397.95 151.35 396.25 L152.75 394.7 Q153.5 393.95 154.3 393.55 154.5 393.45 154.95 394 156.3 395.65 160 395.1 L161.85 394.6 Q163.9 393.85 164.35 392.05 164.5 391.45 165.1 391.15 167 390.1 168.25 387.05 168.5 386.45 169.1 386.2 171 385.45 173 385.45 L174.05 385.5 183 386.25 Q186.95 386.55 186.6 389.9 186.4 392.1 187 392.45 L185.95 392.8 Q183.05 393.7 179.9 395.85 L177.95 396.9 Q175.2 398.05 176 398.95 179.35 398.95 178.1 399.3 177.5 399.45 177 399.95 L176 400.95 Q176.8 402.65 179.9 402.95 L180 403.95 180 404.95 Q181.8 404 183.9 404.45 L184.2 404.6 Q187.85 406.7 191.9 404.9 L191.95 404.85 Q195.25 403.3 199 402.95 200 403.45 196.1 404.3 L192.1 405.4 188 407 185.45 408.1 181 409.95 Q182.3 411.65 186.05 411.25 L187.05 411.15 186.8 412.2 Q186.55 412.5 186.1 412.45 L187.05 412.55 Q192 412.95 196.95 412.55 199.15 412.35 199.8 413.55 200 413.95 200.95 414.1 L205 414.45 206.1 414.1 217.9 407.75 218.65 406.85 Q219.25 404.25 218.4 402.75 218 401.95 218.25 401 L219 398.95 212 399.75 Q208.9 400.05 210.65 396.25 211 395.45 211.9 394.8 213 393.95 213.6 392.75 214 391.95 214 390.95 213.95 387.8 216.7 385.6 L218 383.95 Q218.15 382.35 215.95 382.5 214.3 382.65 214.6 379.9 215.05 375.1 218.95 374.55 L220.1 374.1 Q223.65 372.1 226.2 369.15 228.1 366.9 230.9 365.7 L232 364.95 Q234.05 368.7 235.7 373.05 L236 374.95 236.65 374.55 236.75 374.5 Q240 372.5 243.8 368.75 245.95 366.65 244 364.95 241.5 362.8 242.25 358 242.7 354.75 241 353.95 240 353.45 238.95 353.25 L236.1 352.6 234.9 352.35 Q232.35 351.8 232.75 348.9 233.2 345.25 228.95 345.75 L228.15 345.85 228.1 345.85 228 344.95 Q227 344.45 230.95 343.75 L234 343 Q236 342.45 237.5 341.3 238 340.95 237.7 340.05 L237.5 338.95 237.55 337.9 Q237.8 335.75 239.95 335.6 242 335.45 242.55 333.8 243 332.45 243.6 331.25 244 330.45 245.05 330 247.95 328.8 249.6 324.8 250.45 322.8 252.8 321.6 254 320.95 254.8 319.8 258.15 314.95 266 314.95 L269.15 314.7 Q270 314.5 270.55 315.3 L271.45 316.7 Q272 317.5 273.05 317.7 L276 318 Q274.8 320.15 274.6 322.9 274.5 323.95 273.75 324.7 L272.25 326.2 Q271.5 326.95 271 327.95 274.05 328.55 273.6 330.85 L273.5 331.45 Q274 331.95 274.85 332.3 L278.15 333.65 Q280 334.45 282 334.45 L283.1 334.35 Q287.15 333.45 291.2 331.35 292 330.95 292.9 330.65 L293.85 329.85 Q295.55 326.95 297.5 325.35 298 324.95 298.15 323.95 298.85 319.55 300.8 316.85 303.5 313.15 300.15 311.65 297.05 310.25 295.6 308.3 L294.45 306.7 Q294 306 294.05 305 294.25 300.75 296.5 297.65 297 297 296.9 296 296.55 293.45 295.45 291.7 295 291 295.15 290 295.7 285.8 292 285.7 289.05 285.6 288 284 290.7 281.7 288.5 280.5 L289.1 280.2 Q292 278.75 296.1 277.3 L297.95 276.75 302.1 275.65 302.1 275.7 302.3 275.8 302.9 276.2 Q305.5 277.55 303.45 281.25 303 282 302.85 283 302.3 287.2 307 286 L311 285 Q310.45 290.2 315.95 288.7 317.8 288.2 318.45 287.3 319 286.5 320 286.05 324.25 284.15 327.2 281.25 L328.5 279.7 Q328.95 279 328.9 278 L328.5 271.95 Q328.45 271.5 329 271.1 332.25 268.65 332.45 265 L332.6 263.9 Q333.15 261.3 331.05 260.7 330.45 260.5 330.3 259.9 329.4 255.85 331.5 252.7 331.95 252 331.45 251.5 L331.3 251.35 Q332 250.95 332.8 250.65 334.45 249.9 334.35 248 334.2 245.25 336.85 244.65 337.45 244.5 337.45 244 L337.3 241.95 Q337.15 240.8 339.05 240.4 341.15 239.95 342.8 238.8 343.95 238 345.15 237.6 347.7 236.75 347.5 234.05 347.45 233.5 347.55 233.35 349.15 230.8 352.95 229 L351.05 227.9 349.85 227.3 348.95 227 Q349.2 225.75 348.95 223 346.15 223.2 343.85 222.3 341.1 221.2 337.95 221.1 L334.05 220.6 331 220 Q331.45 219.5 332 219.45 L333.8 219.2 Q337.6 218.45 340.95 216.95 L343 216.3 345.85 215.65 Q351.8 214.2 354.95 211 L354.2 210.75 Q353.25 209.85 350.95 209 L352.85 207.9 354.05 207.35 Q357.3 206.55 357.95 204 356.95 203.5 355.9 203.35 351 202.7 347.95 201 L349.9 200.75 Q351.75 200.2 351.45 199.1 350.65 195.85 346.9 195.25 L344.15 194.5 Q340.4 193.15 336.65 194.05 L336.5 193.05 336.25 191.9 Q335.2 188.55 337.65 187.4 L341.15 185.35 Q345.9 182.1 349.1 179.15 353.25 175.25 359.85 171.8 363.35 169.95 366.05 169.4 L369.85 168.6 371.05 168.2 371.95 168 Q371.9 170.2 371.15 172.05 L370.95 173 381.9 172.55 383.05 172.2 383.95 172 383.95 175 383.95 176 384.5 175.7 384.55 175.65 Q390.05 172.1 389.35 161.95 389.15 159.3 387.4 158.25 386.95 158 387.25 157.1 L387.35 156.3 Q386.95 155.5 385.9 155.4 383.25 155.2 381.75 154.35 379.8 153.15 379.3 150.9 L378.65 148.05 Q378.2 145.75 374.95 146 368.45 146.5 366.2 142.4 365.95 142 364.95 142.15 L359.95 142.5 Q359.45 142.5 358.9 142.1 356.5 140.45 351.95 141 348 141.45 345.75 140.4 344.95 140 343.95 139.95 L333.85 140.55 328.95 141 Q325.05 141 325.45 140.55 325.95 140 325.45 139.5 324.95 139 323.95 139.05 L308.95 138.45 302 138 277 138 277.05 136.1 Q283.55 136.4 289.15 134.45 L292 133.9 Q295 133.7 295.75 132.45 296 132 297 131.85 L302 131.4 Q307.5 131.15 312 129 312.35 126 316.05 124.1 319.55 122.35 319.95 119 320.15 117.4 318.15 117.05 318 117 318.25 116.05 318.5 115 319.25 114.25 L320.95 112.95 Q323.8 111.25 325.25 109.2 327.6 105.95 312.75 106.05 297.9 106.15 299.65 104.35 301.4 102.5 312.7 101.5 L324.95 100 Q331.75 96.75 336.25 93.15 336.45 93 335.7 92.2 333.95 90.35 333.55 88.05 L333.45 87 Q333.45 86.5 333.95 86 336.75 83.35 338.2 80.1 339.25 77.6 341.45 75.5 341.95 75 342.1 74.05 342.65 70.8 341.2 69.65 339.6 68.35 340.3 65.1 340.45 64.5 341.05 64.3 342.65 63.7 342.95 62 338.9 60.45 333.95 60.5 L332.9 60.45 Q330.25 60.2 328.95 59 L327.85 58.25 Q325.2 57.25 324.95 53.05 L324.45 52.5 Q323.95 52 323.95 51 327.6 50.25 330.25 48.45 330.95 48 331.95 48.05 340.3 48.35 344.95 45 346.45 43.9 349.05 43.4 L352.85 42.6 Q353.45 42.5 353.65 41.9 L354.25 40.7 Q354.9 41.25 357 41.65 L360.85 42.4 Q361.45 42.5 361.95 43 362.15 45.2 360.2 45.8 359.45 46 358.7 46.75 L357.4 48.3 Q356.95 49 357.4 49.7 357.95 50.5 358.85 51.15 363.1 54.05 368.95 57 368.8 60.2 365.05 61.3 364.45 61.5 364.35 62.05 364 64.2 364.55 66.1 364.95 67.5 364.9 69 364.65 73.4 369.95 73.15 376.45 72.85 379.1 68.1 379.45 67.5 380.05 67.2 384.6 64.7 389.95 64 389.95 69.5 390.4 74.95 390.45 75.5 391.05 75.75 393.7 76.75 392.6 80.9 392.45 81.5 391.9 81.95 390.05 83.6 388.1 86.4 386.95 88 385.2 89.3 382.5 91.35 381.55 94.2 381.45 94.5 382.05 94.85 384.4 96.4 381.2 99.3 379.85 100.5 377.95 100.5 377.45 100.5 377.3 101.1 376.6 104.35 376.85 106.15 376.95 107 375.85 107.9 373.1 110.25 367.95 112 368.25 113.7 371 113.55 371.45 113.5 371.7 114.1 373.3 117.65 375.45 114.3 375.95 113.5 376.95 113 381.85 110.4 384.65 114.2 L387.45 117.5 388.45 118.5 Q388.95 119 389.9 119.15 393.25 119.7 393.85 123.85 393.95 124.5 394.95 124.95 399.35 126.95 402.2 125.4 402.95 125 403.95 124.9 406.9 124.6 406.95 128 L407.95 127.95 Q413.8 127.8 419.05 126.4 L421.95 126 423.95 126 423.1 128.05 Q422.95 128.5 422.95 129 L423.1 129 Q436.25 129.55 445.1 128.8 453.85 128 445.6 130.8 437.3 133.55 451.7 134.5 466.1 135.4 462.05 135.8 L457.85 136.45 453 137.3 449.9 137.65 444 138.4 442.9 138.6 438 139.4 436.85 139.7 Q433.05 140.85 429.85 142.85 427.75 144.2 425 144.4 L421.9 144.7 417.45 145.5 Q416.95 146 415.95 146.15 412.6 146.65 409.95 148 L413.95 148.5 413.05 149.1 411.95 150 Q414.1 149.4 414.75 150.6 L415.75 151.4 415.95 152 Q415.25 153.15 413.05 154.2 412.45 154.5 411.95 155 413.3 156.95 416.75 157.8 417.45 158 417.8 159.05 419.55 164.2 424.7 165.8 425.45 166 425.95 167 426.45 168 426.45 169 426.45 169.5 425.9 169.9 423.35 171.7 426.9 172.4 L428 172.6 Q429.85 172.9 430.6 170.85 431.4 168.85 433.85 167.75 L441.85 163.8 443 163.4 Q447.9 162.45 451.85 164.25 L452.8 165.1 Q454.35 167.8 457.6 171.3 459.95 173.8 461.4 177.25 461.95 178.5 461.65 179.95 461.45 181 460.75 181.8 458.95 183.65 458.65 185.95 458.25 188.7 459.45 189.6 459.95 190 459.85 191 459.6 193.25 461.9 194.1 462.95 194.5 463.8 195.2 467.15 198.05 472.9 196.85 L476 196.2 477.75 195.85 478.1 195.8 479.6 195.5 479.45 195.7 478.5 196.7 478.35 196.8 478.3 196.8 478.3 196.85 477.95 197 490.05 197.6 493.95 198.15 502.95 198.6 538.85 199 550.95 199 Q544.55 200.95 538.85 203.75 535.75 205.3 531 204.75 529.05 204.5 527.55 205.2 525.95 206 523.95 205.9 516.95 205.5 511.95 206.95 510 207.5 508.65 208.65 506.05 210.9 500.95 210.6 499.05 210.5 497.6 211.35 496.45 212 495 211.8 491.75 211.3 490.95 213 L482.85 215.6 479.95 216 Q481.25 217.7 485 217.45 486.65 217.3 486.15 220.05 L485.7 221.95 Q485.05 224.5 483.7 225.65 482.05 227 484.25 228.55 484.95 229 485.95 228.95 492.15 228.65 497.95 229.9 500.5 230.45 499.6 233.9 L499.45 235 Q499.45 235.5 500 235.55 L507.95 235.9 Q515.85 235.75 515 242.9 L514.25 244.25 Q511.45 247.2 507.95 248 508.25 249.7 510.9 248.85 L512.95 248.45 520.1 247.7 Q520.95 247.5 521.95 248.05 524.4 249.4 520.8 251.8 518.1 253.65 517.2 257.05 516.95 258 516.95 259 521.05 259.25 524.9 260.25 L527 260.65 Q529.45 261 531.9 260.6 535.4 260.1 535.45 263 535.45 263.5 535.95 263.5 546.95 264 557.95 264 560.45 264 562.7 264.75 L564.25 265.55 565.95 266 588 265.3 592.8 264.85 597 264.35 601.95 264 Q600 265.2 597.85 266.05 L597.75 266.1 597.55 266.15 593 267.4 Q581 269.6 569.95 272.1 L553 275.4 551.9 275.6 Q541.7 277.3 532 279.35 L522.9 280.75 518 281.4 516.85 281.8 Q512.05 284.15 509 287.05 L506.75 288.3 504.9 288.35 499.95 287.95 Q495.9 287.85 493 290.05 492.45 290.5 491.9 290.55 489.2 290.75 487.95 289 485.6 293.4 481.95 293.7 478.85 293.9 480.25 297.9 L480.45 298.5 Q479.95 299 479.05 299.3 478.45 299.5 477.95 300 479.05 301.5 480.95 301.5 481.45 301.5 481.95 302 480.2 303.8 480.9 303.7 483.65 303.3 483.95 305 L483.95 305.25 Q485.65 305.35 486.35 308.9 L486.8 310.1 Q489.25 314.1 485.15 317.25 482.1 319.6 477.95 319.5 L476.95 319.5 Q472.15 319.7 467.95 321 L464.95 321.85 Q460.4 323.05 458.35 320.45 L457.05 319.6 Q454.6 318.7 452.9 318.45 447.95 317.7 446.6 322.85 L446.35 324.05 Q445.95 325.95 446.35 327.85 446.45 328.45 446.85 329 449.45 332.8 445.2 333.9 444.95 333.95 445 334.95 445.1 338.25 447.9 338.4 448.45 338.45 448.55 339 449.2 343.4 446.05 345.15 L444.95 345.95 455.1 346.9 455.6 346.8 456.25 346.4 Q456.95 345.95 457.9 345.75 L463.45 344.8 463.7 344.75 463.85 344.7 464.05 344.7 464.15 344.65 464.3 344.65 464.95 344.55 464.3 344.9 464.2 345 464.1 345.05 463.95 345.15 463.75 345.3 463.55 345.45 462.15 346.35 461.85 346.5 Q458.95 347.8 455.95 348.45 L457 348.35 462 347.85 462.3 347.8 464.9 347.5 465.4 347.45 466.05 347.3 Q468.7 346.75 469.35 348.2 L469.4 349 Q468.8 356.2 470.3 362.85 470.45 363.45 471.05 363.65 471.95 363.95 472.45 364.45 472.95 364.95 473.4 365.25 474.45 365.95 475.9 366.25 L477.95 366.95 479.95 367.95 Q479.45 369.95 479.9 371.7 479.95 371.95 480.85 372.25 481.45 372.45 481.7 373.05 482.25 374.65 485 374.5 485.45 374.45 485.9 375 487.45 376.95 488.55 379.15 488.95 379.95 488.95 380.95 L488.5 390.9 488.45 391.95 488.6 393.05 Q489.35 395.95 493 395.55 493.95 395.45 494.7 396.2 496.4 398 495.95 401.95 498.7 402.2 500.2 401.35 500.95 400.95 501.9 400.7 505.7 399.7 507.2 396.05 507.45 395.45 508.05 395.1 L511.45 392.45 Q511.95 391.95 512.8 392.3 L516.1 393.55 520.45 393.45 Q520.95 392.95 521.85 393.25 522.45 393.45 522.75 394.05 524 396.4 527.85 397.3 528.45 397.45 528.7 398.05 530.4 401.75 534.05 402.65 536.15 403.15 536.35 401 536.45 399.95 537.25 399.35 L542.7 394.7 544.1 393.05 Q548.75 386.5 555.85 384.6 L557.05 384.05 Q560.45 381.8 562.7 384.15 L564.15 385.8 Q566.05 388.05 568.85 389.2 571.3 390.2 573 393.95 573.75 395.65 577 395.3 579.95 394.95 582.65 395.85 582.95 395.95 582.9 396.95 582.75 400.1 581.95 402.95 L591.05 402.5 Q591.45 402.45 591.7 403.05 593.2 406.4 596.9 405.7 598.3 405.45 600.2 404.35 602.4 403.05 604.2 401.2 L606.7 398.7 608.2 397.15 Q609.95 395.3 609.2 393.2 608.95 392.45 607.9 392.2 L606.15 391.55 Q605.95 391.45 605.95 390.95 608.1 387.8 613.1 385.25 616.3 383.65 617.6 380.8 L618.2 379 Q618.45 377.95 619.1 377.1 620.2 375.7 620.4 373 620.65 369.75 619.45 368.45 L620.05 368.1 625.95 363.95 Q626.1 362.35 623.9 362.5 619 362.8 620.2 358 L620.95 355.95 617.05 356.35 615.85 356.75 614.95 356.95 Q615.15 353.45 617.65 352.3 L619.15 351.1 624.2 345.2 Q625.45 343.85 624.95 341.95 L622.05 342.3 Q621.55 342.45 618.85 340.6 619.6 339.25 619.95 337.95 L619.45 337.45 619.95 336.95 625.25 333.55 624.95 332.95 Q625.75 329.25 627.95 326.95 628.45 326.45 628.45 325.95 628.55 323.05 631.85 324.25 L633.05 324.6 Q634.45 324.95 635.85 324.6 636.45 324.45 636.55 323.9 637.6 317.45 644 316.2 644.95 316 645.6 315.55 647.05 314.5 648.75 315.4 650.25 316.25 652.95 316.05 653.95 316 654.65 316.45 L656.25 317.65 Q658.2 319.2 660.9 319.45 L662 319.6 Q665.2 320.25 665 317 664.95 316 664.5 315.35 663.45 313.9 664.1 312.05 L664.7 309.95 Q664.95 309 664.5 308.75 663.1 307.9 662.3 305.85 661.95 305 662.4 304.75 664.15 303.7 664.4 301.05 L664.4 300.05 Q663.45 293.15 669.95 293.9 670.95 294 671.6 293.5 673.65 292 675.95 292 L677.05 292.25 Q677.75 294.7 679.95 295 L681.35 295.7 681.35 295.65 681.55 295.3 Q681.95 294.5 682.8 293.8 684.6 292.35 683.4 290.65 682.95 290 683.15 289.05 683.85 285.9 687 285.3 691.5 284.4 694.95 282 693.6 279.35 691.45 277.45 690.95 277 690.75 276.05 L690.15 272.95 Q688.5 265.3 694.65 262.4 695.45 262 696.15 261.15 698.3 258.35 703.95 258.8 L709.9 258.6 711.05 258.35 Q713.7 257.8 714.95 259 715.45 259.5 715.95 259.5 718.9 259.6 718.35 263.05 718 265.35 719.75 267.2 721.45 269 722.55 271.2 722.95 272 722.85 273 722.45 277.4 726.7 278.75 727.45 279 727.65 280.05 728.45 283.85 725.25 286.4 724.45 287 723.95 288 727.6 288.9 729.45 290.55 729.95 291 729.95 292 M626.25 512.25 L629.95 511.95 627.95 511.95 626.25 512.25 M455.25 348.55 L454.9 348.55 Q451.6 348.95 452.95 348.95 L455.95 348.45 455.25 348.55 M483.95 305.25 Q483.1 305.15 481.95 306 L481.95 306.5 Q483.95 306.65 483.95 305.25"/>
  </g>
</svg>