<svg width="514.65px" height="514.4px" viewBox="0 0 514.65 514.4" xmlns="http://www.w3.org/2000/svg" xmlns:xlink="http://www.w3.org/1999/xlink">
  <defs/>
  <g>
    <path stroke="none" fill="#0099ff" fill-opacity="0.11764705882352941" d="M181.7 -181.75 Q257 -106.45 257 0.05 257 106.5 181.7 181.75 106.45 257.05 0 257.05 -106.45 257.05 -181.75 181.75 -257.05 106.5 -257.05 0.05 -257.05 -106.45 -181.75 -181.75 -106.45 -257 0 -257 106.45 -257 181.7 -181.75"/>
    <path stroke="none" fill="#00ff59" fill-opacity="0.3764705882352941" d="M257 -0.3 Q256.95 106.25 181.7 181.5 106.4 256.8 -0.05 256.75 -106.5 256.8 -181.8 181.5 L-194.25 168.25 Q-132.95 221.85 -49.55 221.75 42.4 221.8 107.45 156.75 113.7 150.5 119.45 143.95 125.9 138.3 132.2 132 197.2 67 197.25 -25.05 197.2 -116.95 132.15 -182 67.15 -247 -24.8 -247.1 -108.2 -247 -169.5 -193.5 L-170.4 -192.7 Q-98.6 -257.25 -0.05 -257.35 106.4 -257.25 181.65 -182 256.95 -106.7 257 -0.3"/>
    <path stroke="none" fill="#0099ff" d="M-190.85 -172.45 L-193.7 -169.2 -194.25 -168.75 -190.85 -172.45"/>
    <path stroke="none" fill="#edff88" fill-opacity="0.6392156862745098" d="M184.65 -166.15 Q141.45 -225 75.35 -246.15 155.8 -222.8 207.55 -152.25 270.3 -66.25 253.95 38.95 237.7 144.2 151.9 207 65.9 269.9 -39.3 253.6 -144.5 237.35 -207.25 151.4 -270.2 65.5 -254 -39.7 -252.5 -48.8 -250.65 -57.55 -257.65 23.55 -208.3 90.8 -154.05 165.05 -63.15 179.15 L-45.75 181.25 -28.55 184.45 Q62.3 198.5 136.6 144.2 210.7 89.9 224.8 -1 238.85 -91.85 184.65 -166.15"/>
    <path stroke="none" fill="#53acfc" fill-opacity="0.9098039215686274" d="M185.7 -137.1 Q230.55 -77.8 230.55 -0.05 230.55 9.2 229.95 18.1 224 101.95 162.95 162.9 101.8 224.2 17.5 229.95 L0 230.5 Q-95.45 230.5 -163.05 162.9 -224 101.95 -229.9 18.05 L-230.2 13.6 -230.5 -0.05 -230.5 -0.7 -230.5 -1.3 -230.2 -13.5 -229.95 -17.55 Q-225.35 -84.55 -185.75 -137.1 -175.6 -150.6 -163.05 -163.1 -95.45 -230.55 0 -230.55 95.5 -230.55 162.95 -163.1 175.45 -150.6 185.7 -137.1"/>
    <path stroke="none" fill="#006bff" fill-opacity="0.6392156862745098" d="M178.8 -132 Q222 -74.9 222 0 222 8.9 221.4 17.5 215.7 98.25 156.9 156.95 98 216 16.8 221.5 L-0.05 222.05 Q-92 222.05 -157.1 156.95 -215.8 98.25 -221.45 17.45 L-221.75 13.15 -222.05 0 -222.05 -0.65 -222.05 -1.2 -221.75 -12.95 -221.5 -16.85 Q-217.1 -81.4 -178.95 -132 -169.15 -145 -157.1 -157.05 -92 -222 -0.05 -222 91.95 -222 156.9 -157.05 168.95 -145 178.8 -132"/>
    <path stroke="none" fill="#0099ff" d="M-222.05 0 L-222.05 -0.65 -222.05 -1.2 -221.75 -12.95 -221.5 -16.85 Q-217.1 -81.4 -178.95 -132 -169.15 -145 -157.1 -157.05 -92 -222 -0.05 -222 91.95 -222 156.9 -157.05 168.95 -145 178.8 -132 222 -74.9 222 0 222 8.9 221.4 17.5 215.7 98.25 156.9 156.95 98 216 16.8 221.5 L-0.05 222.05 Q-92 222.05 -157.1 156.95 -215.8 98.25 -221.45 17.45 L-221.75 13.15 -222.05 0"/>
    <path fill="none" stroke="#999999" stroke-width="0.1" stroke-linecap="round" stroke-linejoin="round" d="M-221.75 13.15 L-222.05 0"/>
    <path stroke="none" fill="#2e2435" d="M64.75 -212.95 Q77 -190.2 87.75 -167.4 105.35 -176.65 123.55 -184.9 139.3 -174.1 153.75 -160.15 127.2 -148.85 102 -135.55 159.85 1.4 161.7 139.1 L172.45 139.95 Q165.2 148.65 156.9 156.95 142.1 171.75 125.95 183.25 L126.5 170.4 Q106.2 167.8 86.35 164.4 L86.3 164.4 Q-39.25 142.35 -146.1 83.4 -163.05 106.85 -178.85 132.05 -190.7 116.4 -199.3 99.4 -188.1 82.15 -176.3 65.75 -198.2 52.25 -219.25 37.1 -220.75 27.45 -221.45 17.45 L-222.05 0 -222.05 -0.65 -222.05 -1.2 -221.9 -8.4 Q-189.7 16.7 -155.35 37.7 -64.05 -79.45 57.2 -150.5 40.65 -185.85 20.25 -221.15 43.4 -219.3 64.75 -212.95 M92.35 130.05 L92.3 130.05 126.75 135.3 Q124.1 8.1 71.4 -118.4 -40.1 -52.15 -124.85 55.25 -24.8 109.5 92.35 130.05"/>
  </g>
</svg>