<svg width="959.35px" height="181.9px" viewBox="0 0 959.35 181.9" xmlns="http://www.w3.org/2000/svg" xmlns:xlink="http://www.w3.org/1999/xlink">
  <defs/>
  <g>
    <path stroke="none" fill="#000000" d="M454.1 45.95 L454.1 16.5 461.15 16.5 461.15 19.4 466.6 19.4 466.6 48.9 469.25 48.9 469.25 92.5 479.3 92.5 479.3 100 312.2 100 312.2 88.9 295.7 88.9 295.7 100 -167.1 100 -167.1 88.9 -183.65 88.9 -183.65 100 -480 100 -480 92.5 -477.5 92.5 -477.5 27.25 -468.05 27.25 -468.05 51.25 -467.8 51.25 -467.8 53.5 -466.05 53.5 -466.05 51.25 -461.5 51.25 -461.5 73.5 -457.5 73.5 -457.5 28.75 -443.05 28.75 -443.05 57.75 -425 57.75 -425 39.5 -424 39.5 -424 37.75 -425 37.75 -425 28 -421.05 28 -418.9 34.5 -417.5 34.5 -417.5 30.75 -413.55 30.75 -412.9 34.5 -412 34.5 -412 30.75 -408.55 30.75 -408.55 37.75 -410 37.75 -410 39.5 -408.55 39.5 -408.55 51.45 -407.8 51.45 -407.8 60.5 -406.05 60.5 -406.05 51.45 -404.25 51.45 -404.25 49 -403.05 49 -403.05 48 -404.25 48 -404.25 46.5 -395.55 46.5 -395.55 43.25 -394.75 43.25 -394.75 46.5 -392.25 46.5 -392.25 48 -393.55 48 -393.55 49 -392.25 49 -392.25 51.45 -381.5 51.45 -381.5 75.75 -378.55 75.75 -378.55 82.5 -381.5 82.5 -381.5 83 -378.3 83 -378.3 91.95 -358.55 91.95 -358.55 86 -359.75 86 -359.75 83.75 -358.55 83.75 -358.55 68 -356.5 68 -356.5 63 -354 63 -354 64.75 -348.55 64.75 -348.55 48.25 -345.8 48.25 -345.8 30.75 -337.25 30.75 -337.25 42.25 -334.05 42.25 -334.05 93.95 -322.55 93.95 -322.55 85 -323.3 85 -323.3 82.75 -322.55 82.75 -322.55 52 -312.25 52 -312.25 80 -308.8 80 -308.8 56.75 -307.25 56.75 -307.25 55.75 -308.8 55.75 -308.8 13.5 -300.25 13.5 -297.25 51.25 -297.05 52 -297.05 55.75 -298.8 55.75 -298.8 56.75 -297.05 56.75 -297.05 63.75 -287.55 63.75 -287.55 63 -284.5 63 -284.5 58 -283.85 58 -283.85 56.65 -278.85 56.65 -278.85 58 -274.35 58 -274.35 63.7 -270.6 63.7 -270.6 58 -267.1 58 -267.1 56.4 -261.6 56.4 -261.6 58 -243.05 58 -243.05 63 -241.55 63 -241.55 19.5 -225.55 19.5 -225.55 33.25 -224.5 33.25 -224.5 34.75 -201.05 34.75 -201.05 33.5 -200.05 33.5 -200.05 30 -198.15 30 -198.15 28.7 -195.9 28.7 -195.9 30 -191.5 30 -191.5 33.2 -187 33.2 -187 30 -184.15 30 -184.15 28.7 -181.65 28.7 -181.65 30 -180 30 -180 44.75 -176.05 44.75 -176.05 59.45 -175.65 59.45 -175.65 65.95 -162.65 65.95 -162.65 65.45 -155.55 65.45 -155.55 75.4 -151.15 75.4 -151.15 73.4 -133.15 73.4 -133.15 88.95 -131.05 88.95 -131.05 85.4 -130.15 85.4 -130.15 83.15 -131.05 83.15 -131.05 80.4 -130.15 80.4 -130.15 77.9 -131.05 77.9 -131.05 74.9 -130.15 74.9 -130.15 72.4 -131.05 72.4 -131.05 68.4 -130.15 68.4 -130.15 65.7 -131.05 65.7 -131.05 62.45 -130.15 62.45 -130.15 59.4 -131.05 59.4 -131.05 56.65 -130.15 56.65 -130.15 54.15 -131.05 54.15 -131.05 52.2 -130.15 52.2 -130.15 50.2 -131.05 50.2 -131.05 48.25 -122.9 46.75 -122.9 44.7 -121.65 44.7 -121.65 46.55 -121.4 46.5 -118.05 48.25 -118.05 50.2 -119.4 50.2 -119.4 52.2 -118.05 52.2 -118.05 54.15 -119.4 54.15 -119.4 56.65 -118.05 56.65 -118.05 59.4 -119.4 59.4 -119.4 62.45 -118.05 62.45 -118.05 65.7 -119.4 65.7 -119.4 68.4 -118.05 68.4 -118.05 72.4 -119.4 72.4 -119.4 74.9 -118.05 74.9 -118.05 77.9 -119.4 77.9 -119.4 80.4 -118.05 80.4 -118.05 83.15 -119.4 83.15 -119.4 85.4 -118.05 85.4 -118.05 93.95 -92.05 93.95 -92.05 93.9 -90.4 93.9 -90.4 64.95 -92.05 64.95 -92.05 63.2 -84.15 59.4 -84.15 46.65 -85.65 46.65 -85.65 43.9 -79.65 43.9 -79.65 41.3 -74.55 41.3 -74.55 43.9 -71.05 43.9 -71.05 19.4 -61.2 19.4 -61.2 56.65 -57.55 59.7 -57.55 65.7 -44.05 65.7 -44.05 63.5 -30.05 63.5 -30.05 45.95 -25.2 45.95 -25.2 16.5 -18.2 16.5 -18.2 19.4 -12.7 19.4 -12.7 48.9 -10.05 48.9 -10.05 92.5 1.8 92.5 1.8 27.25 11.3 27.25 11.3 51.25 11.55 51.25 11.55 53.5 13.3 53.5 13.3 51.25 17.8 51.25 17.8 73.5 21.8 73.5 21.8 28.75 36.3 28.75 36.3 57.75 54.3 57.75 54.3 39.5 55.3 39.5 55.3 37.75 54.3 37.75 54.3 28 58.3 28 60.45 34.5 61.8 34.5 61.8 30.75 65.8 30.75 66.4 34.5 67.3 34.5 67.3 30.75 70.8 30.75 70.8 37.75 69.3 37.75 69.3 39.5 70.8 39.5 70.8 51.45 71.55 51.45 71.55 60.5 73.3 60.5 73.3 51.45 75.05 51.45 75.05 49 76.3 49 76.3 48 75.05 48 75.05 46.5 83.8 46.5 83.8 43.25 84.55 43.25 84.55 46.5 87.05 46.5 87.05 48 85.8 48 85.8 49 87.05 49 87.05 51.45 97.8 51.45 97.8 75.75 100.8 75.75 100.8 82.5 97.8 82.5 97.8 83 101.05 83 101.05 91.95 120.8 91.95 120.8 86 119.55 86 119.55 83.75 120.8 83.75 120.8 68 122.8 68 122.8 63 125.3 63 125.3 64.75 130.8 64.75 130.8 48.25 133.55 48.25 133.55 30.75 142.05 30.75 142.05 42.25 145.3 42.25 145.3 93.95 156.75 93.95 156.75 85 156.05 85 156.05 82.75 156.75 82.75 156.75 52 167.05 52 167.05 80 170.55 80 170.55 56.75 172.05 56.75 172.05 55.75 170.55 55.75 170.55 13.5 179.1 13.5 182.05 51.25 182.25 52 182.25 55.75 180.55 55.75 180.55 56.75 182.25 56.75 182.25 63.75 191.75 63.75 191.75 63 194.8 63 194.8 58 195.5 58 195.5 56.65 200.5 56.65 200.5 58 205 58 205 63.7 208.75 63.7 208.75 58 212.2 58 212.2 56.4 217.7 56.4 217.7 58 236.3 58 236.3 63 237.8 63 237.8 19.5 253.8 19.5 253.8 33.25 254.8 33.25 254.8 34.75 278.3 34.75 278.3 33.5 279.25 33.5 279.25 30 281.2 30 281.2 28.7 283.45 28.7 283.45 30 287.8 30 287.8 33.2 292.3 33.2 292.3 30 295.2 30 295.2 28.7 297.7 28.7 297.7 30 299.3 30 299.3 44.75 303.3 44.75 303.3 59.45 303.7 59.45 303.7 65.95 316.65 65.95 316.65 65.45 323.8 65.45 323.8 75.4 328.2 75.4 328.2 73.4 346.2 73.4 346.2 88.95 348.3 88.95 348.3 85.4 349.15 85.4 349.15 83.15 348.3 83.15 348.3 80.4 349.15 80.4 349.15 77.9 348.3 77.9 348.3 74.9 349.15 74.9 349.15 72.4 348.3 72.4 348.3 68.4 349.15 68.4 349.15 65.7 348.3 65.7 348.3 62.45 349.15 62.45 349.15 59.4 348.3 59.4 348.3 56.65 349.15 56.65 349.15 54.15 348.3 54.15 348.3 52.2 349.15 52.2 349.15 50.2 348.3 50.2 348.3 48.25 356.45 46.75 356.45 44.7 357.7 44.7 357.7 46.55 357.95 46.5 361.3 48.25 361.3 50.2 359.95 50.2 359.95 52.2 361.3 52.2 361.3 54.15 359.95 54.15 359.95 56.65 361.3 56.65 361.3 59.4 359.95 59.4 359.95 62.45 361.3 62.45 361.3 65.7 359.95 65.7 359.95 68.4 361.3 68.4 361.3 72.4 359.95 72.4 359.95 74.9 361.3 74.9 361.3 77.9 359.95 77.9 359.95 80.4 361.3 80.4 361.3 83.15 359.95 83.15 359.95 85.4 361.3 85.4 361.3 93.95 387.25 93.95 387.25 93.9 388.95 93.9 388.95 64.95 387.25 64.95 387.25 63.2 395.2 59.4 395.2 46.65 393.7 46.65 393.7 43.9 399.65 43.9 399.65 41.3 404.75 41.3 404.75 43.9 408.3 43.9 408.3 19.4 418.15 19.4 418.15 56.65 421.75 59.7 421.75 65.7 435.3 65.7 435.3 63.5 449.25 63.5 449.25 45.95 454.1 45.95 M408.3 18.45 L408.3 16.5 418.15 16.5 418.15 18.45 408.3 18.45 M435.3 72.9 L435.3 69.4 421.75 69.4 421.75 72.9 435.3 72.9 M421.75 96.45 L435.3 96.45 435.3 75.4 421.75 75.4 421.75 96.45 M328.2 88.95 L328.2 77.9 323.8 77.9 323.8 88.95 328.2 88.95 M287.8 35.95 L287.8 53.5 292.3 53.5 292.3 35.95 287.8 35.95 M253.8 18.5 L237.8 18.5 237.8 16.5 240.3 16.5 240.3 0 241.8 0 241.8 16.5 242.55 16.5 242.55 11.5 243.3 11.5 243.3 16.5 253.8 16.5 253.8 18.5 M253.8 37.25 L253.8 40.25 279.25 40.25 279.25 37.25 253.8 37.25 M269.45 44.25 L269.45 76.65 270.7 76.65 270.7 78 279.25 78 279.25 44.25 269.45 44.25 M253.8 44.25 L253.8 94.45 262.7 94.45 266.2 94.1 266.2 81.9 264.75 81.9 264.75 78 266.7 78 266.7 76.65 267.7 76.65 267.7 44.25 253.8 44.25 M323.8 64.4 L316.65 64.4 316.65 63.45 323.8 63.45 323.8 64.4 M170.55 12.5 L170.55 9.75 178.8 9.75 179 12.5 170.55 12.5 M191.75 66.5 L182.25 66.5 182.25 82.75 182.8 82.75 182.8 85 182.25 85 182.25 93.95 191.75 93.95 191.75 91.75 193.55 91.75 193.55 68.25 191.75 68.25 191.75 66.5 M205 66.2 L205 90.4 208.75 90.4 208.75 66.2 205 66.2 M133.55 29.5 L133.55 28 142.05 28 142.05 29.5 133.55 29.5 M167.05 49.45 L167.05 51 156.75 51 156.75 49.45 167.05 49.45 M130.05 68 L130.05 65.75 129.3 65.75 129.3 68 130.05 68 M128.3 65.75 L127.3 65.75 127.3 68 128.3 68 128.3 65.75 M126.05 68 L126.05 65.75 125.3 65.75 125.3 68 126.05 68 M25.3 22.5 L25.3 14 27.55 14 27.55 19.6 36.3 22.5 36.3 27.75 21.8 27.75 21.8 22.5 25.3 22.5 M9.3 17.05 L11.3 16.5 11.3 22.25 1.8 22.25 1.8 19 7.55 17.5 7.55 13.25 9.3 13.25 9.3 17.05 M13.3 55.25 L11.55 55.25 11.55 64 13.3 64 13.3 55.25 M1.8 23.75 L11.3 23.75 11.3 26.25 1.8 26.25 1.8 23.75 M11.55 65.5 L11.55 82.25 13.3 82.25 13.3 65.5 11.55 65.5 M17.8 78.95 L21.8 78.95 21.8 76.25 17.8 76.25 17.8 78.95 M36.3 88 L38.05 88 38.05 94.25 48.55 94.25 48.55 88 50.8 88 50.8 68.5 54.3 68.5 54.3 61 36.3 61 36.3 88 M71.55 72.25 L71.55 87 73.3 87 73.3 72.25 71.55 72.25 M71.55 69.75 L73.3 69.75 73.3 63.25 71.55 63.25 71.55 69.75 M-71.05 18.45 L-71.05 16.5 -61.2 16.5 -61.2 18.45 -71.05 18.45 M-44.05 69.4 L-57.55 69.4 -57.55 72.9 -44.05 72.9 -44.05 69.4 M-57.55 75.4 L-57.55 96.45 -44.05 96.45 -44.05 75.4 -57.55 75.4 M-151.15 77.9 L-155.55 77.9 -155.55 88.95 -151.15 88.95 -151.15 77.9 M-155.55 63.45 L-155.55 64.4 -162.65 64.4 -162.65 63.45 -155.55 63.45 M-191.5 35.95 L-191.5 53.5 -187 53.5 -187 35.95 -191.5 35.95 M-200.05 40.25 L-200.05 37.25 -225.55 37.25 -225.55 40.25 -200.05 40.25 M-237.5 0 L-237.5 16.5 -236.75 16.5 -236.75 11.5 -236.05 11.5 -236.05 16.5 -225.55 16.5 -225.55 18.5 -241.55 18.5 -241.55 16.5 -239 16.5 -239 0 -237.5 0 M-225.55 44.25 L-225.55 94.45 -216.6 94.45 -213.15 94.1 -213.15 81.9 -214.55 81.9 -214.55 78 -212.65 78 -212.65 76.65 -211.6 76.65 -211.6 44.25 -225.55 44.25 M-208.65 76.65 L-208.65 78 -200.05 78 -200.05 44.25 -209.85 44.25 -209.85 76.65 -208.65 76.65 M-322.55 49.45 L-312.25 49.45 -312.25 51 -322.55 51 -322.55 49.45 M-300.55 9.75 L-300.3 12.5 -308.8 12.5 -308.8 9.75 -300.55 9.75 M-285.8 68.25 L-287.55 68.25 -287.55 66.5 -297.05 66.5 -297.05 82.75 -296.5 82.75 -296.5 85 -297.05 85 -297.05 93.95 -287.55 93.95 -287.55 91.75 -285.8 91.75 -285.8 68.25 M-274.35 66.2 L-274.35 90.4 -270.6 90.4 -270.6 66.2 -274.35 66.2 M-345.8 29.5 L-345.8 28 -337.25 28 -337.25 29.5 -345.8 29.5 M-349.25 65.75 L-350 65.75 -350 68 -349.25 68 -349.25 65.75 M-352 68 L-351.05 68 -351.05 65.75 -352 65.75 -352 68 M-354 65.75 L-354 68 -353.3 68 -353.3 65.75 -354 65.75 M-443.05 27.75 L-457.5 27.75 -457.5 22.5 -454 22.5 -454 14 -451.75 14 -451.75 19.6 -443.05 22.5 -443.05 27.75 M-477.5 19 L-471.75 17.5 -471.75 13.25 -470 13.25 -470 17.05 -468.05 16.5 -468.05 22.25 -477.5 22.25 -477.5 19 M-466.05 55.25 L-467.8 55.25 -467.8 64 -466.05 64 -466.05 55.25 M-477.5 23.75 L-468.05 23.75 -468.05 26.25 -477.5 26.25 -477.5 23.75 M-467.8 65.5 L-467.8 82.25 -466.05 82.25 -466.05 65.5 -467.8 65.5 M-457.5 76.25 L-461.5 76.25 -461.5 78.95 -457.5 78.95 -457.5 76.25 M-406.05 69.75 L-406.05 63.25 -407.8 63.25 -407.8 69.75 -406.05 69.75 M-407.8 72.25 L-407.8 87 -406.05 87 -406.05 72.25 -407.8 72.25 M-425 68.5 L-425 61 -443.05 61 -443.05 88 -441.3 88 -441.3 94.25 -430.8 94.25 -430.8 88 -428.55 88 -428.55 68.5 -425 68.5"/>
    <path stroke="none" fill="#000000" d="M479.3 181.9 L-480.05 181.9 -480.05 100 479.3 100 479.3 181.9"/>
  </g>
</svg>