<svg width="960px" height="171.7px" viewBox="0 0 960 171.7" xmlns="http://www.w3.org/2000/svg" xmlns:xlink="http://www.w3.org/1999/xlink">
  <defs/>
  <g>
    <path stroke="none" fill="#2b2429" d="M671.95 381.45 L684.5 380.9 687.1 380.45 689.9 380.35 Q692.1 380.6 692.75 379.85 692.95 379.65 693.8 379.4 703.3 377.25 713.85 375.4 L720.95 374.7 723 374.55 728.95 373.8 Q733.6 373.05 737.2 371.75 L738.9 371.4 Q743.75 370.9 746.75 372.75 748.45 373.85 750.75 374.2 L753.05 374.9 Q759.55 378 767.9 378.6 773.9 379 778.9 380.85 L779 380.9 784.9 383.15 786 383.45 Q787.6 383.65 787.9 384.75 L788.9 384.7 791 384.4 Q799.45 382.95 808.95 382.8 L810 382.8 821.9 381.85 827.9 381.65 Q831.15 381.8 832.3 380.95 L832.45 380.9 Q833.05 380.45 833.95 380.25 841.55 378.15 850 377.55 L856.95 377.2 872 377.7 Q877.2 378.1 881.85 379.2 L886 380.05 888.9 380.4 891 380.55 897.8 380.9 900.9 381 904 381.2 909.9 381.6 911 381.7 915.9 381.75 Q919.4 381.45 919.9 383 L920.95 383.1 925.2 383.35 926 383.35 930.9 382.9 932.05 382.75 935.9 382.35 Q938.7 382.15 940.3 380.95 L940.45 380.9 960 380.9 960 539.95 0 539.95 0 380.9 10.5 380.9 15.9 382.15 17.1 382.45 Q20 383.5 24 383.4 33.5 383.1 43 383.1 L50.95 382.9 53 382.55 Q55.4 381.8 56.75 380.9 L56.9 380.75 Q58.35 379.65 61.95 379.35 L63.1 379.15 Q66 378.1 70 378.15 L72.05 377.95 75.95 377.2 Q80.15 376.4 82.9 375.45 L83.95 374.95 Q86.75 373.05 91 372.95 L92.1 372.75 Q99.25 370.5 108.95 369.1 L112 368.65 123.95 368.25 126.05 368.45 134.95 369.85 140.05 370.8 152 371.8 153.05 372 Q156.55 373.45 160.1 375.5 161.65 376.35 165 376.45 L166.1 376.5 174.9 378.1 Q183.9 379.9 194 380.2 L195.9 380.4 197.1 380.6 199.1 380.9 Q206.9 382.1 213.15 384.15 L216 384.85 Q219.75 385.55 224.15 387.05 L228.1 388.25 230.95 389 233.05 389.3 237.2 389.85 238.95 390.2 243 390.65 247.05 391.1 Q250.7 391.25 254.05 390.95 L259 390.75 273.9 390 277 389.75 286.9 389.3 289 389.15 293.9 388.7 295.05 388.5 303.9 387.5 305.05 387.4 307.9 387.05 310 386.7 319.95 385.75 321 385.7 330.95 385.4 338.1 385.75 343.05 385.6 Q348.7 384.25 354.9 383.5 L357 383.15 Q360.65 382.25 364.05 380.9 366.85 379.7 369.45 378.15 370.45 377.6 371.7 377.1 L376.95 374.95 Q377.65 376.6 380.1 377.05 L382.9 377.45 385 377.75 397.9 379.25 410.95 379.85 Q416.7 379.7 419.45 378.15 L420.85 377.7 Q429.6 376.1 439.95 376.55 L447.75 377.2 Q448.45 377.3 449.2 377.75 451.6 379.25 455.1 379.95 L457.95 380.2 472.9 380.45 474.05 380.7 474.6 380.9 Q479.45 382.4 486.95 382.25 L489 382.3 498.95 382.6 Q503.95 382.6 508.1 381.55 L509.9 381.2 512.25 380.9 529 378.6 Q538.45 377.45 547.2 375.3 L549.85 374.75 560.9 372.6 563 372.2 576.95 371.3 581.15 371.85 582.8 372.25 587.9 373.35 590 373.7 593.8 374.6 601.9 376.25 604 376.55 Q614 377.95 624.95 378.15 625.95 378.15 626.9 378.5 L631.2 379.95 632.95 380.2 641.1 380.9 644.5 381.8 Q644.95 381.95 644.65 382.45 L643.95 383.1 659.95 381.9 671.95 381.45"/>
  </g>
</svg>