<svg width="919.95px" height="319.9px" viewBox="0 0 919.95 319.9" xmlns="http://www.w3.org/2000/svg" xmlns:xlink="http://www.w3.org/1999/xlink">
  <defs/>
  <g>
    <path stroke="none" fill="#e8ff8a" d="M754 295.35 L758.9 294.6 Q764.25 293.8 767.75 291.65 770.8 289.75 770.5 285.95 770.45 285.5 770.75 284.9 773.2 279.7 775.5 275.75 775.95 275 775.85 274 775.35 270.1 778 268.05 780.9 265.75 785.05 267.8 L787.9 269.15 Q793.15 271.4 795.55 276.2 L796.25 277.9 Q796.75 279.7 800 279.15 L801.95 279 Q801.75 284.05 798.15 288.2 L796.8 289.9 Q794.5 292.95 798.85 295.15 802.05 296.75 805.05 298.9 809.1 301.85 808.2 305.85 L807.35 308.2 Q806.15 310.55 803.95 311 805.5 312.5 806.5 314.25 806.95 315 806.65 315.9 L806.45 317 Q806.45 318 807.2 318.75 L808.9 320.05 Q813.15 322.55 813.4 326.9 L813.6 328.05 Q813.95 329.45 813.9 330.95 813.75 333.65 815.3 334.8 L814.85 335.85 813.95 336.95 Q813.85 338.6 816 338.5 L817 338.5 Q819.75 338.75 821.95 339.95 L824 340.6 Q828.9 341.25 831.95 342.95 833.6 341.15 835.15 338.05 837 334.25 839.95 331.95 L843.8 328.75 Q846.5 326.35 849.7 324.55 851.6 323.45 853 323.1 858.6 321.75 862.25 325.7 L864 326.75 Q867.85 327.95 870.95 330.95 869.95 332.85 867 335.05 L865.95 335.95 Q865.85 337.6 867.95 337.5 L870 337.6 874.9 338.35 Q875.45 338.45 875.85 339.05 878.1 342.45 875.95 344.95 L882.95 345.7 Q887.2 346 884.8 349.85 L884.3 351.05 Q883.85 352.6 886 352.5 L887.05 352.75 Q890.2 354.25 894.9 353.65 898.15 353.25 899.45 354.45 L900 354.35 Q901.6 354.1 901.9 352.1 L902.95 351.9 Q907.85 351.8 909.55 355.15 L910.05 356.95 Q910.25 358.65 913 358.15 L914.95 357.95 Q912.85 361.4 914.9 363 915.45 363.45 915.55 364.05 915.7 364.65 922.95 365.25 L922.95 367.55 861.15 367.3 775.7 367.25 767 368.3 764.95 368.45 764.2 368.55 Q760.85 369.85 756.95 369.95 755.95 369.95 755.35 370.45 752.9 372.4 747.95 372.7 L741 373.35 Q731.9 374.5 722 373.55 L719.9 373.2 Q718.95 372.95 718.7 372.5 717 369.45 712 370.35 L711.2 370.35 Q709.3 369.6 706.05 370.3 L704.9 370.5 697.95 371.2 690.95 371.8 688.1 371.5 Q685.75 370.75 683 370.45 673.85 369.45 664 370.35 L661.95 370.45 660 370.55 640.95 372.8 Q639.95 372.95 639.7 372.5 638.65 370.75 636 371.3 L629 371.5 627.9 371.4 620.95 371.2 613.95 371.85 Q612.95 371.95 612.15 372.35 609.9 373.4 605.95 372.95 608.35 371.45 606.1 369.75 604.7 368.75 602 368.55 600.95 368.45 600.4 367.65 L600.05 367.2 Q598.1 364.95 593.9 365.75 L592.25 365.5 Q589.95 363.95 588.1 361.8 586.95 360.45 586.05 358.9 585.15 357.25 582.1 358.35 L578.8 359.65 570.1 363.3 Q567.65 364.3 566.15 365.25 564.7 366.2 562 366.4 L560.85 366.65 559.45 367.15 Q554.4 369.05 551.05 371.1 L549.95 371.45 Q546.75 371.45 543.9 370.05 538.8 367.6 533.9 370.85 532.95 371.45 531.95 371.45 521.8 371.6 514.05 374.25 L512.95 374.45 Q507 374.35 502 376.1 L496.85 377.6 494 378.2 484.95 378.8 Q475.6 378.6 467 380.25 L464.9 380.55 457.95 380.95 Q456.95 380.95 456.5 380.45 454.7 378.55 452.9 378.15 L451.25 378.4 Q445.65 381.95 439.05 383.35 L437.85 383.6 435 384.25 Q430.85 385.05 430.9 381.95 430.95 379.45 430.55 377 430.45 376.45 429.9 376.4 423.35 375.5 418.05 372.75 L416.85 372.1 Q412.55 369.3 407 367.1 L403.05 365.65 Q396.85 363.55 389.9 362.3 L386.05 361.5 Q381.9 360.5 375.95 360.45 371.4 360.4 369 362.05 L367.85 362.7 Q364.85 363.9 364.4 367.1 364.15 368.35 364.35 369.9 364.8 373.8 362.95 374.95 361.4 372.85 358.05 375.05 356.05 376.35 352.85 377.7 L348.95 379 343 380.35 341.85 380.75 Q338.95 382.25 335.8 384.75 334.95 385.45 333.9 385.65 L323.95 386.8 312.05 387.4 310.95 387.55 Q308.7 387.95 306.8 389.75 L305 390.9 Q302.5 391.95 300.1 393.15 L298.9 393.55 Q295.05 394.4 293.05 392.9 292.5 392.45 291.9 392.3 L289.1 391.55 Q282.95 389.7 279.05 393 L278 393.45 Q275.05 393.35 272.8 394.55 L271.55 395.45 Q266.8 400.5 258.05 402.25 L255.95 402.8 252 403.9 Q246.85 404.95 244 407.95 L245 407.95 246 407.95 Q244.45 408.15 243.75 409.85 243.5 410.45 242.9 410.55 239.7 411.25 240.5 412.45 239.05 411.35 235.95 411.75 230.2 412.6 227.25 409.7 226.5 408.95 225.85 408.85 L215 407.95 Q214 407.95 213.3 407.5 212.5 406.95 212.75 406.2 214.75 400.5 208 400.95 L209.7 394.85 Q211.2 390.25 207.05 391.15 203.6 391.9 203.5 388.95 203.5 388.45 203.15 388.55 L197 388.95 197.9 387.85 198.75 385.9 Q199 384.95 198.5 384.35 196.95 382.5 193 382.45 L190.95 382.3 187.05 381.65 Q186 381.45 185.45 380.65 185 379.95 185.5 379.55 186.8 378.55 186.55 376 186.05 371.4 180 371.9 L178.15 371.6 Q174.35 370.05 173.6 367 173.2 365.65 173.45 364 173.95 360.55 171 360.45 L168.95 360.4 Q162 359.95 155 360.1 149.9 360.25 145.1 361.3 141.75 362 138.1 364.1 L136.9 364.65 Q133.95 365.55 131.4 367 L129.95 367.85 128.25 369.2 Q126.45 370.9 123 370.95 122 370.95 121.25 370.5 118.65 369.05 116.95 370.95 L115.9 371.65 114.75 371.5 Q113.7 369.75 111 369.6 L106 369.1 Q105 368.95 104.3 369.4 99.45 372.75 94.1 369.8 93.5 369.45 93 369.45 L91.9 369.65 Q91 369.95 90.25 370.4 88.5 371.45 86.9 372.8 85.5 373.95 83.95 374.9 L81.95 375.65 Q77.35 376.55 74.1 378.15 L72.9 378.6 Q68.55 379.7 66.85 377.05 L65.9 376.25 Q61.3 374.7 58.3 371.65 55.8 369.15 50 369.7 48.15 369.85 46.65 368.3 L45.2 366.95 26 366.95 3 366.45 Q27.65 363.75 28.35 361.05 28.5 360.45 29 359.95 30 358.95 31.2 358.35 32 357.95 33 357.85 36.95 357.5 40.15 355.2 41.8 354 43.95 353.65 45 353.45 45.9 352.8 48.6 350.85 48 346.95 50.2 348.85 54.15 350.65 55.9 351.45 57.25 350.2 L58.95 348.85 Q63.9 345.75 67.1 342.05 68.3 340.75 70.95 341.25 L73 341.5 Q82 341.95 91 341.95 88.6 340.45 90.5 338.45 L91.25 337 Q91.5 335.95 92.15 335.05 94.25 332.05 95.75 328.85 96.65 326.85 95.4 326.2 95 325.95 95.05 324.95 95.25 319.7 98 317 L98.55 315.95 Q99.15 310.8 103.15 309.45 104.5 309 105.95 308.7 L108 308 Q111.65 306.05 116 305.85 122.9 305.5 128.9 307.3 129.5 307.5 129.6 308.05 130.55 313.95 131 319.95 134.05 319.45 137.15 317.25 L140.95 314.9 Q147.15 311.8 151.95 309.9 153.7 309.2 153.55 305.95 153.5 305 153.8 303.95 155.15 298.75 155.4 293 155.5 291 156.75 289.75 L159 287 149.9 284.3 148.1 283.7 Q143.95 282.2 144 278 144 277 144.55 275.8 145.85 272.95 147.2 271.35 147.5 271 146.75 270.25 145.5 269 145.2 266.95 144.45 261.95 145.7 258.9 147.6 254.3 149.2 251.55 149.5 251 149.3 249.95 148.65 245.95 151.25 243.25 L152.75 241.75 Q156.95 237.4 163.15 234.25 168.8 231.35 176 232.15 181.5 232.7 186.05 231.2 187.2 230.8 188.4 229.3 189 228.5 189.95 227.95 193.1 226.1 197.05 225.2 198.65 224.9 198.5 227.05 198.5 227.5 199.05 227.6 204.45 228.55 209 227 215.25 224.85 219 221 L219.55 219.95 220.25 213 Q220.65 207.85 223.15 204.1 226 199.85 230 198 228.7 196.3 224.95 196.5 L214 196 Q215 191.1 220 188.95 L222 188 219 185 Q218.5 184.5 218.45 183.95 218.3 181.15 215.05 180.65 L213 180.5 Q210.1 180.45 211.05 177 211.85 174.15 215.95 173.6 216.5 173.5 217.05 173.05 222.2 168.9 232 169.35 239.75 169.75 243.05 166.05 245.35 163.55 247.8 161.7 250.85 159.4 255 160 250.65 156.9 247 151 252.15 150.15 257.35 146.45 258 146 258.85 145.65 263.45 143.65 264.3 139.05 L264.65 136.95 265.35 132.05 Q265.5 131 266.05 130 268.25 125.9 270.55 122.65 271 122 271.1 121 271.2 119.8 272.9 118.85 L274 118 Q278.7 113.5 284.95 112.65 L287.05 112.35 297 111.15 299.95 110.7 Q303.75 109.85 308 107 316.9 101 328.1 95.3 330.45 94.1 332.1 93.35 332.95 93 333.9 92.8 340.35 91.55 342.25 96.9 L342.75 98.1 Q346.3 105.4 352.05 113.95 352.45 114.5 353.05 114.6 354.9 115.05 356.1 115.8 358.95 117.65 363 117.2 L366.95 117 Q366.8 119.65 363.95 119.5 L363.95 120 374.95 120 375.95 120 371.85 121.8 371.1 122 Q378.85 121.8 386.05 120.45 L390.95 119.75 Q394.55 119.45 393.55 121.3 L394 121.6 398.95 122.2 405.95 123.15 Q407.95 123.5 409.9 124.15 L411.95 125 Q411.8 128.2 408.05 129.4 L402.9 130.8 400.95 131 Q401.25 133.2 403.7 133.9 403.95 134 403.7 134.95 403.45 136 402.7 136.75 L400.9 137.95 Q397.8 139.25 394.1 141.3 391.35 142.85 390.75 144.35 390.45 145 390.85 146.05 391.75 148.2 392.05 151 392.45 154.5 388.95 154.5 L386.9 154.75 Q382.35 155.75 378.05 157.35 375.55 158.25 374.75 159.9 L373.95 161 372.95 162 Q375.5 162.25 378 163.9 378.95 164.5 379.5 165.3 379.95 166 379.8 167 379.25 171.2 384 170.25 386.15 169.8 385.2 171.6 384.95 172 383.95 172 389.95 173.95 395.95 172 397.9 173 397 175.4 L398 175.7 400.9 176.35 Q403.1 176.85 403.95 179 401.4 179.2 400.55 180.8 400.45 181 399.95 181 401.25 182.7 405 182.35 L411.95 182 Q410.65 185.35 408.45 187.5 407.95 188 408.4 188.7 408.95 189.5 409.95 189.55 414.1 189.8 412.45 191.5 L412.9 192.05 Q417.15 197.4 419.5 201.25 419.95 202 419.65 202.9 L418.55 206.9 418.3 208.1 417.45 210.8 Q416.95 212 415.75 212.55 413.8 213.45 412.95 216 417.1 215.8 415.25 217.35 L413.65 218.65 Q411.85 220.15 410.4 222.3 409.95 223 410.15 223.95 410.75 226.7 413.9 227.3 L416 227.9 Q420.35 229.65 420.5 234 L424.9 233.6 427 233.3 Q428.85 233 430.45 232.25 L430.6 231.9 Q430.95 230.5 431.55 229.3 431.95 228.5 432.85 227.85 434.25 226.8 436.9 226.6 L438.95 226.5 Q439.45 226.5 440.05 226.8 446.3 230.2 445.4 238.05 444.95 242 445.35 245.95 445.55 248.35 447.85 250.15 L450.1 251.8 455.7 255.4 Q457.95 256.7 457.2 258.75 456.95 259.5 456 260.1 451.25 263.1 445.9 263.8 L443.05 264.35 Q442.45 264.5 441.95 265 441.05 268.45 443.95 268.5 444.45 268.5 444.85 269.05 L449.45 274.45 Q449.95 275 450.1 275.95 451.15 282.05 446.05 283.35 445.45 283.5 444.95 284 L443.95 285 Q446.3 286.4 448.9 287.2 450.95 287.85 452.4 290.8 453 291.95 454.95 292.2 L461.95 292.85 466.95 293 Q464.75 297.6 470.9 296.6 474.45 296 477.95 295 476.3 297.25 472.95 299 L480.9 298.6 483 298.35 487.9 297.6 489.05 297.3 Q491.5 296.55 491.45 293 491.45 292 491.7 290.95 492.7 287 496.05 283.05 L497.65 280.8 499.3 278.25 501.65 274.8 Q503.4 272.2 504.3 269.1 507.3 258.85 515.15 255.4 526.95 250.25 540.9 251.4 541.95 251.5 542.9 252.1 546.05 254.2 550 258.95 L556.6 267.25 Q560.1 271.7 565.05 274.8 566.95 276 569.05 276.75 574.15 278.65 573.6 282.95 573.45 284 572.65 284.65 L567.9 287.95 Q563.95 290.25 559.9 291.9 557.7 292.85 556.95 294 562.15 296.8 569.05 299.8 571.65 300.95 570.9 304 569.85 308.1 567.45 310.5 566.95 311 566.9 312 566.75 314.7 568.9 315.2 570.7 315.6 571.65 318.1 L572.35 319.75 Q573 320.9 574.85 321.35 575.45 321.45 575.65 322.05 576.25 324.15 578.9 324.35 L580.95 324.95 Q578.15 325.65 576.65 327.7 L575.95 327.95 Q579.95 329.65 584.95 329.2 L588.95 329.45 588.05 330.05 587.15 330.8 588.9 330.55 Q591.7 330.25 593.1 328.05 593.45 327.45 594.05 327.2 596.3 326.2 596.35 323.95 596.4 322.15 598.85 321.6 599.45 321.45 599.85 320.9 L602.95 316 Q605.05 317.6 606.5 320.2 L607.45 321.45 608.75 321.55 Q610.95 320.4 611.3 323.9 611.5 325.95 613.1 326.25 613.95 326.45 614.7 325.7 616 324.4 618.85 323.6 619.45 323.45 619.5 322.9 619.9 318.4 621.55 315.75 623.4 312.9 623.2 309 622.95 303.5 623.8 298.15 623.95 297 625.15 296.4 630.45 293.8 633.7 289.8 637.15 285.6 642.8 283.6 644.85 282.85 645.1 281 645.6 276.8 642 276.55 641.45 276.5 641.35 275.95 640.6 270.95 642.95 267 646.15 261.7 649.9 257.95 653.55 254.25 656.35 250.3 657.85 248.15 659.75 246.75 661.45 245.5 663.2 244.45 L664.85 244.35 Q669.5 246.05 669.9 251.95 669.95 252.5 671 252.65 677 253.45 679.3 250.25 681.15 247.7 682.75 246.7 683.9 245.95 683.7 244.05 683.2 239.75 685.65 238.45 686.45 238 686.8 236.95 L688.1 233.05 Q688.45 232 689.25 231.45 689.95 231 690.85 230.7 L692 230.05 694.95 227 Q694.65 231.8 698.9 232.4 699.45 232.5 699.7 233.1 700.5 235 702.1 235.65 L703.95 236 709.95 236 Q708.3 238.25 704.95 240 705.25 241.7 708 241.55 L709.05 241.6 Q710.9 242.05 711.55 243.2 712.6 245.15 711.35 245.8 710.95 246 711.05 247 711.55 253.45 709.3 258.7 L708.2 260.25 706.65 261.55 704.95 262 Q706.45 264 707.55 266.2 707.95 267 707.95 268 707.95 275 708.4 281.95 708.45 282.5 708.95 283 L710.95 285 704.85 287.8 703.95 288 Q705.25 289.7 709 289.3 711.3 289 712.55 291.25 712.95 292 712.7 292.95 712.45 294 711.75 294.85 708.4 298.75 711.1 302.9 711.45 303.5 712.05 303.8 717.05 306.25 721.95 308.95 722.95 309.5 723.5 310.3 723.95 311 723.8 311.95 L722.95 316 734.05 315.65 Q734.95 315.5 735.7 316.25 736.2 316.75 738.2 314.2 L740.5 310.75 741.35 309.25 Q742.6 306.95 741.85 304.05 741.45 302.5 741.45 301 741.45 300 741.9 299 743.35 295.9 747.95 295.85 L754 295.35 M587.15 330.8 Q586.1 330.95 586.95 330.95 L587.15 330.8 M430.45 232.25 L429.85 232.75 Q426.2 234.2 426.95 234 L429.85 232.8 Q432.45 231.5 430.95 232 L430.45 232.25"/>
  </g>
</svg>