<svg width="961.1px" height="200.25px" viewBox="0 0 961.1 200.25" xmlns="http://www.w3.org/2000/svg" xmlns:xlink="http://www.w3.org/1999/xlink">
  <defs/>
  <g>
    <path stroke="none" fill="#332746" fill-opacity="0.8588235294117647" d="M71.2 -93.4 Q76.95 -89.25 83.1 -85.95 88.25 -83.4 93.25 -81.15 97.3 -79.35 102.2 -80.45 103.25 -80.6 104.25 -81.05 110.3 -84.2 117.1 -85.6 L118.3 -85.85 Q122.85 -86.85 127.15 -88.15 L133.1 -89.75 134.25 -90 143.95 -92.85 145.95 -93.4 162.15 -98.2 Q165 -99 166.4 -100.15 167 -100.6 167.95 -100.95 L177.05 -103.25 179.85 -104.1 181 -104.35 188.95 -105 Q194.9 -105.3 199.4 -101.15 200.5 -100.15 202 -99.6 211.5 -96.45 221.05 -94.25 L227.1 -93.7 233.4 -93.4 237.2 -92.85 242.05 -92.1 Q243.1 -91.85 243.9 -91.1 245.85 -89.35 248.1 -88.8 L249.2 -88.6 Q254.5 -87.9 259.25 -88.8 L264.15 -89.1 Q269.25 -88.6 272.3 -89.8 L275.15 -90.2 Q280.15 -89.65 284.25 -90.9 285.6 -91.4 287.05 -91.55 L290.15 -91.95 Q295.3 -92.4 300.15 -93.4 304.85 -94.4 309.15 -96.15 L311.05 -96.65 319.05 -97.25 Q323.3 -97.25 325.4 -99.1 326 -99.6 327 -99.75 L332 -100.2 Q337.5 -100.6 343 -100.4 345.75 -100.3 347.25 -101.3 L349 -101.7 368.05 -100.85 370.95 -100.3 373.05 -99.85 376.95 -99.3 Q382.1 -98.75 386.2 -96.8 L388.05 -96.65 Q393.55 -97.2 398.15 -95.9 L401.05 -95.55 421.1 -94.7 426.05 -94.05 427.2 -93.8 428.5 -93.4 Q432.55 -92.4 437.1 -92.6 439.85 -92.65 441.3 -91.75 L443.1 -91.4 Q454.1 -91.4 465.1 -91.75 L467.15 -92.1 Q469.05 -92.5 470.1 -93.4 L480.2 -93.4 481.1 -24.85 -478.9 -24.85 -479.8 -93.4 -466.05 -95.55 -456.65 -90.65 -454.85 -90.1 -452.75 -89.45 Q-450.8 -88.7 -448.75 -88.45 L-446.9 -88 -445.7 -87.6 -441.8 -86.95 Q-439.05 -86.6 -438.2 -87.8 -437.8 -88.25 -436.8 -88.15 -430.45 -88 -424.65 -89.9 L-421.85 -90.65 -409.55 -93.4 -400.95 -95.7 -398.85 -96.35 -394.9 -97.45 Q-385.9 -99.6 -377.05 -103.9 -369.45 -107.6 -361.05 -108.05 -358.85 -108.25 -356.85 -107.2 L-355.05 -106.85 -344 -106.2 Q-341.25 -105.95 -338.85 -105.2 L-336 -104.55 -331 -103.55 Q-326.1 -102.45 -320.9 -102.05 -318.25 -101.9 -316.75 -101.05 -315.95 -100.6 -314.95 -100.6 -310.4 -100.6 -307.55 -97.85 -304.3 -94.7 -297.9 -94.9 L-296.9 -94.9 Q-294.45 -94.8 -292.65 -93.4 L-291.7 -92.5 Q-289.75 -90.3 -286.85 -89.9 L-284.75 -89.75 -276.8 -89.45 -264.85 -90.65 -262.8 -90.9 -252.9 -91.75 -249.8 -92.2 -243.4 -93.4 -236.95 -94.7 -234.85 -95.25 -231.95 -95.8 -229.85 -96.1 Q-224.35 -96.55 -220.7 -98.1 L-216.05 -99.85 Q-211.9 -101.25 -207 -100.85 L-201.9 -101.3 -198 -101.8 Q-188.3 -102.25 -179.05 -100.4 L-175.95 -99.85 -159 -97.25 -155.9 -96.7 -153 -96.15 -150.9 -95.6 Q-147.65 -94.25 -143.45 -93.4 L-141.95 -93.15 -139.85 -92.6 Q-137.9 -91.85 -136.15 -90.9 -133.8 -89.75 -130.85 -89.8 L-129.8 -89.8 -120.8 -88.8 Q-119.85 -88.7 -118.85 -89.35 -112.7 -92.3 -105.35 -93.4 L-103.9 -93.6 Q-101.4 -93.95 -99.05 -94.7 -94.15 -96.45 -89 -96.1 -85.75 -95.8 -84.45 -97 -83.95 -97.55 -82.95 -97.55 L-64.9 -96.7 Q-61.85 -96.35 -59 -95.35 L-52.7 -93.4 Q-46.4 -91.55 -39.85 -90.35 L-30.8 -88.55 -27.9 -88 -25.8 -87.5 Q-22.45 -86.85 -20.65 -88 -17.75 -89.75 -13.85 -89.8 L-12.85 -89.8 Q-3.45 -89.8 5.15 -91.1 L8.25 -91.85 11 -92.75 13.8 -93.4 16.2 -93.95 21 -94.8 22.1 -95.15 27.05 -95.7 34.05 -96 36.1 -95.9 47.05 -95.15 Q52.45 -94.8 55.4 -97 56.05 -97.55 57 -97.65 L61.05 -98.1 62.15 -98 65.95 -97.1 67.1 -96.55 71.2 -93.4"/>
    <path stroke="none" fill="#35303d" d="M66.95 -91.85 L71 -90.15 Q76.7 -87.9 82.8 -86.1 L92.9 -83.5 101.85 -83.1 103.9 -83.45 Q110 -85.15 116.8 -85.9 L118 -86.05 126.9 -87.3 132.85 -88.15 134 -88.3 143.75 -89.85 145.75 -90.15 162 -92.75 Q164.9 -93.2 166.3 -93.8 L167.85 -94.25 177 -95.5 179.8 -95.95 180.95 -96.1 188.9 -96.45 Q194.85 -96.6 199.3 -94.35 200.4 -93.8 201.9 -93.5 L220.85 -90.6 226.9 -90.3 233.2 -90.15 237 -89.85 241.85 -89.45 243.7 -88.9 Q245.6 -87.95 247.85 -87.65 L248.95 -87.55 Q254.25 -87.15 259 -87.65 L263.9 -87.8 272.05 -88.2 274.9 -88.4 284.05 -88.8 286.85 -89.15 289.95 -89.35 299.95 -90.15 309 -91.65 310.9 -91.9 318.9 -92.25 Q323.15 -92.25 325.3 -93.25 L326.9 -93.6 331.9 -93.85 342.9 -93.95 347.15 -94.45 348.9 -94.65 Q358.9 -95 367.95 -94.2 L370.85 -93.9 372.95 -93.65 376.85 -93.35 Q382 -93.05 386.05 -92 L387.9 -91.9 398 -91.5 400.9 -91.3 Q411.3 -91.6 420.95 -90.85 L425.85 -90.5 427 -90.35 428.3 -90.15 436.9 -89.7 441.1 -89.25 442.9 -89.05 464.9 -89.25 466.95 -89.45 Q468.85 -89.65 469.9 -90.15 L480 -90.15 480 92.15 -480 92.15 -480 -90.15 -466.2 -91.3 -456.9 -88.65 -455.1 -88.35 -453 -88 -449 -87.45 -447.15 -87.2 -445.95 -87 -442.1 -86.65 Q-439.35 -86.45 -438.45 -87.1 L-437.05 -87.3 -424.9 -88.25 -422.1 -88.65 -409.75 -90.15 -401.1 -91.4 -399 -91.75 -395.05 -92.35 Q-386 -93.5 -377.1 -95.85 -369.45 -97.85 -361.05 -98.1 L-356.85 -97.65 -355.05 -97.45 -344 -97.1 -338.9 -96.55 -336.05 -96.2 -331.05 -95.65 -321 -94.85 -316.85 -94.3 -315.05 -94.05 Q-310.5 -94.05 -307.7 -92.55 -304.45 -90.85 -298.05 -90.95 L-297.05 -90.95 Q-294.6 -90.9 -292.85 -90.15 L-291.9 -89.65 Q-290 -88.45 -287.1 -88.25 L-285 -88.15 -277.05 -88 -265.1 -88.65 -263 -88.8 -253.1 -89.25 -250 -89.5 -243.6 -90.15 -237.1 -90.85 -235 -91.15 -232.1 -91.45 -230 -91.6 -220.85 -92.7 -216.15 -93.65 -207.1 -94.2 -202 -94.45 -198.1 -94.7 -179.15 -93.95 -176.05 -93.65 -159.15 -92.25 -156.05 -91.95 -153.15 -91.65 -151.05 -91.35 -143.65 -90.15 -142.15 -90 -140.05 -89.7 -136.35 -88.8 -131.1 -88.2 -130.05 -88.2 -121.05 -87.65 -119.1 -87.95 Q-112.9 -89.55 -105.55 -90.15 L-104.1 -90.25 -99.2 -90.85 -89.15 -91.6 Q-85.9 -91.45 -84.6 -92.1 L-83.1 -92.4 Q-73.9 -92.65 -65.05 -91.95 L-59.15 -91.2 -52.9 -90.15 -40.1 -88.5 -31.05 -87.5 -28.15 -87.2 -26.05 -86.95 -20.9 -87.2 Q-18 -88.15 -14.1 -88.2 L-13.1 -88.2 4.95 -88.9 8.05 -89.3 10.8 -89.8 13.6 -90.15 16 -90.45 20.85 -90.9 21.95 -91.1 26.9 -91.4 33.9 -91.55 35.95 -91.5 46.9 -91.1 Q52.3 -90.9 55.25 -92.1 L56.85 -92.45 60.9 -92.7 62 -92.65 65.8 -92.15 66.95 -91.85"/>
    <path stroke="none" fill="#3f65ff" fill-opacity="0.0784313725490196" d="M55.25 -94.95 L56.85 -95.35 60.9 -95.6 62 -95.55 65.8 -95 66.95 -94.7 71 -93 Q76.7 -90.7 82.8 -88.85 L92.9 -86.25 101.85 -85.85 103.9 -86.2 Q110 -87.95 116.8 -88.65 L118 -88.8 126.9 -90.1 132.85 -90.95 134 -91.1 143.75 -92.7 145.75 -93 162 -95.65 Q164.9 -96.1 166.3 -96.7 L167.85 -97.2 177 -98.4 179.8 -98.85 180.95 -99.05 188.9 -99.4 Q194.85 -99.55 199.3 -97.3 200.4 -96.7 201.9 -96.4 211.35 -94.65 220.85 -93.45 L226.9 -93.15 233.2 -93 237 -92.7 241.85 -92.3 243.7 -91.75 Q245.6 -90.75 247.85 -90.45 L248.95 -90.35 Q254.25 -89.95 259 -90.45 L263.9 -90.6 272.05 -91 274.9 -91.2 284.05 -91.65 286.85 -92 289.95 -92.2 299.95 -93 309 -94.5 310.9 -94.75 318.9 -95.1 Q323.15 -95.1 325.3 -96.15 L326.9 -96.5 331.9 -96.75 342.9 -96.85 Q345.65 -96.8 347.15 -97.4 L348.9 -97.6 Q358.9 -97.95 367.95 -97.15 L370.85 -96.8 372.95 -96.55 376.85 -96.25 Q382 -95.95 386.05 -94.85 L387.9 -94.75 398 -94.35 400.9 -94.15 Q411.3 -94.45 420.95 -93.7 L425.85 -93.35 427 -93.2 428.3 -93 436.9 -92.55 441.1 -92.1 442.9 -91.9 464.9 -92.1 466.95 -92.3 Q468.85 -92.5 469.9 -93 L480 -93 480 92.15 -480 92.15 -480 -93 -466.2 -94.15 -456.9 -91.5 -455.1 -91.15 -453 -90.8 -449 -90.25 -447.15 -90 -445.95 -89.8 -442.1 -89.45 Q-439.35 -89.2 -438.45 -89.9 L-437.05 -90.1 -424.9 -91.05 -422.1 -91.5 -409.75 -93 -401.1 -94.25 -399 -94.6 -395.05 -95.25 Q-386 -96.4 -377.1 -98.75 -369.45 -100.8 -361.05 -101.1 L-356.85 -100.6 -355.05 -100.4 -344 -100.05 -338.9 -99.5 -336.05 -99.15 -331.05 -98.55 -321 -97.8 -316.85 -97.25 -315.05 -96.95 Q-310.5 -96.95 -307.7 -95.45 -304.45 -93.7 -298.05 -93.8 L-297.05 -93.8 Q-294.6 -93.75 -292.85 -93 L-291.9 -92.5 Q-290 -91.25 -287.1 -91.05 L-285 -90.95 -277.05 -90.8 -265.1 -91.5 -263 -91.65 -253.1 -92.1 -250 -92.35 -243.6 -93 -237.1 -93.7 -235 -94 -232.1 -94.3 -230 -94.45 Q-224.5 -94.7 -220.85 -95.6 L-216.15 -96.55 -207.1 -97.15 -202 -97.4 -198.1 -97.65 -179.15 -96.85 -176.05 -96.55 -159.15 -95.1 -156.05 -94.8 -153.15 -94.5 -151.05 -94.2 -143.65 -93 -142.15 -92.85 -140.05 -92.55 -136.35 -91.65 Q-134.05 -90.95 -131.1 -91 L-130.05 -91 -121.05 -90.45 -119.1 -90.75 Q-112.9 -92.4 -105.55 -93 L-104.1 -93.1 -99.2 -93.7 -89.15 -94.45 Q-85.9 -94.3 -84.6 -94.95 L-83.1 -95.3 Q-73.9 -95.55 -65.05 -94.8 L-59.15 -94.05 -52.9 -93 -40.1 -91.35 -31.05 -90.3 -28.15 -90 -26.05 -89.75 -20.9 -90 Q-18 -90.95 -14.1 -91 L-13.1 -91 4.95 -91.75 8.05 -92.15 10.8 -92.65 13.6 -93 16 -93.3 20.85 -93.75 21.95 -93.95 26.9 -94.25 33.9 -94.4 35.95 -94.35 46.9 -93.95 Q52.3 -93.75 55.25 -94.95"/>
  </g>
</svg>