<?xml version="1.0" encoding="UTF-8" standalone="no"?>
<!-- Generator: Adobe Illustrator 16.0.0, SVG Export Plug-In . SVG Version: 6.00 Build 0)  -->

<svg
   xmlns:dc="http://purl.org/dc/elements/1.1/"
   xmlns:cc="http://creativecommons.org/ns#"
   xmlns:rdf="http://www.w3.org/1999/02/22-rdf-syntax-ns#"
   xmlns:svg="http://www.w3.org/2000/svg"
   xmlns="http://www.w3.org/2000/svg"
   xmlns:xlink="http://www.w3.org/1999/xlink"
   xmlns:sodipodi="http://sodipodi.sourceforge.net/DTD/sodipodi-0.dtd"
   xmlns:inkscape="http://www.inkscape.org/namespaces/inkscape"
   version="1.1"
   id="Selected_Items"
   x="0px"
   y="0px"
   width="960px"
   height="540px"
   viewBox="0 0 960 540"
   enable-background="new 0 0 960 540"
   xml:space="preserve"
   inkscape:version="0.91 r13725"
   sodipodi:docname="ball.svg"><metadata
     id="metadata39"><rdf:RDF><cc:Work
         rdf:about=""><dc:format>image/svg+xml</dc:format><dc:type
           rdf:resource="http://purl.org/dc/dcmitype/StillImage" /></cc:Work></rdf:RDF></metadata><defs
     id="defs37" /><sodipodi:namedview
     pagecolor="#ffffff"
     bordercolor="#666666"
     borderopacity="1"
     objecttolerance="10"
     gridtolerance="10"
     guidetolerance="10"
     inkscape:pageopacity="0"
     inkscape:pageshadow="2"
     inkscape:window-width="2560"
     inkscape:window-height="1017"
     id="namedview35"
     showgrid="false"
     inkscape:zoom="1.6970563"
     inkscape:cx="732.63498"
     inkscape:cy="349.6538"
     inkscape:window-x="1912"
     inkscape:window-y="-8"
     inkscape:window-maximized="1"
     inkscape:current-layer="Selected_Items" /><symbol
     id="Symbol_1"
     viewBox="-257.316 -257.05 514.645 514.4"><path
       fill-rule="evenodd"
       clip-rule="evenodd"
       fill="#0099FF"
       fill-opacity="0.1176"
       d="M181.7,181.75   c50.2-50.2,75.3-110.8,75.3-181.8c0-70.967-25.1-131.534-75.3-181.7c-50.167-50.2-110.733-75.3-181.7-75.3   s-131.55,25.1-181.75,75.3c-50.2,50.167-75.3,110.733-75.3,181.7c0,71,25.1,131.6,75.3,181.8C-131.55,231.917-70.967,257,0,257   S131.533,231.917,181.7,181.75z"
       id="path4" /><g
       id="Layer_3_1_"><g
         id="g7"><path
           fill-rule="evenodd"
           clip-rule="evenodd"
           fill="#00FF58"
           fill-opacity="0.3765"
           d="M257,0.3     c-0.033-71.033-25.133-131.633-75.3-181.8c-50.2-50.2-110.784-75.283-181.75-75.25c-70.967-0.033-131.55,25.05-181.75,75.25     l-12.45,13.25c40.867-35.733,89.1-53.567,144.7-53.5c61.3-0.033,113.633,21.633,157,65c4.167,4.167,8.167,8.433,12,12.8     c4.3,3.767,8.55,7.75,12.75,11.95c43.333,43.333,65.017,95.683,65.05,157.05c-0.033,61.267-21.733,113.583-65.1,156.95     C88.817,225.333,36.5,247.033-24.8,247.1c-48.65-0.059-91.692-13.7-129.125-40.925c44.218,34.058,95.51,51.116,153.875,51.175     c70.966-0.067,131.533-25.184,181.7-75.35C231.85,131.8,256.967,71.233,257,0.3z"
           id="path9" /><polygon
           fill-rule="evenodd"
           clip-rule="evenodd"
           fill="#0099FF"
           points="-190.85,172.45 -193.7,169.2 -194.25,168.75    "
           id="polygon11" /></g></g><g
       id="g13"><path
         fill-rule="evenodd"
         clip-rule="evenodd"
         fill="#ECFF88"
         fill-opacity="0.6392"
         d="M184.65,166.15    c-28.8,39.233-65.233,65.9-109.3,80c53.633-15.566,97.7-46.867,132.2-93.9c41.833-57.333,57.3-121.067,46.4-191.2    C243.117-109.117,209.1-165.133,151.9-207c-57.333-41.933-121.066-57.467-191.2-46.6c-70.133,10.833-126.117,44.9-167.95,102.2    C-249.217-94.133-264.8-30.433-254,39.7c1,6.066,2.117,12.017,3.35,17.85C-255.317,3.483-241.2-45.967-208.3-90.8    c36.167-49.5,84.55-78.95,145.15-88.35l17.4-2.1l17.2-3.2c60.566-9.367,115.617,4.05,165.15,40.25C186-108,215.4-59.6,224.8,1    C234.167,61.567,220.783,116.617,184.65,166.15z"
         id="path15" /></g><g
       id="g17"><path
         fill-rule="evenodd"
         clip-rule="evenodd"
         fill="#52ABFC"
         fill-opacity="0.9098"
         d="M185.7,137.1    c29.9-39.533,44.85-85.217,44.85-137.05c0-6.167-0.2-12.216-0.6-18.15c-3.967-55.9-26.3-104.167-67-144.8    c-40.767-40.867-89.25-63.217-145.45-67.05L0-230.5c-63.633,0-117.983,22.533-163.05,67.6    c-40.633,40.633-62.917,88.917-66.85,144.85l-0.6,18.1l0.55,17.5c3.067,44.667,17.8,84.517,44.2,119.55    c6.767,9,14.333,17.667,22.7,26c45.066,44.967,99.417,67.45,163.05,67.45c63.667,0,117.983-22.483,162.95-67.45    C171.283,154.767,178.867,146.1,185.7,137.1z"
         id="path19" /></g><g
       id="g21"><path
         fill-rule="evenodd"
         clip-rule="evenodd"
         fill="#006AFF"
         fill-opacity="0.6392"
         d="M178.8,132C207.6,93.933,222,49.933,222,0    c0-5.933-0.2-11.767-0.6-17.5c-3.8-53.833-25.3-100.317-64.5-139.45c-39.267-39.367-85.967-60.883-140.1-64.55l-16.85-0.55    c-61.3,0-113.65,21.7-157.05,65.1c-39.133,39.133-60.583,85.633-64.35,139.5L-222.05,0l0.55,16.85    c2.933,43.033,17.117,81.417,42.55,115.15c6.534,8.667,13.817,17.017,21.85,25.05C-113.7,200.35-61.35,222-0.05,222    c61.333,0,113.65-21.65,156.95-64.95C164.933,149.017,172.233,140.667,178.8,132z"
         id="path23" /></g></symbol><symbol
     id="Symbol_4"
     viewBox="-222.05 -183.25 394.5 404.4"><path
       fill-rule="evenodd"
       clip-rule="evenodd"
       fill="#2E2435"
       d="M64.75,212.95c8.167-15.167,15.833-30.35,23-45.55   c11.733,6.167,23.667,12,35.8,17.5c10.5-7.2,20.567-15.45,30.2-24.75c-17.7-7.533-34.95-15.733-51.75-24.6   c38.567-91.3,58.467-182.85,59.7-274.65l10.75-0.85c-4.833-5.8-10.017-11.466-15.55-17c-9.867-9.867-20.183-18.633-30.95-26.3   l0.55,12.85c-13.533,1.733-26.917,3.733-40.15,6H86.3c-83.7,14.7-161.167,41.7-232.4,81c-11.3-15.633-22.217-31.85-32.75-48.65   c-7.9,10.433-14.717,21.316-20.45,32.65c7.466,11.5,15.133,22.717,23,33.65c-14.6,9-28.917,18.55-42.95,28.65   c-1,6.434-1.733,12.983-2.2,19.65L-222.05,0l0.15,8.4c21.467-16.733,43.65-32.1,66.55-46.1C-94.483,40.4-23.633,103.133,57.2,150.5   c-11.034,23.567-23.35,47.117-36.95,70.65C35.683,219.917,50.517,217.183,64.75,212.95z M92.35-130.05H92.3l34.45-5.25   c-1.767,84.8-20.217,169.367-55.35,253.7C-2.933,74.233-68.35,16.35-124.85-55.25C-58.15-91.417,14.25-116.35,92.35-130.05z"
       id="path26" /></symbol><symbol
     id="Symbol_9"
     viewBox="-222.05 -183.25 394.5 404.4"><use
       xlink:href="#Symbol_4"
       width="394.5"
       height="404.4"
       x="-222.05"
       y="-183.25"
       overflow="visible"
       id="use29" /></symbol><use
     xlink:href="#Symbol_1"
     width="514.64502"
     height="514.40002"
     x="-257.31601"
     y="-257.04999"
     transform="matrix(0.114,0,0,-0.114,640,195)"
     overflow="visible"
     id="use31"
     style="overflow:visible" /><use
     xlink:href="#Symbol_9"
     width="394.5"
     height="404.39999"
     x="-222.05"
     y="-183.25"
     transform="matrix(0.114,0,0,-0.114,640,195)"
     overflow="visible"
     id="use33"
     style="overflow:visible" /></svg>