<?xml version="1.0" encoding="utf-8"?>
<!-- Generator: Adobe Illustrator 16.0.0, SVG Export Plug-In . SVG Version: 6.00 Build 0)  -->
<!DOCTYPE svg PUBLIC "-//W3C//DTD SVG 1.1//EN" "http://www.w3.org/Graphics/SVG/1.1/DTD/svg11.dtd">
<svg version="1.1" id="Selected_Items" xmlns="http://www.w3.org/2000/svg" xmlns:xlink="http://www.w3.org/1999/xlink" x="0px"
	 y="0px" width="960px" height="540px" viewBox="0 0 960 540" enable-background="new 0 0 960 540" xml:space="preserve">
<symbol  id="Symbol_8" viewBox="-480.05 -181.9 959.35 181.9">
	<path fill-rule="evenodd" clip-rule="evenodd" d="M449.25-45.95h4.85v29.45h7.05v-2.9h5.45v-29.5h2.65v-43.6h10.05v-7.5H312.2v11.1
		h-16.5V-100h-462.8v11.1h-16.55V-100H-480v7.5h2.5v65.25h9.45v-24h0.25v-2.25h1.75v2.25h4.55V-73.5h4v44.75h14.45v-29H-425v18.25h1
		v1.75h-1V-28h3.95l2.15-6.5h1.4v3.75h3.95l0.65-3.75h0.9v3.75h3.45v-7H-410v-1.75h1.45v-11.95h0.75v-9.05h1.75v9.05h1.8V-49h1.2v1
		h-1.2v1.5h8.7v3.25h0.8v-3.25h2.5V-48h-1.3v-1h1.3v-2.45h10.75v-24.3h2.95v-6.75h-2.95V-83h3.2v-8.95h19.75V-86h-1.2v2.25h1.2V-68
		h2.05v5h2.5v-1.75h5.45v16.5h2.75v17.5h8.55v-11.5h3.2v-51.7h11.5V-85h-0.75v2.25h0.75V-52h10.3v-28h3.45v23.25h1.55v1h-1.55v42.25
		h8.55l3-37.75l0.2-0.75v-3.75h-1.75v-1h1.75v-7h9.5V-63h3.05v5h0.65v1.35h5V-58h4.5v-5.7h3.75v5.7h3.5v1.6h5.5V-58h18.55v-5h1.5
		v43.5h16v-13.75h1.05v-1.5h23.45v1.25h1v3.5h1.9v1.3h2.25V-30h4.4v-3.2h4.5v3.2h2.85v1.3h2.5V-30h1.65v-14.75h3.95v-14.7h0.4v-6.5
		h13v0.5h7.1v-9.95h4.4v2h18v-15.55h2.1v3.55h0.9v2.25h-0.9v2.75h0.9v2.5h-0.9v3h0.9v2.5h-0.9v4h0.9v2.7h-0.9v3.25h0.9v3.05h-0.9
		v2.75h0.9v2.5h-0.9v1.95h0.9v2h-0.9v1.95l8.15,1.5v2.05h1.25v-1.85l0.25,0.05l3.35-1.75v-1.95h-1.35v-2h1.35v-1.95h-1.35v-2.5h1.35
		v-2.75h-1.35v-3.05h1.35v-3.25h-1.35v-2.7h1.35v-4h-1.35v-2.5h1.35v-3h-1.35v-2.5h1.35v-2.75h-1.35v-2.25h1.35v-8.55h26v0.05h1.65
		v28.95h-1.65v1.75l7.9,3.8v12.75h-1.5v2.75h6v2.6h5.1v-2.6h3.5v24.5h9.85v-37.25l3.65-3.05v-6h13.5v2.2h14v17.55h4.85v29.45h7v-2.9
		h5.5v-29.5h2.65v-43.6H1.8v65.25h9.5v-24h0.25v-2.25h1.75v2.25h4.5V-73.5h4v44.75h14.5v-29h18v18.25h1v1.75h-1V-28h4l2.15-6.5h1.35
		v3.75h4l0.6-3.75h0.9v3.75h3.5v-7h-1.5v-1.75h1.5v-11.95h0.75v-9.05h1.75v9.05h1.75V-49h1.25v1h-1.25v1.5h8.75v3.25h0.75v-3.25h2.5
		V-48H85.8v-1h1.25v-2.45H97.8v-24.3h3v-6.75h-3V-83h3.25v-8.95h19.75V-86h-1.25v2.25h1.25V-68h2v5h2.5v-1.75h5.5v16.5h2.75v17.5
		h8.5v-11.5h3.25v-51.7h11.45V-85h-0.7v2.25h0.7V-52h10.3v-28h3.5v23.25h1.5v1h-1.5v42.25h8.55l2.95-37.75l0.2-0.75v-3.75h-1.7v-1
		h1.7v-7h9.5V-63h3.05v5h0.7v1.35h5V-58h4.5v-5.7h3.75v5.7h3.45v1.6h5.5V-58h18.6v-5h1.5v43.5h16v-13.75h1v-1.5h23.5v1.25h0.95v3.5
		h1.95v1.3h2.25V-30h4.35v-3.2h4.5v3.2h2.9v1.3h2.5V-30h1.6v-14.75h4v-14.7h0.4v-6.5h12.95v0.5h7.15v-9.95h4.4v2h18v-15.55h2.1v3.55
		h0.85v2.25h-0.85v2.75h0.85v2.5h-0.85v3h0.85v2.5h-0.85v4h0.85v2.7h-0.85v3.25h0.85v3.05h-0.85v2.75h0.85v2.5h-0.85v1.95h0.85v2
		h-0.85v1.95l8.15,1.5v2.05h1.25v-1.85l0.25,0.05l3.35-1.75v-1.95h-1.35v-2h1.35v-1.95h-1.35v-2.5h1.35v-2.75h-1.35v-3.05h1.35
		v-3.25h-1.35v-2.7h1.35v-4h-1.35v-2.5h1.35v-3h-1.35v-2.5h1.35v-2.75h-1.35v-2.25h1.35v-8.55h25.95v0.05h1.7v28.95h-1.7v1.75
		l7.95,3.8v12.75h-1.5v2.75h5.95v2.6h5.1v-2.6h3.55v24.5h9.85v-37.25l3.6-3.05v-6h13.55v2.2h13.95V-45.95z M408.3-16.5h9.85v-1.95
		h-9.85V-16.5z M435.3-72.9v3.5h-13.55v-3.5H435.3z M421.75-96.45h13.55v21.05h-13.55V-96.45z M328.2-88.95v11.05h-4.4v-11.05H328.2
		z M287.8-35.95V-53.5h4.5v17.55H287.8z M253.8-18.5h-16v2h2.5V0h1.5v-16.5h0.75v5h0.75v-5h10.5V-18.5z M253.8-37.25v-3h25.45v3
		H253.8z M269.45-44.25v-32.4h1.25V-78h8.55v33.75H269.45z M253.8-44.25v-50.2h8.9l3.5,0.35v12.2h-1.45v3.9h1.95v1.35h1v32.4H253.8z
		 M323.8-64.4h-7.15v0.95h7.15V-64.4z M170.55-9.75h8.25l0.2-2.75h-8.45V-9.75z M191.75-68.25v1.75h-9.5v-16.25h0.55V-85h-0.55
		v-8.95h9.5v2.2h1.8v23.5H191.75z M205-66.2v-24.2h3.75v24.2H205z M133.55-29.5v1.5h8.5v-1.5H133.55z M167.05-49.45V-51h-10.3v1.55
		H167.05z M128.3-65.75h-1V-68h1V-65.75z M130.05-68v2.25h-0.75V-68H130.05z M126.05-65.75h-0.75V-68h0.75V-65.75z M25.3-22.5v8.5
		h2.25v-5.6l8.75-2.9v-5.25H21.8v5.25H25.3z M1.8-19l5.75,1.5v4.25H9.3v-3.8l2,0.55v-5.75H1.8V-19z M13.3-55.25h-1.75V-64h1.75
		V-55.25z M1.8-23.75h9.5v-2.5H1.8V-23.75z M11.55-65.5v-16.75h1.75v16.75H11.55z M17.8-78.95h4v2.7h-4V-78.95z M71.55-69.75h1.75
		v6.5h-1.75V-69.75z M38.05-88v-6.25h10.5V-88h2.25v19.5h3.5v7.5h-18v-27H38.05z M71.55-72.25V-87h1.75v14.75H71.55z M-71.05-18.45
		v1.95h9.85v-1.95H-71.05z M-57.55-69.4v-3.5h13.5v3.5H-57.55z M-44.05-96.45v21.05h-13.5v-21.05H-44.05z M-151.15-88.95v11.05h-4.4
		v-11.05H-151.15z M-155.55-63.45v-0.95h-7.1v0.95H-155.55z M-191.5-35.95V-53.5h4.5v17.55H-191.5z M-200.05-40.25v3h-25.5v-3
		H-200.05z M-236.05-11.5v-5h10.5v-2h-16v2h2.55V0h1.5v-16.5h0.75v5H-236.05z M-225.55-44.25v-50.2h8.95l3.45,0.35v12.2h-1.4v3.9
		h1.9v1.35h1.05v32.4H-225.55z M-208.65-76.65V-78h8.6v33.75h-9.8v-32.4H-208.65z M-322.55-49.45h10.3V-51h-10.3V-49.45z
		 M-300.3-12.5h-8.5v2.75h8.25L-300.3-12.5z M-287.55-68.25v1.75h-9.5v-16.25h0.55V-85h-0.55v-8.95h9.5v2.2h1.75v23.5H-287.55z
		 M-274.35-66.2v-24.2h3.75v24.2H-274.35z M-345.8-29.5v1.5h8.55v-1.5H-345.8z M-349.25-65.75H-350V-68h0.75V-65.75z M-353.3-68
		v2.25h-0.7V-68H-353.3z M-352-68h0.95v2.25H-352V-68z M-443.05-27.75h-14.45v5.25h3.5v8.5h2.25v-5.6l8.7-2.9V-27.75z M-477.5-19
		l5.75,1.5v4.25h1.75v-3.8l1.95,0.55v-5.75h-9.45V-19z M-466.05-55.25h-1.75V-64h1.75V-55.25z M-477.5-23.75h9.45v-2.5h-9.45V-23.75
		z M-467.8-65.5v-16.75h1.75v16.75H-467.8z M-461.5-76.25v-2.7h4v2.7H-461.5z M-407.8-72.25V-87h1.75v14.75H-407.8z M-425-68.5v7.5
		h-18.05v-27h1.75v-6.25h10.5V-88h2.25v19.5H-425z M-406.05-63.25h-1.75v-6.5h1.75V-63.25z"/>
	<g id="Layer_3_1_">
		<polygon fill-rule="evenodd" clip-rule="evenodd" points="479.3,-181.9 -480.05,-181.9 -480.05,-100 479.3,-100 		"/>
	</g>
</symbol>
<use xlink:href="#Symbol_8"  width="959.35" height="181.9" x="-480.05" y="-181.9" transform="matrix(1.6752 0 0 -1.6752 577.0498 290.25)" overflow="visible"/>
</svg>
