<?xml version="1.0" encoding="utf-8"?>
<!-- Generator: Adobe Illustrator 16.0.0, SVG Export Plug-In . SVG Version: 6.00 Build 0)  -->
<!DOCTYPE svg PUBLIC "-//W3C//DTD SVG 1.1//EN" "http://www.w3.org/Graphics/SVG/1.1/DTD/svg11.dtd">
<svg version="1.1" id="Selected_Items" xmlns="http://www.w3.org/2000/svg" xmlns:xlink="http://www.w3.org/1999/xlink" x="0px"
	 y="0px" width="960px" height="540px" viewBox="0 0 960 540" enable-background="new 0 0 960 540" xml:space="preserve">
<g>
	<path fill-rule="evenodd" clip-rule="evenodd" fill="#CCFF6C" d="M651.05-28.65c3.033-1.667,6.334-2.733,9.9-3.2
		c0,3.667,0.149,7.317,0.45,10.95c0.033,0.367,0.25,0.633,0.649,0.8c1.767,0.667,2.283,2.383,1.55,5.15
		c-0.1,0.4-0.333,0.75-0.699,1.05c-1.233,1.1-2.5,2.583-3.801,4.45c-0.767,1.067-1.733,2.034-2.899,2.9c-1.8,1.367-3.017,3-3.65,4.9
		c-0.066,0.2,0.101,0.417,0.5,0.65c1.566,1.033,1.283,2.517-0.85,4.45c-0.9,0.8-1.983,1.2-3.25,1.2c-0.334,0-0.55,0.2-0.65,0.6
		c-0.467,2.167-0.616,3.85-0.45,5.05c0.067,0.567-0.267,1.15-1,1.75c-1.833,1.567-4.466,2.934-7.899,4.1
		c0.2,1.133,1.217,1.65,3.05,1.55c0.3-0.034,0.533,0.15,0.7,0.55c1.066,2.367,2.316,2.433,3.75,0.2c0.333-0.534,0.833-0.967,1.5-1.3
		c3.267-1.733,5.833-1.333,7.7,1.2l3.8,4.3c0.333,0.333,0.816,0.55,1.45,0.65c2.233,0.367,3.55,1.934,3.949,4.7
		c0.067,0.433,0.434,0.8,1.101,1.1c2.934,1.333,5.35,1.483,7.25,0.45c0.5-0.267,1.083-0.433,1.75-0.5c1.967-0.2,2.967,0.833,3,3.1
		l1-0.05c3.899-0.1,7.6-0.617,11.1-1.55l2.9-0.4h2c-0.334,0.667-0.617,1.35-0.851,2.05l-0.149,0.95h0.149
		c8.767,0.367,16.101,0.3,22-0.2c5.834-0.534,6,0.133,0.5,2c-5.533,1.833-3.5,3.066,6.101,3.7c9.6,0.6,13.05,1.033,10.35,1.3
		L709,43.55l-1.15,0.3c-2.533,0.767-4.866,1.816-7,3.15c-1.399,0.9-3.017,1.417-4.85,1.55l-7.55,1.1
		c-0.334,0.333-0.834,0.55-1.5,0.65c-2.233,0.333-4.233,0.95-6,1.85l4,0.5l-2,1.5c1.434-0.4,2.366-0.2,2.8,0.6l1,0.8
		c0.134,0.067,0.2,0.267,0.2,0.6c-0.467,0.767-1.434,1.5-2.9,2.2l-1.1,0.8c0.899,1.3,2.5,2.233,4.8,2.8
		c0.467,0.133,0.816,0.55,1.05,1.25c1.167,3.433,3.467,5.683,6.9,6.75c0.5,0.133,0.916,0.533,1.25,1.2c0.333,0.667,0.5,1.333,0.5,2
		c0,0.333-0.184,0.633-0.55,0.9c-1.7,1.2-1.367,2.034,1,2.5l1.1,0.2c1.233,0.2,2.1-0.383,2.6-1.75c0.534-1.333,1.617-2.367,3.25-3.1
		l8-3.95l1.15-0.4c3.267-0.633,6.217-0.35,8.85,0.85c0.4,0.167,0.717,0.45,0.95,0.85c1.033,1.8,2.634,3.867,4.8,6.2
		c1.567,1.667,2.834,3.65,3.801,5.95c0.366,0.833,0.449,1.733,0.25,2.7c-0.134,0.7-0.434,1.316-0.9,1.85
		c-1.2,1.233-1.9,2.617-2.1,4.15c-0.267,1.833,0,3.05,0.8,3.65c0.333,0.267,0.467,0.733,0.399,1.4c-0.166,1.5,0.517,2.533,2.051,3.1
		c0.699,0.267,1.333,0.633,1.899,1.1c2.233,1.9,5.267,2.45,9.101,1.65l6.699-1.35l-0.149,0.2l-0.95,1l-0.15,0.1h-0.05V101
		l-0.35,0.15l12.1,0.6l3.9,0.55l9,0.45l48,0.4c-4.267,1.3-8.3,2.883-12.101,4.75c-2.066,1.033-4.683,1.367-7.85,1
		c-1.3-0.167-2.45-0.017-3.45,0.45c-1.066,0.533-2.267,0.767-3.6,0.7c-4.667-0.267-8.667,0.083-12,1.05
		c-1.3,0.367-2.4,0.933-3.3,1.7c-1.733,1.5-4.301,2.15-7.7,1.95c-1.267-0.067-2.384,0.183-3.351,0.75
		c-0.767,0.433-1.633,0.583-2.6,0.45c-2.167-0.333-3.517,0.066-4.05,1.2l-8.101,2.6l-2.899,0.4c0.866,1.133,2.55,1.617,5.05,1.45
		c1.1-0.1,1.483,0.767,1.15,2.6l-0.45,1.9c-0.434,1.7-1.101,2.933-2,3.7c-1.101,0.9-0.917,1.867,0.55,2.9
		c0.467,0.3,1.033,0.433,1.7,0.4c4.133-0.2,8.133,0.117,12,0.95c1.7,0.367,2.25,1.7,1.649,4l-0.149,1.1
		c0,0.333,0.184,0.517,0.55,0.55l7.95,0.35c5.267-0.1,7.616,2.233,7.05,7l-0.75,1.35c-1.866,1.967-3.967,3.217-6.3,3.75
		c0.2,1.133,1.184,1.417,2.95,0.85l2.05-0.4l7.149-0.75c0.567-0.133,1.184-0.017,1.851,0.35c1.633,0.9,1.25,2.15-1.15,3.75
		c-1.8,1.233-3,2.983-3.6,5.25c-0.167,0.633-0.25,1.283-0.25,1.95c2.733,0.167,5.383,0.583,7.95,1.25l2.1,0.4
		c1.634,0.233,3.267,0.217,4.9-0.05c2.333-0.333,3.517,0.467,3.55,2.4c0,0.333,0.166,0.5,0.5,0.5c7.333,0.333,14.666,0.5,22,0.5
		c1.666,0,3.25,0.25,4.75,0.75c0.5,0.167,1.017,0.434,1.55,0.8l1.7,0.45l22.05-0.7l13.95-1.3c-1.3,0.8-2.667,1.483-4.101,2.05
		l-0.1,0.05l-4.75,1.3c-8,1.467-15.684,3.034-23.05,4.7L803,183.5l-14,2.05l-1.15,0.4c-3.199,1.566-5.816,3.316-7.85,5.25
		l-2.25,1.25l-1.85,0.05l-4.95-0.4c-2.7-0.067-5.017,0.633-6.95,2.1c-0.366,0.3-0.733,0.466-1.1,0.5
		c-1.801,0.133-3.117-0.383-3.95-1.55c-1.566,2.934-3.566,4.5-6,4.7c-2.066,0.133-2.634,1.533-1.7,4.2l0.2,0.6
		c-0.334,0.333-0.8,0.6-1.4,0.8c-0.399,0.133-0.767,0.367-1.1,0.7c0.733,1,1.733,1.5,3,1.5c0.333,0,0.666,0.167,1,0.5
		c-1.167,1.2-1.517,1.767-1.05,1.7c1.833-0.267,2.85,0.167,3.05,1.3v0.25c1.133,0.067,1.934,1.283,2.399,3.65l0.45,1.2
		c1.634,2.667,1.084,5.05-1.649,7.15c-2.034,1.567-4.434,2.317-7.2,2.25h-1c-3.2,0.133-6.2,0.633-9,1.5l-3,0.85
		c-3.033,0.8-5.233,0.333-6.601-1.4c-0.267-0.333-0.699-0.617-1.3-0.85c-1.633-0.6-3.017-0.983-4.149-1.15
		c-3.301-0.5-5.4,0.967-6.301,4.4l-0.25,1.2c-0.267,1.267-0.267,2.533,0,3.8l0.5,1.15c1.733,2.533,1.184,4.167-1.649,4.9
		c-0.167,0.034-0.233,0.383-0.2,1.05c0.066,2.2,1.033,3.35,2.9,3.45c0.366,0.034,0.583,0.233,0.649,0.6
		c0.434,2.934-0.399,4.983-2.5,6.15c-0.399,0.2-0.767,0.467-1.1,0.8l10.149,0.95l0.5-0.1l0.65-0.4c0.467-0.3,1.017-0.517,1.65-0.65
		l5.8-1l0.149-0.05h0.2l0.101-0.05h0.149l0.65-0.1l-0.65,0.35l-0.1,0.1l-0.101,0.05l-0.55,0.4l-1.399,0.9l-0.301,0.15
		c-1.933,0.867-3.899,1.517-5.899,1.95l9.45-1l0.649-0.15c1.767-0.367,2.867-0.067,3.3,0.9l0.051,0.8
		c-0.4,4.8-0.101,9.417,0.899,13.85c0.101,0.4,0.351,0.667,0.75,0.8c0.601,0.2,1.066,0.467,1.4,0.8l0.95,0.8
		c0.699,0.467,1.533,0.8,2.5,1l2.05,0.699l2,1c-0.334,1.334-0.351,2.584-0.05,3.75c0.033,0.167,0.35,0.351,0.949,0.551
		c0.4,0.133,0.684,0.399,0.851,0.8c0.366,1.066,1.467,1.55,3.3,1.45c0.3-0.034,0.6,0.133,0.9,0.5c1.033,1.3,1.916,2.683,2.649,4.149
		c0.267,0.533,0.4,1.134,0.4,1.8l-0.5,11l0.149,1.101c0.5,1.934,1.967,2.767,4.4,2.5c0.634-0.066,1.2,0.149,1.7,0.649
		c1.133,1.2,1.55,3.117,1.25,5.75c1.833,0.167,3.25-0.033,4.25-0.6c0.5-0.267,1.066-0.483,1.7-0.65c2.533-0.666,4.3-2.216,5.3-4.649
		c0.166-0.4,0.45-0.717,0.85-0.95c1.267-0.767,2.4-1.65,3.4-2.65c0.333-0.333,0.783-0.383,1.35-0.149l3.3,1.25l4.351-0.101
		c0.333-0.333,0.8-0.399,1.399-0.199c0.4,0.133,0.7,0.399,0.9,0.8c0.833,1.566,2.533,2.649,5.1,3.25c0.4,0.1,0.684,0.35,0.851,0.75
		c1.133,2.467,2.916,4,5.35,4.6c1.4,0.334,2.167-0.217,2.3-1.649c0.067-0.7,0.367-1.25,0.9-1.65l5.45-4.65l1.399-1.649
		c3.101-4.367,7.017-7.184,11.75-8.45l1.2-0.55c2.267-1.5,4.15-1.467,5.65,0.1l1.45,1.65c1.267,1.5,2.833,2.633,4.699,3.399
		c1.634,0.667,3.017,2.25,4.15,4.75c0.5,1.134,1.833,1.584,4,1.351c1.967-0.233,3.85-0.05,5.65,0.55
		c0.199,0.066,0.283,0.434,0.25,1.1c-0.101,2.101-0.417,4.101-0.95,6l9.1-0.449c0.267-0.034,0.483,0.149,0.65,0.55
		c1,2.233,2.733,3.116,5.2,2.649c0.933-0.166,2.033-0.616,3.3-1.35c1.467-0.866,2.8-1.917,4-3.15l4-4.05
		c1.166-1.233,1.5-2.55,1-3.95c-0.167-0.5-0.601-0.833-1.3-1l-1.75-0.649c-0.134-0.066-0.2-0.267-0.2-0.601
		c1.434-2.1,3.816-4,7.149-5.699c2.134-1.067,3.634-2.551,4.5-4.45l0.601-1.8c0.166-0.7,0.467-1.334,0.899-1.9
		c0.733-0.934,1.167-2.3,1.301-4.1c0.166-2.167-0.15-3.684-0.95-4.551l0.6-0.35l5.9-4.15c0.1-1.067-0.584-1.55-2.05-1.45
		c-3.267,0.2-4.5-1.3-3.7-4.5l0.75-2.05l-3.9,0.4l-2.1,0.6c0.133-2.333,1.033-3.883,2.7-4.65l1.5-1.2c1.8-2.3,3.483-4.267,5.05-5.9
		c0.833-0.9,1.083-1.983,0.75-3.25l-2.9,0.35c-0.333,0.1-1.399-0.467-3.2-1.7l1.101-2.65l-0.5-0.5l0.5-0.5l5.3-3.4l-0.3-0.6
		c0.533-2.467,1.533-4.467,3-6c0.333-0.333,0.5-0.667,0.5-1c0.066-1.934,1.2-2.5,3.399-1.7l1.2,0.35c0.934,0.233,1.867,0.233,2.8,0
		c0.4-0.1,0.634-0.333,0.7-0.7c0.7-4.3,3.184-6.867,7.45-7.7l1.6-0.65c0.967-0.7,2.017-0.75,3.15-0.15c1,0.567,2.4,0.784,4.2,0.65
		c0.666-0.034,1.233,0.1,1.7,0.4l1.6,1.2c1.3,1.034,2.85,1.633,4.65,1.8l1.1,0.15c2.134,0.433,3.134-0.433,3-2.6
		c-0.033-0.667-0.2-1.217-0.5-1.65c-0.7-0.967-0.833-2.067-0.4-3.3l0.601-2.1c0.166-0.633,0.1-1.033-0.2-1.2
		c-0.934-0.566-1.667-1.533-2.2-2.9c-0.233-0.567-0.2-0.933,0.101-1.1c1.166-0.7,1.833-1.933,2-3.7v-1
		c-0.634-4.6,1.216-6.65,5.55-6.15c0.666,0.067,1.217-0.066,1.649-0.4c1.367-1,2.817-1.5,4.351-1.5c0.666,0,1.033,0.083,1.1,0.25
		c0.467,1.633,1.434,2.55,2.9,2.75l1.399,0.7v-0.05l0.2-0.35c0.267-0.534,0.684-1.034,1.25-1.5c1.2-0.967,1.4-2.017,0.601-3.15
		c-0.301-0.433-0.384-0.966-0.25-1.6c0.466-2.1,1.75-3.35,3.85-3.75c3-0.6,5.65-1.7,7.95-3.3c-0.9-1.767-2.066-3.283-3.5-4.55
		c-0.334-0.3-0.566-0.767-0.7-1.4l-0.6-3.1c-1.101-5.1,0.399-8.617,4.5-10.55c0.533-0.267,1.033-0.683,1.5-1.25
		c1.433-1.867,4.033-2.65,7.8-2.35l5.95-0.2l1.149-0.25c1.767-0.367,3.066-0.15,3.9,0.65c0.333,0.333,0.666,0.5,1,0.5
		c1.967,0.067,2.767,1.25,2.399,3.55c-0.233,1.533,0.233,2.917,1.4,4.15c1.134,1.2,2.066,2.533,2.8,4
		c0.267,0.533,0.367,1.133,0.3,1.8c-0.267,2.934,1.017,4.85,3.851,5.75c0.5,0.167,0.816,0.6,0.95,1.3
		c0.533,2.533-0.267,4.65-2.4,6.35c-0.533,0.4-0.967,0.934-1.3,1.6c2.434,0.6,4.267,1.45,5.5,2.55c0.333,0.3,0.5,0.783,0.5,1.45
		c0,2.3,0.684,3.95,2.05,4.95c1.566,1.2,1.45,2.8-0.35,4.8l-1.7,1.3c-2.434,1.3-3.7,2.95-3.8,4.95c-0.034,1.233,0.566,2.233,1.8,3
		c1.666,1,3.166,2.167,4.5,3.5c0.333,0.333,0.399,0.8,0.2,1.4l-0.2,1.1c0,0.333,0.184,0.65,0.55,0.95
		c1.366,1.066,1.483,2.8,0.35,5.2c-0.267,0.534-0.433,1.133-0.5,1.8c-0.433,4.133-1.583,7.566-3.449,10.3
		c-0.301,0.467-0.417,1.033-0.351,1.7c0.066,0.8,0.684,1.483,1.851,2.05c1.366,0.667,1.466,2.033,0.3,4.1l-2.25,3.85
		c-1.134,1.9-2.3,3.417-3.5,4.55c-0.334,0.3-0.517,0.783-0.55,1.45c-0.034,1.1,0.6,1.75,1.899,1.95l-0.3,0.75l-1.3,1.55
		c-1.667,1.7-1.384,2.816,0.85,3.35l4.15-0.2c0.5-0.267,1.05-0.5,1.649-0.7c0.4-0.133,0.667-0.4,0.801-0.8
		c1.066-3.367,3.866-5.517,8.399-6.45c3.5-0.7,6-2.017,7.5-3.95c0.267-0.333,0.733-0.55,1.4-0.65l5-0.35
		c0.333,0,0.683,0.15,1.05,0.45c1.633,1.367,3.367,2.567,5.2,3.6l1.7,0.2c0.699-0.167,1.333-0.483,1.899-0.95
		c3.134-2.667,6.567-4.816,10.3-6.45c0.567-0.233,1.184-0.35,1.851-0.35c2.066-0.067,2.8,1.283,2.2,4.05l-0.2,1.95l1.1-0.95
		c2.567-2.167,5.567-3.717,9-4.65l2.851-0.1l2.05,0.25l10.95,0.45l0.3,0.95c0.933,3.8,2.917,4.95,5.95,3.45
		c0.533-0.267,1.116-0.483,1.75-0.65c2.133-0.5,3.482-1.417,4.05-2.75c0.5,2.133,1.816,3.816,3.95,5.05
		c2.633,1.5,5.616,1.417,8.949-0.25c1.067-0.533,1.617-1.467,1.65-2.8c0.033-1.934,0.717-3.2,2.05-3.8l0.8-1
		c1.2-2.566,3.033-4.383,5.5-5.45l1.101-0.75c1.233-1.367,3.233-2.4,6-3.1c2.733-0.667,4.167,0.033,4.3,2.1
		c0.1,1.7,1.333,2.333,3.7,1.9l4-0.9l2,1c1.399,1.066,2.6,2.483,3.6,4.25l0.7,1.65l0.3,1.2c0.467,2.1-0.083,3.25-1.649,3.45
		c-2.367,0.267-2.834,1.517-1.4,3.75c0.3,0.467,0.4,1.017,0.3,1.65c-0.233,1.367-0.6,2.684-1.1,3.95l-0.5,1.2
		c-0.567,1.367-0.45,2.25,0.35,2.65l0.9,0.75l1.399,0.8l1.15,0.3l4.85,0.85c1.233,0.233,2.018,1.067,2.351,2.5
		c0.5,2.033,2.1,2.8,4.8,2.3c2.2-0.399,3.917-0.283,5.15,0.351l1.75,0.649c3.399,0.9,7.083,1.15,11.05,0.75
		c2.233-0.233,3.967-0.033,5.2,0.601l1.75,0.55c1.333,0.233,1.017,0.517-0.95,0.85c0.866,1.134,2.517,1.384,4.95,0.75l2.1-0.399
		c3.2-0.4,5.417,0.333,6.65,2.2l1.1,0.85l0.2,0.6c1.2,0,0.883,0.101-0.95,0.301l-5.2,1.25c-0.6,0.267-1.167,0.517-1.7,0.75
		c-6.6,2.933-11,4.333-13.199,4.199l-1,0.101l-11.95,2.5c-3.467,0.233-6.833,0.75-10.101,1.55l-2.85,0.55l-18.1,1.4l-10.95,1.5
		l-18.05,1.5c-3.301,0.267-6.617,0.3-9.95,0.1c-2.867-0.166-5.283,0.05-7.25,0.65l-0.351,0.1l-1.399,0.55h7l-4.95,0.551l-0.2,0.05
		c-1.667,0.333-3.283,0.8-4.85,1.399c0.533,1.134,1.883,1.65,4.05,1.551l1.05,0.1c2.467,0.566,4.5,1.217,6.101,1.95l2.899,1.25
		c1.934,1.2,4.233,1.733,6.9,1.6c6.399-0.333,12.75-0.267,19.05,0.2c3.3,0.233,6.617,0.233,9.95,0l11.05-0.45l0.15,1.101H1132
		l-26.15,5.35l-11.8,1.65l-1.2,0.399c-2.3,0.8-4.933,1.2-7.899,1.2c-2.267,0.033-4.351,0.583-6.25,1.65l-1.75,0.449
		c-3.533,2.101-7.533,3.25-12,3.45c-1,0.033-1.967,0.283-2.9,0.75l-1.149,0.7c-1.334,1.033-3.233,1.15-5.7,0.35l-1.55-0.8l-1.7-0.5
		l-6.05-0.649c-2.334-0.434-4.417-0.017-6.25,1.25c-0.467,0.3-1.018,0.533-1.65,0.699l-2.1,0.351c-2.4,0.3-4.051,1.1-4.95,2.399
		c-0.467-1.8-0.3-3,0.5-3.6c0.333-0.267,0.399-0.7,0.2-1.3l-0.75-1c-2.4-1.634-4.551-3.483-6.45-5.55l-1-1.051
		c-0.334-0.333-0.834-0.5-1.5-0.5c-0.8,0.867-1.283,2.184-1.45,3.95c-0.033,0.367-0.25,0.65-0.65,0.851
		c-1.366,0.699-2,1.75-1.899,3.149l0.8,0.45l0.2,0.6c-0.867,1.134-2.5,1.351-4.9,0.65l-5.149-1.2l-5.95,0.55
		c-0.5-0.133-0.167-0.8,1-2l0.899-1.1l1.101-1.9c-1.8-0.466-3-0.3-3.601,0.5l-1.199,0.9l-0.2,0.6c-0.8,0.134-0.95-0.583-0.45-2.149
		c0.467-1.367-0.033-2.134-1.5-2.3l-1.15-0.301c-2.267-0.833-4.583-1.466-6.949-1.899c-1.301-0.233-2.584-0.217-3.851,0.05
		l-1.2,0.25c-1.633,0.5-3.1,0.116-4.399-1.15c-0.334-0.333-0.8-0.6-1.4-0.8l-1.2-0.35c-1.833-0.4-2.783,0.483-2.85,2.649
		c-0.033,2.334-0.333,4.601-0.9,6.801c-0.1,0.466-0.5,0.833-1.199,1.1l-2.95,1.1c0.7,1.634,2.283,2.884,4.75,3.75
		c0.5,0.167,0.816,0.601,0.95,1.301c0.333,1.767-0.2,2.866-1.601,3.3c-0.399,0.1-0.684,0.35-0.85,0.75
		c-0.566,1.366-0.45,2.267,0.35,2.7c0.267,0.133,0.334,0.517,0.2,1.149c-0.2,1.033-0.316,2.05-0.35,3.05
		c-0.233,5.934-3.384,9.267-9.45,10c-1.834,0.233-3.483,0.917-4.95,2.051c-0.366,0.3-0.733,0.466-1.1,0.5
		c-1.801,0.133-2.9-0.684-3.301-2.45c-0.1-0.4-0.35-0.65-0.75-0.75l-5.25,0.149c-0.433,0.334-0.966,0.551-1.6,0.65l-4.05,0.35
		c-0.667,0-1.316-0.199-1.95-0.6c-1.2-0.767-2.033-2.033-2.5-3.8c-0.366-1.4-0.884-2.767-1.55-4.101
		c-1.934-0.267-2.783,0.75-2.55,3.051c0.033,0.3-0.134,0.583-0.5,0.85c-1,0.767-1.767,2.1-2.301,4l-0.75,0.75l-2.85,0.6
		c-2.4,0.4-5.05,1.067-7.95,2c-3.1,1-5.283,2.384-6.55,4.15l0.2,0.7c0.833,2.133,0.934,4.35,0.3,6.649l-0.95,0.551l-1.2,0.399
		l-1.899,0.3c2.899,0.9,5.899,1.45,9,1.65c1.866,0.1,3.5,0.6,4.899,1.5l1.15,0.45l4.9,0.75c0.699,0.1,1.383,0.316,2.05,0.649
		c2.333,1.134,5.017,1.601,8.05,1.4c3.1-0.2,6.1-0.15,9,0.15c3.3,0.3,6.6,0.316,9.9,0.05l2.1-0.45c3.333-1.2,6.983-1.667,10.95-1.4
		l6.95,0.7c0.366,0.033,0.716,0.217,1.05,0.55c-1.066,1.834-3.066,2.684-6,2.551l-2.05,0.149c-3.334,0.601-6.483,1.367-9.45,2.3
		l-4.45,1.25c-3.033,0.467-5.684,1.134-7.95,2l-16.2,3.301L931,381.85c-3.634-0.433-5.767,0.617-6.4,3.15l-1.3,4.2
		c-0.3,1.033,0.2,1.649,1.5,1.85l-0.45,2.101c-0.233,1.267-0.166,2.316,0.2,3.149c0.267,0.533,0.4,1.134,0.4,1.8v7
		c3.366-1.533,6.55-1.3,9.55,0.7c0.3,0.2,0.5,0.634,0.6,1.3c0.2,1.2,1.117,1.983,2.75,2.351l1.2,0.5c1.7,1,3.667,1.383,5.9,1.149
		c-2.9,2.667-6.217,4.15-9.95,4.45c-0.366,0.033-0.684,0.25-0.95,0.65c-1.166,1.733-2.717,3.267-4.649,4.6l-0.9,1.05
		c-0.967,1.733-0.816,3.15,0.45,4.25c-2.967-0.3-5.134,0.2-6.5,1.5l-1.3,0.9l-2.4,1.25c-1.333,0.767-2.934,1.184-4.8,1.25
		c-2.667,0.066-5.25-0.217-7.75-0.85c-0.167-0.034-0.316-0.367-0.45-1l0.6-2.851c-1.6,0.066-2.733-0.333-3.399-1.2
		c-3.434,1.334-6.783,2.15-10.05,2.45c-0.301,0.033-0.601-0.133-0.9-0.5c-0.767-0.967-1.7-1.6-2.8-1.899
		c-0.167-0.034-0.351-0.351-0.55-0.95l-0.7-1.101l-1-1c2.833-2.066,6.217-3.949,10.149-5.649l0.15-0.05h-0.15
		c-3.533-0.134-5.983-1.534-7.35-4.2l-1.95-3c-1.066-1.267-1.233-3.267-0.5-6c0.101-0.4,0.351-0.733,0.75-1
		c0.601-0.4,1.233-0.767,1.9-1.101c-3.367-0.366-6.084-0.183-8.15,0.551l-2.8,0.699c-1.434,0.267-2.116-0.149-2.05-1.25
		c0.1-1.066-0.584-1.55-2.05-1.449c-1.767,0.166-3.15,0.517-4.15,1.05l-3.75,1.55l-2.1,0.6c-1.034,0.267-1.517-0.316-1.45-1.75
		c0-0.333-0.2-0.616-0.601-0.85c-4.399-2.667-8.699-6.05-12.899-10.15l-1-1c-3.5-3.267-6.5-3.6-9-1
		c-0.967-2.233-1.851-4.933-2.65-8.1l-0.7-2.8c-0.1-0.4-0.333-0.617-0.699-0.65l-8.95-0.45c-3.7-0.033-6.55-1.199-8.55-3.5
		c-0.301-0.333-0.733-0.616-1.301-0.85c-3.133-1.267-5.466-0.783-7,1.45c-0.433,0.6-0.783,1.25-1.05,1.95
		c-0.7,1.767-2.05,2.716-4.05,2.85c-0.7,0.066-1.434,0.35-2.2,0.85c-2.899,1.834-5.434,3.684-7.6,5.551
		c-0.667,0.6-1.5,0.699-2.5,0.3l-0.851,0.149L785.9,387c-1.367,0.5-2.267,0.333-2.7-0.5c-0.167-0.267-0.566-0.483-1.2-0.65
		c-3.7-0.966-7.717-1.383-12.05-1.25c-0.334,0-0.584-0.199-0.75-0.6c-1.367-3.066-3.2-5.233-5.5-6.5c-0.5-0.267-1.066-0.35-1.7-0.25
		c-2.167,0.366-3.55,0-4.15-1.1c-1.066-1.867-2.666-3.301-4.8-4.301l-1.05-0.8c-0.9-1.1-2.6-1.5-5.1-1.2
		c-1.5,0.167-2.733-0.466-3.7-1.899l-2.75-3.351c-0.334-0.333-0.783-0.383-1.351-0.149c-1.333,0.533-2.3,1.267-2.899,2.2
		c-0.167,0.3-0.584,0.416-1.25,0.35c-3.167-0.267-5.917,0.684-8.25,2.85c-1.2,1.134-3.117,1.717-5.75,1.75
		c-0.334,0-0.667,0.167-1,0.5c-1.033,0.967-1.8,2.267-2.3,3.9l-0.75,1.05c-1.067,0.934-2.717,1.45-4.95,1.55
		c-0.334,0-0.7,0.117-1.101,0.351l-5.899,3.149c2.666,0,5.25,0.317,7.75,0.95c0.166,0.033,0.25,0.384,0.25,1.05
		c0.2,1.134,1.2,1.467,3,1c0.1,1.101-0.584,1.601-2.05,1.5c-0.301,0-0.65,0.084-1.051,0.25l-14.85,4.4l-7.05,1.05
		c-4.4,0.167-8.8,0.884-13.2,2.15L673,395.4c-7.934,0.933-15.634,2.033-23.1,3.3l-14.95,1.35c-2.634,0.334-4.65,0.033-6.05-0.899
		c-1-0.7-1.884-1.95-2.65-3.75l-1.05-1.551l-1.5-1.5c-1.2-1.166-3.117-1.616-5.75-1.35l-9.05,1.75
		c-2.634,0.233-4.617-0.316-5.95-1.65c-0.334-0.333-0.667-0.5-1-0.5l-5,0.5c-1.3,0.034-2.367,0.233-3.2,0.601L592,392.1l-4.95-0.35
		c-0.7-0.1-1.3-0.4-1.8-0.9l-1.55-1.3c-0.467-0.3-1-0.55-1.601-0.75c-2.566-0.899-4.433-1.967-5.6-3.2c-0.333-0.333-0.8-0.6-1.4-0.8
		l-1.05-0.75c-1.267-1.533-2.95-2.35-5.05-2.45l-1.05-0.1c-1.967-0.267-3.934-0.3-5.9-0.1c-2.5,0.267-4.316,0.017-5.45-0.75
		c-0.066-0.034-0.3,0.05-0.699,0.25l-4.551,2.05c-0.233,0.1-0.483,0.416-0.75,0.95c-0.433,0.767-1.3,1.216-2.6,1.35
		c-1.467,0.1-2.434,0.967-2.9,2.6c-0.066,0.167-0.399,0.351-1,0.551c-0.399,0.133-0.649,0.399-0.75,0.8
		c-0.233,0.934-0.583,1.75-1.05,2.45c-0.2,0.3-0.616,0.366-1.25,0.199L535,390.1l-9.05-1.699c-2.233-0.467-3.95-0.367-5.15,0.3
		l-1.75,0.55c-2.166,0.366-3.633,0.083-4.399-0.85c-0.767-0.934-1.95-1.767-3.551-2.5c-0.399-0.2-0.75-0.483-1.05-0.851
		c-1.934-2.434-4.934-3.75-9-3.95c-0.366,0-0.8-0.25-1.3-0.75c-1.2-1.233-2.733-1.517-4.6-0.85l-3.301,1.15l-2.85,0.5
		c-2.4,0.033-4.283-0.817-5.65-2.551c-0.233-0.333-0.683-0.5-1.35-0.5l-9.95-0.449l-1.15-0.351c-1.8-1-3.233-1.899-4.3-2.7
		c-0.4-0.333-0.917-0.55-1.55-0.649l-15.05-3.8l-11.05-1.601l-9.5,0.25l-0.7-0.25l-0.5-0.149l-4.45-1.9l-1.8-0.4h-3
		c1.133-1.133,1.433-1.649,0.9-1.55l-1.9-0.45c0.667-1.033,1.967-1.816,3.9-2.35c0.4-0.1,0.6-0.316,0.6-0.65v-1l-0.1-0.699
		c-0.267-0.534-0.75-0.884-1.45-1.051l-4-0.899c-1.9-0.3-3.367-0.917-4.4-1.851c-0.367-0.333-0.883-0.517-1.55-0.55l-10.9,0.601
		L398,356.1c-1.267-0.333-0.933-0.649,1-0.949l1-0.051c-0.967-2.066-2.983-2.883-6.05-2.449L388,353.1c-2.233,0-3.067-0.166-2.5-0.5
		l-7.5-0.5c0.867-1.133,2.55-1.583,5.05-1.35c3.133,0.3,5.034-0.1,5.7-1.2c0.167-0.3-0.567-0.566-2.2-0.8L363.5,347
		c-12.033-0.767-14.533-1.066-7.5-0.9c-0.667-0.1,0.433-0.3,3.3-0.6l22.7-2.4c-0.5-0.133-0.1-0.716,1.2-1.75l0.8-0.25l-7.9-0.949
		L372,340.1c0.533-1.133,1.883-1.633,4.05-1.5c0.3,0,0.65-0.133,1.05-0.399c2-1.334,4.633-2.033,7.9-2.101
		c0.433-1.399,0.333-2.35-0.3-2.85c-0.133-0.1,0.017-0.45,0.45-1.05c0.633-0.867,1.283-2.217,1.95-4.05
		c0.267-0.7,0.65-1.301,1.15-1.801l1.3-1.55c0.3-0.467,0.45-1.033,0.45-1.7c0-2.666,1.683-3.85,5.05-3.55l2,0.101
		c1.767,0.166,3.15,0.5,4.15,1c1.2,0.633,2.466,0.949,3.8,0.949l1.05-0.399c2.4-1.634,4.383-3.667,5.95-6.101
		c1.333-0.666,2.233-1.699,2.7-3.1l0.6-1.8l0.2-1.101v-1c0-0.333,0.167-0.5,0.5-0.5c1.967-0.033,2.817-1.216,2.55-3.55
		c-0.033-0.3,0.15-0.566,0.55-0.8c1.267-0.767,2.35-1.717,3.25-2.85l1.4-1.551l1.55-1.149c0.133-0.066,0.35,0.083,0.65,0.45
		c0.9,1.1,2.583,1.466,5.05,1.1l1.85-0.5c1.367-0.5,2.2-1.35,2.5-2.55c0.1-0.4,0.35-0.7,0.75-0.9c1.267-0.7,2.316-2.066,3.15-4.1
		c0.167-0.4,0.45-0.684,0.85-0.851c1.267-0.5,2.566-0.75,3.9-0.75l10,0.801c2.633,0.199,3.833,1.416,3.6,3.649
		c-0.133,1.467,0,2.316,0.4,2.55l-1.05,0.351c-1.934,0.6-3.95,1.616-6.05,3.05l-1.95,1.05c-1.833,0.767-2.483,1.45-1.95,2.05
		c2.233,0,2.933,0.117,2.1,0.351c-0.4,0.1-0.767,0.316-1.1,0.649l-1,1c0.533,1.134,1.833,1.801,3.9,2l0.1,2
		c1.2-0.633,2.5-0.8,3.9-0.5l0.3,0.15c2.433,1.4,5,1.5,7.7,0.3l0.05-0.05c2.2-1.033,4.55-1.667,7.05-1.9
		c0.667,0.334-0.3,0.784-2.9,1.351l-4,1.1L452,314.1c0.867,1.134,2.55,1.567,5.05,1.301l1-0.101l-0.25,1.05
		c-0.156,0.188-0.348,0.271-0.575,0.25l0.825,0.101c3.3,0.267,6.6,0.267,9.9,0c1.466-0.134,2.417,0.2,2.85,1
		c0.133,0.267,0.517,0.45,1.15,0.55l4.05,0.35l1.1-0.35l11.8-6.35l0.75-0.9c0.399-1.733,0.316-3.1-0.25-4.1
		c-0.267-0.534-0.317-1.117-0.15-1.75c0.167-0.7,0.417-1.384,0.75-2.051l-7,0.801c-2.066,0.199-2.517-0.967-1.35-3.5
		c0.233-0.534,0.649-1.017,1.25-1.45c0.733-0.566,1.3-1.25,1.699-2.05c0.267-0.534,0.4-1.134,0.4-1.801
		c-0.033-2.1,0.866-3.883,2.7-5.35l1.3-1.65c0.1-1.066-0.583-1.55-2.05-1.449c-1.101,0.1-1.55-0.767-1.351-2.601
		c0.301-3.2,1.75-4.983,4.351-5.35l1.149-0.45c2.367-1.333,4.4-2.983,6.101-4.95c1.267-1.5,2.833-2.649,4.7-3.45l1.1-0.75
		c1.366,2.5,2.6,5.2,3.7,8.1l0.3,1.899l0.65-0.399l0.1-0.05c2.167-1.334,4.517-3.25,7.05-5.75c1.434-1.4,1.5-2.667,0.2-3.8
		c-1.667-1.434-2.25-3.75-1.75-6.95c0.3-2.167-0.116-3.517-1.25-4.05l-2.05-0.7l-4.05-0.9c-1.7-0.367-2.417-1.517-2.15-3.45
		c0.3-2.433-0.967-3.483-3.8-3.15l-0.8,0.1H499.1l-0.1-0.9c-0.667-0.333,0.316-0.733,2.95-1.2l3.05-0.75
		c1.333-0.367,2.5-0.933,3.5-1.7c0.333-0.233,0.4-0.65,0.2-1.25l-0.2-1.1l0.05-1.05c0.167-1.433,0.967-2.2,2.4-2.3
		c1.366-0.1,2.233-0.7,2.6-1.8c0.3-0.9,0.65-1.75,1.05-2.55c0.267-0.533,0.75-0.95,1.45-1.25c1.934-0.8,3.45-2.533,4.55-5.2
		c0.567-1.333,1.634-2.4,3.2-3.2c0.8-0.433,1.467-1.033,2-1.8c2.233-3.233,5.967-4.85,11.2-4.85l3.15-0.25
		c0.566-0.133,1.033,0.066,1.399,0.6l0.9,1.4c0.366,0.533,0.899,0.867,1.6,1l2.95,0.3c-0.8,1.434-1.267,3.067-1.4,4.9
		c-0.066,0.7-0.35,1.3-0.85,1.8l-1.5,1.5c-0.5,0.5-0.917,1.083-1.25,1.75c2.033,0.4,2.9,1.367,2.6,2.9l-0.1,0.6
		c0.333,0.333,0.783,0.617,1.35,0.85l3.301,1.35c1.233,0.534,2.517,0.8,3.85,0.8l1.1-0.1c2.7-0.6,5.4-1.6,8.101-3
		c0.533-0.267,1.1-0.5,1.7-0.7c0.399-0.133,0.716-0.4,0.949-0.8c1.134-1.933,2.351-3.433,3.65-4.5c0.333-0.267,0.55-0.733,0.65-1.4
		c0.466-2.934,1.35-5.3,2.649-7.1c1.8-2.467,1.584-4.2-0.649-5.2c-2.067-0.933-3.584-2.05-4.551-3.35l-1.149-1.6
		c-0.3-0.467-0.434-1.033-0.4-1.7c0.134-2.833,0.95-5.283,2.45-7.35c0.333-0.433,0.467-0.983,0.4-1.65
		c-0.233-1.7-0.717-3.133-1.45-4.3c-0.3-0.467-0.4-1.033-0.3-1.7c0.366-2.8-0.684-4.233-3.15-4.3c-1.967-0.067-3.3-0.633-4-1.7
		c1.8-1.533,1.967-2.7,0.5-3.5l0.6-0.3c1.934-0.967,4.267-1.934,7-2.9l6-1.65v0.05l0.2,0.1l0.601,0.4
		c1.733,0.9,1.916,2.583,0.55,5.05c-0.3,0.5-0.5,1.083-0.601,1.75c-0.366,2.8,1.017,3.8,4.15,3l4-1c-0.366,3.467,1.283,4.7,4.95,3.7
		c1.233-0.333,2.066-0.8,2.5-1.4c0.366-0.534,0.883-0.95,1.55-1.25c2.833-1.267,5.233-2.867,7.2-4.8l1.3-1.55
		c0.3-0.467,0.434-1.033,0.4-1.7l-0.4-6.05c-0.033-0.3,0.134-0.583,0.5-0.85c2.167-1.633,3.316-3.667,3.45-6.1
		c0-0.333,0.05-0.7,0.149-1.1c0.367-1.733-0.149-2.8-1.55-3.2c-0.399-0.133-0.649-0.4-0.75-0.8c-0.6-2.7-0.2-5.1,1.2-7.2
		c0.3-0.467,0.283-0.867-0.05-1.2l-0.15-0.15l1.5-0.7c1.101-0.5,1.617-1.383,1.55-2.65c-0.1-1.833,0.733-2.95,2.5-3.35
		c0.4-0.1,0.601-0.316,0.601-0.65l-0.15-2.05c-0.1-0.767,0.483-1.283,1.75-1.55c1.4-0.3,2.65-0.833,3.75-1.6
		c0.767-0.534,1.55-0.934,2.351-1.2c1.699-0.567,2.483-1.75,2.35-3.55c-0.033-0.367-0.017-0.6,0.05-0.7
		c1.066-1.7,2.867-3.15,5.4-4.35l-3.101-1.7l-0.899-0.3c0.166-0.833,0.166-2.167,0-4c-1.867,0.133-3.566-0.1-5.101-0.7
		c-1.833-0.733-3.8-1.133-5.899-1.2l-6.95-1.1c0.3-0.333,0.634-0.517,1-0.55l1.8-0.25c2.533-0.5,4.917-1.25,7.15-2.25
		c0.666-0.3,1.35-0.517,2.05-0.65l2.85-0.65c3.967-0.966,7-2.517,9.101-4.65l-0.75-0.25c-0.634-0.6-1.717-1.183-3.25-1.75l1.899-1.1
		c0.4-0.267,0.801-0.45,1.2-0.55c2.167-0.533,3.467-1.65,3.9-3.35c-0.667-0.333-1.351-0.55-2.05-0.65
		c-3.267-0.433-5.917-1.217-7.95-2.35l1.95-0.25c1.233-0.367,1.75-0.917,1.55-1.65c-0.533-2.167-2.05-3.45-4.55-3.85l-2.75-0.75
		c-2.5-0.9-5-1.05-7.5-0.45l-0.4-2.15c-0.7-2.233-0.233-3.733,1.4-4.5l3.5-2.05c3.166-2.167,5.816-4.233,7.949-6.2
		c2.767-2.6,6.351-5.05,10.75-7.35c2.334-1.233,4.4-2.034,6.2-2.4l3.8-0.8l2.101-0.6c-0.033,1.467-0.3,2.817-0.8,4.05l-0.2,0.95
		l10.95-0.45l2.05-0.55v4l0.55-0.3l0.05-0.05c3.667-2.367,5.267-6.933,4.8-13.7c-0.133-1.767-0.783-3-1.949-3.7
		c-0.301-0.167-0.351-0.55-0.15-1.15l0.1-0.8c-0.267-0.534-0.75-0.833-1.449-0.9c-1.767-0.133-3.15-0.483-4.15-1.05
		c-1.3-0.8-2.116-1.95-2.45-3.45l-0.649-2.85c-0.301-1.534-1.534-2.217-3.7-2.05c-4.334,0.333-7.25-0.867-8.75-3.6
		c-0.167-0.267-0.584-0.35-1.25-0.25l-5,0.35c-0.334,0-0.684-0.133-1.05-0.4c-1.601-1.1-3.917-1.467-6.95-1.1
		c-2.634,0.3-4.7,0.1-6.2-0.6c-0.533-0.267-1.134-0.417-1.8-0.45l-15,1.05c-2.601,0-3.767-0.15-3.5-0.45
		c0.333-0.367,0.333-0.717,0-1.05c-0.334-0.333-0.834-0.483-1.5-0.45L573,42.15h-25l0.05-1.9c4.334,0.2,8.367-0.35,12.101-1.65
		c0.899-0.3,1.85-0.483,2.85-0.55c2-0.133,3.25-0.617,3.75-1.45c0.167-0.3,0.583-0.5,1.25-0.6l5-0.45c3.667-0.167,7-0.966,10-2.4
		c0.233-2,1.583-3.633,4.05-4.9c2.334-1.167,3.634-2.867,3.9-5.1c0.133-1.066-0.467-1.717-1.8-1.95c-0.101-0.034-0.067-0.367,0.1-1
		c0.167-0.7,0.5-1.3,1-1.8s1.066-0.933,1.7-1.3c1.899-1.133,3.333-2.383,4.3-3.75c1.566-2.167-2.6-3.217-12.5-3.15
		c-9.9,0.066-14.267-0.5-13.1-1.7c1.166-1.233,5.517-2.183,13.05-2.85l12.25-1.5c4.533-2.167,8.3-4.45,11.3-6.85
		c0.134-0.1-0.05-0.417-0.55-0.95c-1.167-1.233-1.884-2.617-2.15-4.15l-0.1-1.05c0-0.333,0.166-0.667,0.5-1
		c1.866-1.767,3.283-3.733,4.25-5.9c0.7-1.667,1.783-3.2,3.25-4.6c0.333-0.333,0.55-0.816,0.649-1.45
		c0.367-2.167,0.067-3.633-0.899-4.4c-1.066-0.867-1.367-2.383-0.9-4.55c0.101-0.4,0.351-0.667,0.75-0.8
		c1.066-0.4,1.7-1.167,1.9-2.3c-2.7-1.033-5.7-1.533-9-1.5l-1.05-0.05c-1.767-0.167-3.084-0.65-3.95-1.45l-1.101-0.75
		c-1.767-0.667-2.733-2.4-2.899-5.2l-0.5-0.55c-0.334-0.333-0.5-0.833-0.5-1.5c2.434-0.5,4.533-1.35,6.3-2.55l1.7-0.4
		c5.566,0.2,9.899-0.817,13-3.05c1-0.733,2.366-1.267,4.1-1.6l3.8-0.8c0.4-0.067,0.667-0.3,0.801-0.7l0.6-1.2
		c0.434,0.367,1.35,0.683,2.75,0.95l3.85,0.75c0.4,0.067,0.767,0.267,1.101,0.6c0.133,1.467-0.45,2.4-1.75,2.8
		c-0.5,0.133-1,0.45-1.5,0.95l-1.3,1.55c-0.301,0.466-0.301,0.933,0,1.4c0.366,0.533,0.85,1.017,1.449,1.45
		c2.834,1.934,6.2,3.883,10.101,5.85c-0.101,2.133-1.4,3.567-3.9,4.3c-0.399,0.133-0.633,0.383-0.7,0.75
		c-0.233,1.433-0.166,2.783,0.2,4.05l0.351,2.9c-0.167,2.934,1.517,4.317,5.05,4.15c4.333-0.2,7.383-1.883,9.149-5.05L651.05-28.65z
		 M897.25,416.4l3.7-0.301h-2L897.25,416.4z M726.95,252.6l-0.7,0.1h-0.35c-2.2,0.267-2.851,0.4-1.95,0.4L726.95,252.6z
		 M754.95,209.4c-0.566-0.066-1.233,0.184-2,0.75v0.5C754.283,210.75,754.95,210.333,754.95,209.4z"/>
</g>
</svg>
