<?xml version="1.0" encoding="utf-8"?>
<!-- Generator: Adobe Illustrator 16.0.0, SVG Export Plug-In . SVG Version: 6.00 Build 0)  -->
<!DOCTYPE svg PUBLIC "-//W3C//DTD SVG 1.1//EN" "http://www.w3.org/Graphics/SVG/1.1/DTD/svg11.dtd">
<svg version="1.1" id="Selected_Items" xmlns="http://www.w3.org/2000/svg" xmlns:xlink="http://www.w3.org/1999/xlink" x="0px"
	 y="0px" width="960px" height="540px" viewBox="0 0 960 540" enable-background="new 0 0 960 540" xml:space="preserve">
<symbol  id="Symbol_5" viewBox="-164 -412.45 919.95 319.887">
	<path fill-rule="evenodd" clip-rule="evenodd" fill="#E8FF8A" d="M697-326.75c2.566-0.8,4.883-2.2,6.95-4.2
		c-0.667-1.267-1.983-2.633-3.95-4.1l-1.05-0.9c-0.067-1.1,0.6-1.617,2-1.55l2.05-0.1l4.9-0.75c0.367-0.066,0.684-0.3,0.95-0.7
		c1.5-2.267,1.533-4.233,0.1-5.9l7-0.75c2.833-0.2,3.45-1.583,1.85-4.15l-0.5-1.2c-0.3-1.034,0.267-1.517,1.7-1.45l1.05-0.25
		c2.1-1,4.717-1.3,7.85-0.9c2.167,0.267,3.684,0,4.55-0.8l0.55,0.1c1.066,0.167,1.7,0.917,1.9,2.25l1.05,0.2
		c3.267,0.066,5.466-1.017,6.6-3.25l0.5-1.8c0.134-1.133,1.117-1.533,2.95-1.2l1.95,0.2c-1.4-2.3-1.417-3.983-0.05-5.05
		c0.367-0.3,0.583-0.65,0.65-1.05c0.1-0.4,2.567-0.8,7.4-1.2v-2.3l-147.25,0.3l-11.5-1.3c-2.233-0.867-4.65-1.333-7.25-1.4
		c-0.667,0-1.2-0.167-1.6-0.5c-1.633-1.3-4.1-2.05-7.4-2.25l-6.95-0.65c-6.066-0.767-12.4-0.833-19-0.2l-2.1,0.35
		c-0.633,0.167-1.033,0.4-1.2,0.7c-1.134,2.033-3.367,2.75-6.7,2.15h-0.8c-1.267,0.5-2.983,0.517-5.15,0.05l-1.15-0.2l-13.95-1.3
		l-2.85,0.3c-1.567,0.5-3.267,0.85-5.1,1.05c-6.1,0.667-12.433,0.7-19,0.1l-23.05-2.45c-0.667-0.1-1.083,0-1.25,0.3
		c-0.7,1.167-1.934,1.567-3.7,1.2l-15.05,0.1l-7-0.65c-0.667-0.066-1.267-0.233-1.8-0.5c-1.5-0.7-3.566-0.9-6.2-0.6
		c1.6,1,1.65,2.067,0.15,3.2c-0.934,0.667-2.3,1.067-4.1,1.2c-0.7,0.066-1.233,0.367-1.6,0.9l-0.35,0.45
		c-1.3,1.5-3.35,1.983-6.15,1.45l-1.65,0.25c-1.533,1.033-2.917,2.267-4.15,3.7c-0.767,0.9-1.45,1.867-2.05,2.9
		c-0.6,1.1-1.917,1.283-3.95,0.55l-12-4.95c-1.633-0.667-2.95-1.317-3.95-1.95c-0.967-0.633-2.35-1.017-4.15-1.15l-1.15-0.25
		l-1.4-0.5c-3.367-1.267-6.167-2.583-8.4-3.95l-1.1-0.35c-2.133,0-4.15,0.467-6.05,1.4c-3.4,1.633-6.733,1.367-10-0.8
		c-0.633-0.4-1.283-0.6-1.95-0.6c-6.767-0.1-12.733-1.033-17.9-2.8l-1.1-0.2c-3.967,0.067-7.617-0.483-10.95-1.65l-8-2.1l-9.05-0.6
		c-6.233,0.133-12.217-0.35-17.95-1.45l-2.1-0.3l-6.95-0.4c-0.667,0-1.15,0.167-1.45,0.5c-1.2,1.267-2.4,2.034-3.6,2.3l-1.65-0.25
		c-3.733-2.367-7.8-4.017-12.2-4.95l-4.05-0.9c-2.767-0.533-4.133,0.233-4.1,2.3c0.033,1.667-0.083,3.317-0.35,4.95
		c-0.066,0.367-0.283,0.567-0.65,0.6c-4.367,0.6-8.316,1.816-11.85,3.65l-1.2,0.65c-2.867,1.867-6.15,3.533-9.85,5l-3.95,1.45
		c-4.133,1.4-8.517,2.517-13.15,3.35l-3.85,0.8c-2.767,0.667-6.133,1.017-10.1,1.05c-3.034,0.034-5.35-0.5-6.95-1.6l-1.15-0.65
		c-2-0.8-3.15-2.267-3.45-4.4c-0.167-0.833-0.183-1.767-0.05-2.8c0.3-2.6-0.167-4.283-1.4-5.05c-1.034,1.4-2.667,1.367-4.9-0.1
		c-1.333-0.867-3.066-1.75-5.2-2.65l-9.85-2.65l-1.15-0.4c-1.934-1-3.95-2.333-6.05-4c-0.566-0.467-1.2-0.767-1.9-0.9l-9.95-1.15
		l-11.9-0.6l-1.1-0.15c-1.5-0.267-2.883-1-4.15-2.2c-0.533-0.467-1.133-0.85-1.8-1.15c-1.667-0.7-3.3-1.45-4.9-2.25l-1.2-0.4
		c-2.566-0.567-4.517-0.35-5.85,0.65c-0.367,0.3-0.75,0.5-1.15,0.6l-2.8,0.75c-4.1,1.233-7.45,0.75-10.05-1.45
		c-0.367-0.3-0.716-0.45-1.05-0.45c-1.967,0.067-3.7-0.3-5.2-1.1c-0.533-0.267-0.95-0.567-1.25-0.9
		c-3.167-3.367-7.667-5.633-13.5-6.8L85-403.9c-3.433-0.7-6.1-2.05-8-4.05h2c-1.033-0.133-1.783-0.767-2.25-1.9
		c-0.167-0.4-0.45-0.633-0.85-0.7c-2.133-0.467-2.933-1.1-2.4-1.9c-0.967,0.733-2.483,0.967-4.55,0.7
		c-3.833-0.567-6.733,0.117-8.7,2.05c-0.5,0.5-0.967,0.784-1.4,0.85L48-407.95l-1.7,0.45c-0.533,0.367-0.716,0.8-0.55,1.3
		c1.333,3.8-0.25,5.55-4.75,5.25l1.7,6.1c1,3.067,0.117,4.3-2.65,3.7c-2.3-0.5-3.483,0.233-3.55,2.2c0,0.333-0.117,0.467-0.35,0.4
		l-6.15-0.4l0.9,1.1l0.85,1.95c0.167,0.633,0.083,1.15-0.25,1.55c-1.033,1.233-2.867,1.867-5.5,1.9l-5.95,0.8
		c-0.7,0.133-1.233,0.467-1.6,1c-0.3,0.467-0.284,0.833,0.05,1.1c0.867,0.667,1.217,1.85,1.05,3.55
		c-0.333,3.067-2.517,4.433-6.55,4.1l-1.85,0.3c-2.533,1.033-4.05,2.567-4.55,4.6c-0.267,0.9-0.317,1.9-0.15,3
		c0.333,2.3-0.483,3.483-2.45,3.55l-2.05,0.05c-4.633,0.3-9.284,0.4-13.95,0.3c-3.4-0.1-6.7-0.5-9.9-1.2
		c-2.233-0.467-4.567-1.4-7-2.8l-1.2-0.55c-1.967-0.6-3.8-1.383-5.5-2.35l-1.45-0.85l-1.7-1.35c-1.2-1.133-2.95-1.716-5.25-1.75
		c-0.667,0-1.25,0.15-1.75,0.45c-1.733,0.967-3.167,0.817-4.3-0.45l-1.05-0.7l-1.15,0.15c-0.7,1.167-1.95,1.8-3.75,1.9l-5,0.5
		c-0.667,0.1-1.233,0-1.7-0.3c-3.233-2.233-6.633-2.367-10.2-0.4c-0.4,0.233-0.767,0.35-1.1,0.35l-1.1-0.2l-1.65-0.75l-6.3-4.5
		c-0.633-0.367-1.3-0.617-2-0.75c-3.067-0.6-5.684-1.434-7.85-2.5l-1.2-0.45c-2.9-0.733-4.917-0.217-6.05,1.55
		c-0.233,0.4-0.55,0.667-0.95,0.8c-3.066,1.033-5.6,2.567-7.6,4.6c-1.667,1.667-4.433,2.316-8.3,1.95
		c-1.233-0.1-2.35,0.367-3.35,1.4l-1.45,1.35l-42.2,0.5c16.433,1.8,24.883,3.6,25.35,5.4l0.65,1.1l2.2,1.6
		c0.533,0.267,1.133,0.434,1.8,0.5c2.633,0.233,5.017,1.117,7.15,2.65c1.1,0.8,2.367,1.317,3.8,1.55c0.7,0.133,1.35,0.417,1.95,0.85
		c1.8,1.3,2.5,3.25,2.1,5.85c1.467-1.267,3.517-2.5,6.15-3.7c1.167-0.533,2.2-0.383,3.1,0.45l1.7,1.35
		c3.3,2.067,6.017,4.333,8.15,6.8c0.8,0.867,2.083,1.133,3.85,0.8l2.05-0.25c6-0.3,12-0.45,18-0.45c-1.6,1-1.767,2.167-0.5,3.5
		c0.333,0.333,0.583,0.817,0.75,1.45c0.167,0.7,0.467,1.35,0.9,1.95c1.4,2,2.6,4.066,3.6,6.2c0.6,1.333,0.483,2.217-0.35,2.65
		c-0.267,0.167-0.383,0.583-0.35,1.25c0.133,3.5,1.117,6.15,2.95,7.95c0.333,0.333,0.517,0.683,0.55,1.05
		c0.4,3.434,1.934,5.6,4.6,6.5L-59-308c2.433,1.3,5.1,2.017,8,2.15c4.6,0.233,8.9-0.25,12.9-1.45c0.4-0.133,0.633-0.383,0.7-0.75
		c0.633-3.934,1.1-7.9,1.4-11.9c2.033,0.333,4.083,1.233,6.15,2.7c1.467,1.033,2.733,1.817,3.8,2.35c4.133,2.066,7.8,3.733,11,5
		c1.167,0.467,1.7,1.783,1.6,3.95l0.25,2c0.9,3.467,1.434,7.117,1.6,10.95c0.067,1.333,0.517,2.417,1.35,3.25L-8-287l-10.9,3.3
		c-2.767,1-4.133,2.9-4.1,5.7c0,0.667,0.183,1.4,0.55,2.2c0.867,1.9,1.75,3.383,2.65,4.45c0.2,0.233,0.05,0.6-0.45,1.1
		c-0.833,0.833-1.35,1.933-1.55,3.3c-0.5,3.333-0.333,6.017,0.5,8.05c1.267,3.066,2.433,5.517,3.5,7.35c0.2,0.367,0.233,0.9,0.1,1.6
		c-0.433,2.667,0.217,4.9,1.95,6.7l1.5,1.5c2.8,2.9,6.267,5.4,10.4,7.5c3.767,1.933,8.05,2.633,12.85,2.1
		c3.667-0.367,7.017-0.05,10.05,0.95c0.767,0.267,1.55,0.9,2.35,1.9c0.4,0.533,0.917,0.983,1.55,1.35c2.1,1.233,4.466,2.15,7.1,2.75
		c1.067,0.2,1.55-0.417,1.45-1.85c0-0.3,0.183-0.483,0.55-0.55c3.6-0.633,6.917-0.433,9.95,0.6c4.167,1.433,7.5,3.433,10,6
		l0.55,1.05l0.7,6.95c0.267,3.433,1.233,6.4,2.9,8.9c1.9,2.833,4.184,4.867,6.85,6.1c-0.867,1.133-2.55,1.633-5.05,1.5L47-196
		c0.667,3.267,2.667,5.617,6,7.05c0.667,0.3,1.333,0.617,2,0.95l-3,3c-0.333,0.333-0.517,0.683-0.55,1.05
		c-0.1,1.867-1.233,2.967-3.4,3.3L46-180.5c-1.933,0.033-2.583,1.2-1.95,3.5c0.534,1.9,2.167,3.033,4.9,3.4
		c0.367,0.067,0.733,0.25,1.1,0.55c3.434,2.767,8.417,4,14.95,3.7c5.167-0.267,8.85,0.833,11.05,3.3
		c1.534,1.667,3.117,3.117,4.75,4.35c2.034,1.534,4.434,2.1,7.2,1.7c-2.9,2.067-5.567,5.067-8,9c3.433,0.567,6.883,2.083,10.35,4.55
		c0.433,0.3,0.933,0.567,1.5,0.8c3.066,1.333,4.883,3.533,5.45,6.6l1.05,7c0.1,0.7,0.333,1.383,0.7,2.05
		c1.467,2.733,2.967,5.183,4.5,7.35c0.3,0.433,0.483,0.983,0.55,1.65c0.066,0.8,0.667,1.517,1.8,2.15L107-118
		c3.133,3,6.783,4.783,10.95,5.35l15,1.95c2.533,0.567,5.216,1.8,8.05,3.7c5.933,4,12.633,7.9,20.1,11.7l4,1.95l1.8,0.55
		c4.3,0.833,7.083-0.534,8.35-4.1l0.5-1.2c2.367-4.867,5.467-10.15,9.3-15.85l1-0.65c1.233-0.3,2.25-0.7,3.05-1.2
		c1.9-1.233,4.2-1.7,6.9-1.4l3.95,0.2c-0.1-1.767-1.1-2.6-3-2.5v-0.5h12l-4.1-1.8l-0.75-0.2c5.167,0.133,10.15,0.65,14.95,1.55
		l4.9,0.7c2.4,0.2,3.267-0.317,2.6-1.55l0.45-0.3l11.95-1.55l3.95-1l2.05-0.85c-0.1-2.133-1.4-3.6-3.9-4.4l-5.15-1.4l-1.95-0.2
		c0.2-1.467,1.117-2.433,2.75-2.9c0.167-0.067,0.167-0.417,0-1.05c-0.167-0.7-0.5-1.3-1-1.8l-1.8-1.2
		c-2.066-0.867-4.333-1.983-6.8-3.35c-1.833-1.034-2.95-2.05-3.35-3.05c-0.2-0.433-0.167-1,0.1-1.7c0.6-1.434,1-3.083,1.2-4.95
		c0.267-2.333-0.767-3.5-3.1-3.5l-2.05-0.25c-3.033-0.667-5.983-1.533-8.85-2.6c-1.667-0.6-2.767-1.45-3.3-2.55l-0.8-1.1l-1-1
		c1.7-0.167,3.383-0.8,5.05-1.9l1.5-1.4c0.3-0.467,0.4-1.034,0.3-1.7c-0.367-2.8,1.034-3.883,4.2-3.25
		c1.433,0.3,1.833-0.15,1.2-1.35c-0.167-0.267-0.583-0.4-1.25-0.4c4-1.3,8-1.3,12,0c1.3-0.667,1.65-1.8,1.05-3.4l3.9-0.95
		c1.467-0.333,2.483-1.217,3.05-2.65c-1.7-0.133-2.833-0.733-3.4-1.8l-0.6-0.2c0.867-1.133,2.55-1.583,5.05-1.35l6.95,0.35
		c-0.867-2.233-2.034-4.067-3.5-5.5c-0.333-0.333-0.35-0.733-0.05-1.2c0.367-0.533,0.883-0.816,1.55-0.85
		c2.767-0.167,3.6-0.817,2.5-1.95l0.45-0.55c2.833-3.567,5.033-6.633,6.6-9.2c0.3-0.5,0.35-1.05,0.15-1.65l-2.2-7.9
		c-0.333-0.8-0.9-1.383-1.7-1.75c-1.3-0.6-2.233-1.75-2.8-3.45c2.767,0.133,3.533-0.317,2.3-1.35l-1.6-1.3
		c-1.2-1-2.283-2.217-3.25-3.65c-0.3-0.467-0.383-1.017-0.25-1.65c0.4-1.833,1.65-2.95,3.75-3.35l2.1-0.6c2.9-1.167,4.4-3.2,4.5-6.1
		l6.5,0.7l3.45,1.05l0.15,0.35c0.233,0.933,0.55,1.8,0.95,2.6c0.267,0.533,0.7,1.017,1.3,1.45c0.933,0.7,2.283,1.117,4.05,1.25
		l2.05,0.1l1.1-0.3c4.167-2.267,5.95-6.017,5.35-11.25c-0.3-2.633-0.316-5.267-0.05-7.9c0.133-1.6,0.967-3,2.5-4.2l2.25-1.65
		c1.833-1.3,3.7-2.5,5.6-3.6c1.5-0.867,2-1.983,1.5-3.35c-0.167-0.5-0.567-0.95-1.2-1.35c-3.167-2-6.533-3.233-10.1-3.7l-2.85-0.55
		c-0.4-0.1-0.767-0.316-1.1-0.65c-0.6-2.3,0.066-3.467,2-3.5c0.333,0,0.633-0.183,0.9-0.55l4.6-5.4c0.333-0.367,0.55-0.867,0.65-1.5
		c0.7-4.066-0.65-6.533-4.05-7.4c-0.4-0.1-0.767-0.316-1.1-0.65l-1-1c1.566-0.933,3.216-1.667,4.95-2.2
		c1.367-0.433,2.533-1.633,3.5-3.6c0.4-0.767,1.25-1.233,2.55-1.4l12-0.8c-1.467-3.067-0.15-4.267,3.95-3.6l7.05,1.6
		c-1.1-1.5-2.767-2.833-5-4l7.95,0.4l7,1l1.15,0.3c1.633,0.5,2.434,1.933,2.4,4.3c0,0.667,0.083,1.35,0.25,2.05
		c0.667,2.633,2.117,5.267,4.35,7.9l5.6,8.25c1.167,1.733,2.05,3.633,2.65,5.7c2,6.833,5.617,11.4,10.85,13.7
		c7.867,3.433,16.45,4.767,25.75,4c0.7-0.067,1.367-0.3,2-0.7c2.1-1.4,4.467-3.683,7.1-6.85l6.6-8.3
		c2.333-2.967,5.15-5.483,8.45-7.55c1.267-0.8,2.6-1.45,4-1.95c3.4-1.267,4.917-3.333,4.55-6.2c-0.1-0.7-0.417-1.267-0.95-1.7
		c-1.467-1.233-3.05-2.333-4.75-3.3c-2.633-1.533-5.3-2.85-8-3.95c-1.467-0.633-2.45-1.333-2.95-2.1c3.466-1.867,7.5-3.8,12.1-5.8
		c1.733-0.767,2.35-2.167,1.85-4.2c-0.7-2.733-1.85-4.9-3.45-6.5c-0.333-0.333-0.517-0.833-0.55-1.5c-0.1-1.8,0.567-2.867,2-3.2
		c1.2-0.267,2.117-1.233,2.75-2.9l0.7-1.65c0.433-0.767,1.267-1.3,2.5-1.6c0.4-0.066,0.667-0.3,0.8-0.7
		c0.4-1.4,1.483-2.167,3.25-2.3l2.05-0.6c-1.867-0.466-3.3-1.383-4.3-2.75l-0.7-0.25c2.667-1.133,5.667-1.55,9-1.25l4-0.25
		l-1.8-1.35l1.75,0.25c1.867,0.2,3.267,1.033,4.2,2.5c0.233,0.4,0.55,0.683,0.95,0.85c1.5,0.667,2.267,1.75,2.3,3.25
		c0.033,1.2,0.867,1.983,2.5,2.35l1,0.7l3.1,4.9c1.4-1.067,2.583-2.467,3.55-4.2l0.95-1.25l1.3-0.1
		c1.467,0.767,2.317-0.017,2.55-2.35c0.133-1.367,0.733-2.15,1.8-2.35c0.566-0.133,1.1,0.05,1.6,0.55
		c0.867,0.867,2.25,1.567,4.15,2.1c0.4,0.1,0.617,0.333,0.65,0.7c0.267,3,0.95,5.383,2.05,7.15c1.233,1.9,1.784,4.15,1.65,6.75
		c-0.167,3.667,0.033,7.283,0.6,10.85c0.1,0.767,0.55,1.35,1.35,1.75c3.533,1.733,6.383,3.933,8.55,6.6c2.3,2.8,5.333,4.867,9.1,6.2
		c1.367,0.5,2.133,1.367,2.3,2.6c0.333,2.8-0.7,4.283-3.1,4.45c-0.367,0.033-0.583,0.233-0.65,0.6c-0.5,3.333,0.033,6.317,1.6,8.95
		c2.133,3.533,4.45,6.55,6.95,9.05c2.434,2.467,4.583,5.017,6.45,7.65c1,1.433,2.133,2.617,3.4,3.55l3.45,2.3l1.65,0.1
		c3.1-1.133,4.783-3.667,5.05-7.6c0.033-0.367,0.4-0.6,1.1-0.7c4-0.533,6.767,0.267,8.3,2.4c1.233,1.7,2.384,2.883,3.45,3.55
		c0.767,0.5,1.083,1.383,0.95,2.65c-0.333,2.867,0.316,4.733,1.95,5.6c0.534,0.3,0.917,0.8,1.15,1.5l1.3,3.9
		c0.233,0.7,0.617,1.233,1.15,1.6c0.467,0.3,1,0.55,1.6,0.75l1.15,0.65l2.95,3.05c-0.2-3.2,1.116-5,3.95-5.4
		c0.367-0.067,0.633-0.3,0.8-0.7c0.533-1.267,1.333-2.117,2.4-2.55l1.85-0.35h6c-1.1-1.5-2.767-2.833-5-4
		c0.2-1.133,1.216-1.65,3.05-1.55l1.05-0.05c1.233-0.3,2.067-0.833,2.5-1.6c0.7-1.3,0.634-2.167-0.2-2.6
		c-0.267-0.133-0.367-0.534-0.3-1.2c0.333-4.3-0.25-8.2-1.75-11.7l-1.1-1.55l-1.55-1.3l-1.7-0.45c1-1.333,1.866-2.733,2.6-4.2
		c0.267-0.533,0.4-1.133,0.4-1.8c0-4.667,0.15-9.317,0.45-13.95c0.034-0.367,0.217-0.716,0.55-1.05l2-2l-6.1-2.8l-0.9-0.2
		c0.866-1.133,2.55-1.567,5.05-1.3c1.533,0.2,2.717-0.45,3.55-1.95c0.267-0.5,0.317-1.067,0.15-1.7c-0.167-0.7-0.483-1.333-0.95-1.9
		c-2.233-2.6-2.45-5.283-0.65-8.05l0.95-0.9l9.9-5.15l1.55-1.35c0.3-0.467,0.4-1.017,0.3-1.65l-0.85-4.05l11.1,0.35
		c0.6,0.1,1.15-0.1,1.65-0.6c0.333-0.333,1.167,0.35,2.5,2.05l3.15,4.95c0.833,1.533,1,3.267,0.5,5.2
		c-0.267,1.033-0.4,2.05-0.4,3.05c0,0.667,0.15,1.333,0.45,2c0.967,2.067,2.983,3.117,6.05,3.15l10.95,1.25
		c3.567,0.533,6.517,1.517,8.85,2.95c2.033,1.267,2.95,3.167,2.75,5.7c-0.033,0.3,0.05,0.65,0.25,1.05
		c1.633,3.467,3.217,6.517,4.75,9.15c0.3,0.5,0.417,1.083,0.35,1.75c-0.333,2.6,0.383,4.583,2.15,5.95
		c1.934,1.533,4.283,1.617,7.05,0.25l2.85-1.35c3.5-1.5,6.05-3.85,7.65-7.05l0.7-1.7c0.333-1.2,1.583-1.617,3.75-1.25l1.95,0.15
		c-0.134-3.367-1.4-6.433-3.8-9.2l-1.35-1.7c-1.533-2.033-0.85-3.783,2.05-5.25c2.133-1.067,4.2-2.317,6.2-3.75
		c2.7-1.967,3.75-4.283,3.15-6.95l-0.85-2.35c-0.8-1.566-1.934-2.5-3.4-2.8c1.033-1,1.883-2.083,2.55-3.25
		c0.3-0.5,0.35-1.05,0.15-1.65l-0.2-1.1c0-0.667,0.25-1.25,0.75-1.75l1.7-1.3c2.833-1.667,4.333-3.95,4.5-6.85l0.2-1.15
		c0.233-0.934,0.333-1.9,0.3-2.9c-0.1-1.8,0.367-3.083,1.4-3.85l-0.45-1.05l-0.9-1.1c-0.067-1.1,0.616-1.617,2.05-1.55h1
		c1.833-0.167,3.483-0.65,4.95-1.45l2.05-0.65c3.267-0.433,5.917-1.217,7.95-2.35c1.1,1.2,2.167,2.833,3.2,4.9
		c1.233,2.533,2.833,4.566,4.8,6.1l3.85,3.2c1.8,1.6,3.767,3,5.9,4.2c1.267,0.733,2.366,1.216,3.3,1.45
		c3.733,0.9,6.816,0.033,9.25-2.6C695.717-326.2,696.3-326.55,697-326.75z M263.45-232.25l-0.6-0.5c-2.434-0.967-3.4-1.383-2.9-1.25
		c1,0.333,1.966,0.733,2.9,1.2c1.733,0.867,2.1,1.133,1.1,0.8L263.45-232.25z M420.15-330.8c-0.7-0.1-0.767-0.15-0.2-0.15
		L420.15-330.8z"/>
</symbol>
<use xlink:href="#Symbol_5"  width="919.95" height="319.887" x="-164" y="-412.45" transform="matrix(1 0 0 -1 0 0)" overflow="visible"/>
</svg>
