<?xml version="1.0" encoding="utf-8"?>
<!-- Generator: Adobe Illustrator 16.0.0, SVG Export Plug-In . SVG Version: 6.00 Build 0)  -->
<!DOCTYPE svg PUBLIC "-//W3C//DTD SVG 1.1//EN" "http://www.w3.org/Graphics/SVG/1.1/DTD/svg11.dtd">
<svg version="1.1" id="Selected_Items" xmlns="http://www.w3.org/2000/svg" xmlns:xlink="http://www.w3.org/1999/xlink" x="0px"
	 y="0px" width="960px" height="540px" viewBox="0 0 960 540" enable-background="new 0 0 960 540" xml:space="preserve">
<symbol  id="Symbol_7" viewBox="0 -539.95 960 171.7">
	<path fill-rule="evenodd" clip-rule="evenodd" fill="#2B2429" d="M684.5-380.9l2.6,0.45l2.8,0.1c1.467-0.167,2.417,0,2.85,0.5
		c0.133,0.133,0.483,0.283,1.05,0.45c6.333,1.433,13.017,2.767,20.05,4l15.1,1.6c3.1,0.5,5.85,1.183,8.25,2.05l1.7,0.35
		c3.233,0.333,5.85-0.117,7.85-1.35c1.133-0.733,2.467-1.217,4-1.45l2.3-0.7c4.333-2.067,9.284-3.3,14.85-3.7
		c4-0.267,7.667-1.017,11-2.25l0.1-0.05l5.9-2.25l1.1-0.3c1.066-0.133,1.7-0.566,1.9-1.3l1,0.05l2.1,0.3
		c5.633,0.967,11.617,1.5,17.95,1.6l18.95,1.15c2.167-0.1,3.633,0.133,4.4,0.7l0.15,0.05c0.4,0.3,0.9,0.517,1.5,0.65
		c5.066,1.4,10.417,2.3,16.05,2.7l6.95,0.35l15.05-0.5c3.467-0.267,6.75-0.767,9.85-1.5l9.15-1.35l24.9-1.2
		c2.333,0.2,3.667-0.217,4-1.25l6.1-0.35l9.9,1c1.867,0.133,3.333,0.6,4.4,1.4l0.15,0.05H960v-159.05H0v159.05h10.5l6.6-1.55
		c1.933-0.7,4.233-1.017,6.9-0.95c6.333,0.2,12.667,0.3,19,0.3l7.95,0.2l2.05,0.35c1.6,0.5,2.85,1.05,3.75,1.65l0.15,0.15
		c0.967,0.733,2.65,1.2,5.05,1.4l1.15,0.2c1.933,0.7,4.233,1.033,6.9,1l5.95,0.95c2.8,0.534,5.117,1.117,6.95,1.75l1.05,0.5
		c1.867,1.267,4.216,1.934,7.05,2l1.1,0.2c4.767,1.5,10.383,2.717,16.85,3.65l3.05,0.45l11.95,0.4l16.1-2.55l11.95-1l1.05-0.2
		c2.333-0.967,4.684-2.133,7.05-3.5c1.033-0.567,2.667-0.883,4.9-0.95l1.1-0.05l8.8-1.6c6-1.2,12.367-1.9,19.1-2.1l5.1-0.7
		c5.2-0.8,9.883-1.883,14.05-3.25l2.85-0.7c2.5-0.467,5.217-1.2,8.15-2.2l6.8-1.95l16.1-2.1c2.434-0.1,4.767-0.05,7,0.15l39.85,2.25
		l26.05,2.95l11,0.35l12.1-0.2c3.767,0.9,7.717,1.6,11.85,2.1l2.1,0.35c2.433,0.6,4.783,1.35,7.05,2.25
		c1.867,0.8,3.667,1.717,5.4,2.75c0.667,0.367,1.417,0.717,2.25,1.05l5.25,2.15c0.466-1.1,1.517-1.8,3.15-2.1l17.8-2.2l13.05-0.6
		c3.833,0.1,6.667,0.667,8.5,1.7l1.4,0.45c5.833,1.067,12.2,1.45,19.1,1.15l7.8-0.65c0.467-0.066,0.95-0.25,1.45-0.55
		c1.6-1,3.566-1.733,5.9-2.2l17.8-0.5l1.15-0.25l0.55-0.2c3.233-1,7.35-1.45,12.35-1.35l12-0.35c3.333,0,6.383,0.35,9.15,1.05
		l20.9,2.95c6.3,0.767,12.367,1.867,18.2,3.3l15.8,3.1l13.95,0.9l4.2-0.55l22.85-4.7c6.667-0.934,13.65-1.467,20.95-1.6
		c0.667,0,1.316-0.117,1.95-0.35l4.3-1.45l9.9-0.95l3.4-0.9c0.3-0.1,0.35-0.317,0.15-0.65l-0.7-0.65l16,1.2L684.5-380.9z"/>
</symbol>
<use xlink:href="#Symbol_7"  width="960" height="171.7" y="-539.95" transform="matrix(1 0 0 -1 0 0)" overflow="visible"/>
</svg>
