<?xml version="1.0" encoding="UTF-8" standalone="no"?>
<!-- Generator: Adobe Illustrator 16.0.0, SVG Export Plug-In . SVG Version: 6.00 Build 0)  -->

<svg
   xmlns:dc="http://purl.org/dc/elements/1.1/"
   xmlns:cc="http://creativecommons.org/ns#"
   xmlns:rdf="http://www.w3.org/1999/02/22-rdf-syntax-ns#"
   xmlns:svg="http://www.w3.org/2000/svg"
   xmlns="http://www.w3.org/2000/svg"
   xmlns:sodipodi="http://sodipodi.sourceforge.net/DTD/sodipodi-0.dtd"
   xmlns:inkscape="http://www.inkscape.org/namespaces/inkscape"
   version="1.1"
   id="Layer_1"
   x="0px"
   y="0px"
   width="1920"
   height="1080"
   viewBox="0 0 1920 1080"
   enable-background="new 0 0 1400 540"
   xml:space="preserve"
   inkscape:version="0.91 r13725"
   sodipodi:docname="LogoBlack.svg"><metadata
     id="metadata9"><rdf:RDF><cc:Work
         rdf:about=""><dc:format>image/svg+xml</dc:format><dc:type
           rdf:resource="http://purl.org/dc/dcmitype/StillImage" /><dc:title /></cc:Work></rdf:RDF></metadata><defs
     id="defs7" /><sodipodi:namedview
     pagecolor="#ffffff"
     bordercolor="#666666"
     borderopacity="1"
     objecttolerance="10"
     gridtolerance="10"
     guidetolerance="10"
     inkscape:pageopacity="0"
     inkscape:pageshadow="2"
     inkscape:window-width="2560"
     inkscape:window-height="1017"
     id="namedview5"
     showgrid="false"
     inkscape:zoom="0.20571429"
     inkscape:cx="-17.013874"
     inkscape:cy="270"
     inkscape:window-x="1912"
     inkscape:window-y="-8"
     inkscape:window-maximized="1"
     inkscape:current-layer="Layer_1" /><path
     d="m 943.35,390.851 c 0.8,-0.733 1.684,-1.4 2.65,-2 l 76.3,-49.3 21.351,-1.5 0,33.85 -38.7,25 c -12.566,1.033 -25.017,2.117 -37.35,3.25 l -33.95,4 0,-6.45 9.699,-6.85 z m -6.7,-42.95 0,26.05 -35.15,35.05 c -10.066,1.2 -20.05,2.434 -29.95,3.7 -7.467,0.933 -14.867,1.9 -22.2,2.9 l -37.15,-36.8 0,-23.9 30.05,-0.85 29.85,29.6 33.8,-33.8 30.75,-1.95 z m 9.05,73.3 -12.05,-5.65 0,-2.45 5.2,0 c -0.033,-0.066 -0.05,-0.117 -0.05,-0.15 6.633,-0.667 13.3,-1.317 20,-1.95 0.067,0 0.134,0 0.2,0 l 0.05,0 c 4.034,-0.4 8.084,-0.75 12.15,-1.05 l 36.85,-3.25 c 0.267,-0.033 0.534,-0.067 0.801,-0.1 l 50,21.6 c 0.267,0.1 2.866,1.384 7.8,3.85 l -7,32.101 -129.4,107.55 -37.3,7 -4,-20.95 c 0.533,-0.566 1.1,-1.116 1.7,-1.649 l 124.1,-104.75 -65.9,-28.45 c -1.134,-0.502 -2.184,-1.069 -3.151,-1.702 z m 130.95,-87.1 32.75,-5.25 c 0.166,0.133 0.316,0.267 0.45,0.4 l -0.051,-0.45 5.75,-0.95 0,61.7 c -6.6,0.333 -13.149,0.683 -19.649,1.05 -6.4,0.367 -12.767,0.75 -19.101,1.15 l 0,-48.8 c 10e-4,-3.433 -0.049,-6.383 -0.149,-8.85 z m 0.15,83.4 0,-15.7 c 6.5,-0.434 13.051,-0.833 19.65,-1.2 22.033,-1.267 44.333,-2.35 66.9,-3.25 6.366,-0.267 12.767,-0.517 19.199,-0.75 l 0,15.1 c 0,0.067 0,0.117 0,0.15 l 0,60.65 -10.3,24.9 -28.45,4.75 0,-13.7 c 0,-0.2 0,-0.384 0,-0.55 l 0,-54.9 -28.25,2.65 0,57.45 -7.149,14.85 -23.3,3.9 0.05,0.149 -8.351,1.4 c 0,-4.8 0,-9.601 0,-14.4 l 0.2,0 c -0.066,-0.366 -0.1,-0.717 -0.1,-1.05 -0.066,-0.333 -0.101,-0.684 -0.101,-1.05 l 0,-78.949 c 0,-0.167 0,-0.317 0,-0.45 z m 258.475,-23.225 0.05,-0.05 c -0.017,0.025 -0.033,0.05 -0.05,0.075 -0.154,0.229 -0.204,0.479 -0.15,0.75 -0.036,-0.146 -0.036,-0.296 0,-0.45 0.034,-0.123 0.085,-0.231 0.15,-0.325 z m -11.125,-72.675 0,-0.05 c -7.233,-3.8 -14.983,-6.383 -23.25,-7.75 l 0.05,0 c -4.667,-0.767 -9.483,-1.15 -14.45,-1.15 -3.033,0 -5.967,0.133 -8.8,0.4 l -7.1,1.1 1,-20.9 4.449,2.7 c 3.4,-0.333 6.884,-0.5 10.45,-0.5 5.9,0 11.634,0.467 17.2,1.4 l 0.05,0 c 4.333,0.715 8.55,1.707 12.65,2.975 l 0,-21.025 181.7,-38.8 c 1.967,-0.433 3.899,-0.566 5.8,-0.4 l -0.5,38.9 -75.9,16.15 0,176.25 c -0.033,3.533 -0.866,6.717 -2.5,9.55 l -32.399,2.1 c -2.567,-3.366 -3.851,-7.25 -3.851,-11.649 l 0,-42.226 -0.425,0.825 -0.05,0.075 c 0.071,-0.119 0.112,-0.252 0.125,-0.4 0.01,-0.096 0,-0.188 -0.025,-0.274 0.048,0.24 0.015,0.465 -0.1,0.675 -0.017,0.024 -0.033,0.05 -0.05,0.075 -0.046,0.068 -0.096,0.127 -0.15,0.175 0.048,-0.04 0.09,-0.082 0.125,-0.125 -0.082,0.115 -0.19,0.207 -0.325,0.275 -0.056,0.032 -0.114,0.057 -0.175,0.074 -0.032,0.01 -0.065,0.019 -0.1,0.025 -0.271,0.054 -0.521,0.003 -0.75,-0.15 l -51.2,-34.175 c 0.081,0.033 0.164,0.058 0.25,0.075 0.27,0.053 0.52,0.003 0.75,-0.15 l 0.35,-0.225 -0.899,-0.6 51.3,-34.3 1.35,2.7 0,-60.35 -46.175,9.8 c 4.813,3.39 9.404,7.29 13.775,11.7 8.467,8.466 15.1,17.767 19.899,27.9 l 5.65,4.25 -16.55,10.35 -4.65,-7.25 c -3.967,-8.367 -9.467,-16.067 -16.5,-23.1 l -0.05,0 c -6.166,-6.2 -12.832,-11.183 -19.999,-14.95 z m -118.1,9.25 19,9.15 -5.1,6.95 c -10,13.667 -14.983,29.417 -14.95,47.25 -0.033,16.7 4.316,31.583 13.05,44.65 l 5.301,9.149 -19.601,9.55 0,-9.149 c -10.6,-15.9 -15.916,-33.967 -15.95,-54.2 0.034,-21.633 6.117,-40.767 18.25,-57.4 l 0,-5.95 z m 21.4,-39.775 c 0.145,-0.084 0.294,-0.126 0.45,-0.125 0.041,-0.005 0.083,-0.005 0.125,0 l 37.95,-2.35 c 0.142,-0.025 0.291,-0.017 0.449,0.025 0.193,0.055 0.352,0.155 0.476,0.3 0.036,0.036 0.069,0.077 0.1,0.125 l 0.025,0.05 c 0.01,0.017 0.018,0.033 0.024,0.05 0.105,0.208 0.139,0.424 0.101,0.65 l -4,61.35 0,0.075 c 0,0.058 -0.014,0.116 -0.025,0.175 l 0,0.025 c -0.021,0.056 -0.045,0.114 -0.075,0.175 -0.122,0.246 -0.314,0.413 -0.574,0.5 -0.103,0.033 -0.211,0.049 -0.325,0.05 -0.025,0 -0.05,0 -0.075,0 l -0.025,0 c -0.115,-0.01 -0.232,-0.043 -0.35,-0.1 l -55.35,-27.3 c -0.177,-0.087 -0.318,-0.221 -0.426,-0.4 -0.028,-0.055 -0.054,-0.113 -0.074,-0.175 -0.033,-0.098 -0.05,-0.198 -0.051,-0.3 l 0.025,-0.275 c 0.02,-0.07 0.044,-0.137 0.075,-0.2 0.046,-0.091 0.104,-0.174 0.175,-0.25 l 20.95,-31.6 c 0.091,-0.202 0.233,-0.36 0.425,-0.475 z m -50.65,27.125 0.051,0.05 c 3.767,3.767 5.666,8.333 5.699,13.7 l 0,54.65 c -6.566,0.233 -13.1,0.483 -19.6,0.75 -6.4,0.267 -12.783,0.533 -19.15,0.8 l 0,-64.55 2,-0.35 c 0.034,-0.066 0.067,-0.117 0.101,-0.15 l 0,-0.05 30.899,-4.85 z m 158.475,77.2 c -0.056,-0.075 -0.098,-0.158 -0.125,-0.25 0.024,0.066 0.058,0.133 0.1,0.2 0.01,0.018 0.014,0.035 0.025,0.05 z m 47.425,36.1 -6.05,3.8 c -4.8,10.4 -11.567,19.983 -20.3,28.75 -19.268,19.267 -42.551,28.9 -69.851,28.9 -3.533,0 -7,-0.167 -10.399,-0.5 l -4.551,3.2 -1.149,-21.351 7.35,1.051 c 2.833,0.267 5.75,0.399 8.75,0.399 22.567,0 41.8,-7.95 57.7,-23.85 7.233,-7.267 12.833,-15.2 16.8,-23.8 l 3.601,-7.8 18.099,11.201 z m 5.15,-3.3 0.1,0.075 c 0.059,0.038 0.108,0.08 0.15,0.125 -0.072,-0.083 -0.147,-0.167 -0.226,-0.25 l -0.024,0.05 z m -52.2,-32.45 c -0.041,-0.021 -0.082,-0.046 -0.125,-0.075 -0.068,-0.054 -0.127,-0.12 -0.175,-0.2 0.051,0.08 0.118,0.146 0.199,0.2 l 0.101,0.075 z m -74.175,40.45 c 0.144,0.048 0.269,0.123 0.375,0.225 0.065,0.065 0.123,0.14 0.175,0.226 0.01,0.017 0.018,0.033 0.024,0.05 0.064,0.122 0.098,0.247 0.101,0.375 l 0,0.05 c 0,0.025 0,0.05 0,0.075 l 4.05,61.375 0,0.05 c 0,0.042 0,0.084 0,0.125 10e-4,0.155 -0.04,0.305 -0.125,0.45 -0.017,0.025 -0.033,0.051 -0.05,0.075 -0.046,0.064 -0.096,0.123 -0.15,0.175 -0.101,0.088 -0.217,0.154 -0.35,0.2 -0.025,0.009 -0.051,0.017 -0.075,0.024 -0.157,0.043 -0.308,0.052 -0.45,0.025 l -37.975,-2.35 c -0.042,0.005 -0.084,0.005 -0.125,0 -0.166,-0.009 -0.316,-0.05 -0.45,-0.125 -0.097,-0.058 -0.18,-0.125 -0.25,-0.2 -0.071,-0.083 -0.13,-0.175 -0.175,-0.275 l -18.775,-28.425 c -0.022,-0.028 -0.048,-0.062 -0.075,-0.1 -0.033,-0.051 -0.059,-0.101 -0.074,-0.15 l -1.976,-2.95 c -0.116,-0.125 -0.2,-0.275 -0.25,-0.45 -0.055,-0.207 -0.047,-0.407 0.025,-0.6 0.018,-0.06 0.043,-0.118 0.075,-0.175 0.013,-0.024 0.029,-0.049 0.05,-0.075 l 0.075,-0.075 0.024,-0.05 c 0.1,-0.114 0.225,-0.198 0.375,-0.25 l 55.2,-27.2 c 0.223,-0.116 0.456,-0.142 0.7,-0.075 0.024,0.006 0.049,0.014 0.076,0.025 z M 459.7,311.751 l 7.75,-19.8 32.9,0 164.95,45.35 c 0.9,0.233 2.767,0.867 5.6,1.9 l 5.1,9.5 -9.1,28.65 c -5.934,-1.267 -9.883,-2.167 -11.85,-2.7 l -117.4,-32.3 105.25,115.5 c -6.367,1.466 -12.667,2.949 -18.9,4.449 -8.066,1.967 -16.083,3.967 -24.05,6 L 463.9,319.001 c -2,-2.167 -3.4,-4.583 -4.2,-7.25 z m 265.85,48.4 0,35 40.9,-40.9 c 0.167,-0.167 0.35,-0.333 0.55,-0.5 l 27.2,2.05 0,25.5 c -0.1,0.1 -0.217,0.217 -0.35,0.35 l -53.55,53.55 c -10.434,1.9 -20.783,3.85 -31.05,5.85 -1.367,0.267 -2.716,0.534 -4.05,0.801 -6.167,1.233 -12.3,2.483 -18.4,3.75 l 0,-100.2 c 0.447,-0.905 0.397,-1.421 -0.15,-1.55 l 36.35,6.65 c 1.667,2.866 2.517,6.082 2.55,9.649 z m 147.25,62.45 c 6.2,-0.8 12.45,-1.583 18.75,-2.35 l 0,87 -13.6,22.101 -25.15,2 0,-106.151 c 6.633,-0.867 13.3,-1.733 20,-2.6 z m -77.05,81.8 13.95,15.7 0,15.899 -31.6,5 -10.95,-10.7 c -0.134,-0.133 -0.25,-0.25 -0.35,-0.35 -0.133,-0.134 -0.25,-0.25 -0.35,-0.35 l -40.9,-40.9 0,55.2 c 0,0.7 -0.033,1.383 -0.1,2.05 l -38.65,4.8 0,-6.149 c 0,-0.233 0,-0.467 0,-0.7 l 0,-88.1 c 6.733,-1.433 13.517,-2.816 20.35,-4.149 1.3,-0.267 2.633,-0.533 4,-0.8 8.733,-1.7 17.517,-3.367 26.35,-5 l 56.35,56.35 c 0.7,0.699 1.333,1.433 1.9,2.199 z m -169.4,-32.4 c 2,-0.483 4.008,-0.95 6.025,-1.399 l -12.8,3.125 c 2.25,-0.601 4.508,-1.176 6.775,-1.726 z m 22.25,33.55 -269.75,98.55 c -0.533,0.199 -1.05,0.366 -1.55,0.5 L 368.8,605 c -1.1,-0.2 -2.2,-0.5 -3.3,-0.899 -5.533,-2.034 -11.066,-4.067 -16.6,-6.101 -0.4,-0.166 -0.8,-0.316 -1.2,-0.45 l -14.7,-5.3 0,-41.399 317.6,-84.551 -2,39.251 z"
     id="path3"
     inkscape:connector-curvature="0"
     style="clip-rule:evenodd;fill-rule:evenodd" /></svg>