<?xml version="1.0" encoding="utf-8"?>
<!-- Generator: Adobe Illustrator 16.0.0, SVG Export Plug-In . SVG Version: 6.00 Build 0)  -->
<!DOCTYPE svg PUBLIC "-//W3C//DTD SVG 1.1//EN" "http://www.w3.org/Graphics/SVG/1.1/DTD/svg11.dtd">
<svg version="1.1" id="Selected_Items" xmlns="http://www.w3.org/2000/svg" xmlns:xlink="http://www.w3.org/1999/xlink" x="0px"
	 y="0px" width="960px" height="540px" viewBox="0 0 960 540" enable-background="new 0 0 960 540" xml:space="preserve">
<symbol  id="Symbol_6" viewBox="-480 -92.15 961.1 200.232">
	<path fill-rule="evenodd" clip-rule="evenodd" fill="#322646" fill-opacity="0.8588" d="M55.4,97c0.434,0.367,0.967,0.583,1.6,0.65
		l4.05,0.45l1.1-0.1l3.8-0.9l1.15-0.55l4.1-3.15c3.833-2.767,7.8-5.25,11.9-7.45c3.433-1.7,6.816-3.3,10.15-4.8
		c2.7-1.2,5.683-1.433,8.95-0.7c0.7,0.1,1.383,0.3,2.05,0.6c4.033,2.1,8.317,3.617,12.85,4.55l1.2,0.25
		c3.034,0.667,5.983,1.433,8.85,2.3l5.95,1.6l1.15,0.25l9.7,2.85l2,0.55l16.2,4.8c1.9,0.533,3.317,1.183,4.25,1.95
		c0.4,0.3,0.917,0.567,1.55,0.8l9.1,2.3l2.8,0.85l1.15,0.25l7.95,0.65c3.966,0.2,7.45-1.083,10.45-3.85
		c0.733-0.667,1.6-1.183,2.6-1.55c6.333-2.1,12.683-3.883,19.05-5.35l6.05-0.55l6.3-0.3l3.8-0.55l4.85-0.75
		c0.7-0.167,1.317-0.5,1.85-1c1.3-1.167,2.7-1.934,4.2-2.3l1.1-0.2c3.533-0.467,6.883-0.4,10.05,0.2l4.9,0.3
		c3.4-0.333,6.117-0.1,8.15,0.7l2.85,0.4c3.333-0.367,6.367-0.133,9.1,0.7c0.9,0.333,1.833,0.55,2.8,0.65l3.1,0.4
		c3.434,0.3,6.767,0.783,10,1.45c3.133,0.667,6.133,1.583,9,2.75l1.9,0.5l8,0.6c2.833,0,4.95,0.617,6.35,1.85
		c0.4,0.333,0.934,0.55,1.6,0.65l5,0.45c3.667,0.267,7.333,0.333,11,0.2c1.833-0.066,3.25,0.233,4.25,0.9l1.75,0.4l19.05-0.85
		l2.9-0.55l2.1-0.45l3.9-0.55c3.433-0.367,6.517-1.2,9.25-2.5l1.85-0.15c3.667,0.367,7.034,0.117,10.1-0.75l2.9-0.35l20.05-0.85
		l4.95-0.65l1.15-0.25l1.3-0.4c2.7-0.667,5.567-0.933,8.6-0.8c1.833,0.033,3.233-0.25,4.2-0.85l1.8-0.35
		c7.333,0,14.667,0.117,22,0.35l2.05,0.35c1.267,0.267,2.25,0.7,2.95,1.3h10.1l0.9-68.55h-960l-0.9,68.55l13.75,2.15l9.4-4.9
		l1.8-0.55l2.1-0.65c1.3-0.5,2.633-0.833,4-1l1.85-0.45l1.2-0.4l3.9-0.65c1.833-0.233,3.033,0.05,3.6,0.85
		c0.267,0.3,0.733,0.417,1.4,0.35c4.233-0.1,8.283,0.483,12.15,1.75l2.8,0.75l12.3,2.75l8.6,2.3l2.1,0.65l3.95,1.1
		c6,1.433,11.95,3.583,17.85,6.45c5.066,2.467,10.4,3.85,16,4.15c1.466,0.133,2.867-0.15,4.2-0.85l1.8-0.35l11.05-0.65
		c1.833-0.167,3.55-0.5,5.15-1l2.85-0.65l5-1c3.267-0.733,6.633-1.233,10.1-1.5c1.767-0.1,3.15-0.433,4.15-1
		c0.533-0.3,1.133-0.45,1.8-0.45c3.034,0,5.5-0.917,7.4-2.75c2.167-2.1,5.383-3.083,9.65-2.95h1c1.633-0.066,3.05-0.566,4.25-1.5
		l0.95-0.9c1.3-1.467,2.917-2.333,4.85-2.6l2.1-0.15l7.95-0.3l11.95,1.2l2.05,0.25l9.9,0.85l3.1,0.45l6.4,1.2l6.45,1.3l2.1,0.55
		l2.9,0.55l2.1,0.3c3.667,0.3,6.717,0.967,9.15,2l4.65,1.75c2.767,0.933,5.783,1.267,9.05,1l5.1,0.45l3.9,0.5
		c6.467,0.3,12.783-0.167,18.95-1.4l3.1-0.55l16.95-2.6l3.1-0.55l2.9-0.55l2.1-0.55c2.167-0.9,4.65-1.633,7.45-2.2l1.5-0.25
		l2.1-0.55c1.3-0.5,2.533-1.067,3.7-1.7c1.566-0.767,3.333-1.133,5.3-1.1h1.05l9-1c0.633-0.066,1.283,0.117,1.95,0.55
		c4.1,1.967,8.6,3.316,13.5,4.05l1.45,0.2c1.667,0.233,3.283,0.6,4.85,1.1c3.267,1.167,6.617,1.633,10.05,1.4
		c2.167-0.2,3.683,0.1,4.55,0.9c0.333,0.367,0.833,0.55,1.5,0.55l18.05-0.85c2.033-0.233,4-0.684,5.9-1.35l6.3-1.95
		c4.2-1.233,8.483-2.25,12.85-3.05l9.05-1.8l2.9-0.55l2.1-0.5c2.233-0.433,3.95-0.267,5.15,0.5c1.933,1.167,4.2,1.767,6.8,1.8h1
		c6.267,0,12.267,0.434,18,1.3l3.1,0.75l2.75,0.9l2.8,0.65l2.4,0.55L21,94.8l1.1,0.35l4.95,0.55l7,0.3l2.05-0.1l10.95-0.75
		C50.65,94.917,53.433,95.533,55.4,97z"/>
	<g id="Layer_3_1_">
		<path fill-rule="evenodd" clip-rule="evenodd" fill="#35303D" d="M71,90.15c3.8-1.5,7.733-2.85,11.8-4.05l10.1-2.6l8.95-0.4
			l2.05,0.35c4.067,1.133,8.367,1.95,12.9,2.45l1.2,0.15l8.9,1.25l5.95,0.85L134,88.3l9.75,1.55l2,0.3l16.25,2.6
			c1.933,0.3,3.367,0.65,4.3,1.05l1.55,0.45L177,95.5l2.8,0.45l1.15,0.15l7.95,0.35c3.967,0.1,7.434-0.6,10.4-2.1
			c0.733-0.367,1.6-0.65,2.6-0.85l18.95-2.9l6.05-0.3l6.3-0.15l3.8-0.3l4.85-0.4l1.85-0.55c1.267-0.633,2.65-1.05,4.15-1.25l1.1-0.1
			c3.533-0.267,6.883-0.233,10.05,0.1l4.9,0.15l8.15,0.4l2.85,0.2l9.15,0.4l2.8,0.35l3.1,0.2l10,0.8l9.05,1.5l1.9,0.25l8,0.35
			c2.833,0,4.967,0.333,6.4,1l1.6,0.35l5,0.25l11,0.1l4.25,0.5l1.75,0.2c6.667,0.233,13.017,0.083,19.05-0.45l2.9-0.3l2.1-0.25
			l3.9-0.3c3.433-0.2,6.5-0.65,9.2-1.35l1.85-0.1l10.1-0.4l2.9-0.2c6.934,0.2,13.617,0.05,20.05-0.45l4.9-0.35l1.15-0.15l1.3-0.2
			l8.6-0.45l4.2-0.45l1.8-0.2l22,0.2l2.05,0.2c1.267,0.133,2.25,0.367,2.95,0.7H480v-182.3h-960v182.3l13.8,1.15l9.3-2.65l1.8-0.3
			L-453,88l4-0.55l1.85-0.25l1.2-0.2l3.85-0.35c1.833-0.133,3.05,0.017,3.65,0.45l1.4,0.2l12.15,0.95l2.8,0.4l12.35,1.5l8.65,1.25
			l2.1,0.35l3.95,0.6c6.033,0.767,12.017,1.933,17.95,3.5c5.1,1.333,10.45,2.083,16.05,2.25l4.2-0.45l1.8-0.2L-344,97.1l5.1-0.55
			l2.85-0.35l5-0.55l10.05-0.8l4.15-0.55l1.8-0.25c3.033,0,5.483-0.5,7.35-1.5c2.167-1.133,5.383-1.667,9.65-1.6h1
			c1.633-0.034,3.033-0.3,4.2-0.8l0.95-0.5c1.267-0.8,2.867-1.267,4.8-1.4l2.1-0.1l7.95-0.15l11.95,0.65l2.1,0.15l9.9,0.45l3.1,0.25
			l6.4,0.65l6.5,0.7l2.1,0.3l2.9,0.3l2.1,0.15l9.15,1.1l4.7,0.95l9.05,0.55l5.1,0.25l3.9,0.25l18.95-0.75l3.1-0.3l16.9-1.4l3.1-0.3
			l2.9-0.3l2.1-0.3l7.4-1.2l1.5-0.15l2.1-0.3l3.7-0.9l5.25-0.6h1.05l9-0.55l1.95,0.3c4.133,1.066,8.65,1.8,13.55,2.2l1.45,0.1
			l4.9,0.6l10.05,0.75c2.167-0.1,3.683,0.066,4.55,0.5l1.5,0.3c6.133,0.167,12.15,0.017,18.05-0.45l5.9-0.75l6.25-1.05l12.8-1.65
			l9.05-1l2.9-0.3l2.1-0.25l5.15,0.25c1.933,0.633,4.2,0.966,6.8,1h1l18.05,0.7l3.1,0.4l2.75,0.5l2.8,0.35l2.4,0.3l4.85,0.45
			l1.1,0.2l4.95,0.3l7,0.15l2.05-0.05l10.95-0.4c3.6-0.133,6.383,0.2,8.35,1l1.6,0.35l4.05,0.25l1.1-0.05l3.8-0.5l1.15-0.3L71,90.15
			z"/>
	</g>
	<g>
		<path fill-rule="evenodd" clip-rule="evenodd" fill="#4066FF" fill-opacity="0.0784" d="M56.85,95.35l4.05,0.25l1.1-0.05L65.8,95
			l1.15-0.3L71,93c3.8-1.533,7.733-2.917,11.8-4.15l10.1-2.6l8.95-0.4l2.05,0.35c4.067,1.167,8.367,1.983,12.9,2.45l45.2,7
			c1.933,0.3,3.367,0.65,4.3,1.05l1.55,0.5l13.1,1.85l7.95,0.35c3.967,0.1,7.434-0.6,10.4-2.1c0.733-0.4,1.6-0.7,2.6-0.9
			c6.3-1.167,12.617-2.15,18.95-2.95l21-1.15l1.85-0.55c1.267-0.667,2.65-1.1,4.15-1.3l1.1-0.1c3.533-0.267,6.883-0.233,10.05,0.1
			L299.95,93l10.95,1.75l8,0.35c2.833,0,4.967,0.35,6.4,1.05l1.6,0.35l16,0.35c1.833-0.033,3.25,0.15,4.25,0.55l1.75,0.2
			c6.667,0.233,13.017,0.083,19.05-0.45l8.9-0.9c3.433-0.2,6.5-0.667,9.2-1.4l14.85-0.7c6.934,0.2,13.617,0.05,20.05-0.45l7.35-0.7
			l14.6-1.1l22,0.2l2.05,0.2c1.267,0.133,2.25,0.367,2.95,0.7H480V-92.15h-960V93l13.8,1.15l9.3-2.65l14.8-2.05
			c1.833-0.167,3.05-0.017,3.65,0.45l13.55,1.15l29.85,4.2c6.033,0.767,12.017,1.933,17.95,3.5c5.1,1.367,10.45,2.15,16.05,2.35
			l6-0.7l11.05-0.35l28.95-3.1c3.033,0,5.483-0.5,7.35-1.5c2.167-1.167,5.383-1.717,9.65-1.65h1c1.633-0.033,3.033-0.3,4.2-0.8
			l0.95-0.5c1.267-0.833,2.867-1.317,4.8-1.45l10.05-0.25l23.95,1.3l23.1,2.35c3.667,0.167,6.717,0.55,9.15,1.15l4.7,0.95l18.05,1.1
			l18.95-0.8l28.1-2.65l14.7-2.55c1.533-0.467,3.283-0.683,5.25-0.65l10.05-0.55l1.95,0.3c4.133,1.1,8.65,1.85,13.55,2.25l16.4,1.45
			c2.167-0.1,3.683,0.066,4.55,0.5l1.5,0.35c6.133,0.167,12.15,0,18.05-0.5l39-5.05L-20.9,90c1.933,0.633,4.2,0.967,6.8,1
			l19.05,0.75l15.9,2l1.1,0.2L33.9,94.4l13-0.45c3.6-0.133,6.383,0.2,8.35,1L56.85,95.35z"/>
	</g>
</symbol>
<use xlink:href="#Symbol_6"  width="961.1" height="200.232" x="-480" y="-92.15" transform="matrix(1 0 0 -1 480.0498 447.8496)" overflow="visible"/>
</svg>
