<?xml version="1.0" encoding="UTF-8" standalone="no"?>
<!-- Generator: Adobe Illustrator 16.0.0, SVG Export Plug-In . SVG Version: 6.00 Build 0)  -->

<svg
   xmlns:dc="http://purl.org/dc/elements/1.1/"
   xmlns:cc="http://creativecommons.org/ns#"
   xmlns:rdf="http://www.w3.org/1999/02/22-rdf-syntax-ns#"
   xmlns:svg="http://www.w3.org/2000/svg"
   xmlns="http://www.w3.org/2000/svg"
   xmlns:sodipodi="http://sodipodi.sourceforge.net/DTD/sodipodi-0.dtd"
   xmlns:inkscape="http://www.inkscape.org/namespaces/inkscape"
   version="1.1"
   id="Layer_1"
   x="0px"
   y="0px"
   width="1920"
   height="1080"
   viewBox="0 0 1920 1080"
   enable-background="new 0 0 612 792"
   xml:space="preserve"
   inkscape:version="0.91 r13725"
   sodipodi:docname="LogoBlack.svg"><metadata
     id="metadata9"><rdf:RDF><cc:Work
         rdf:about=""><dc:format>image/svg+xml</dc:format><dc:type
           rdf:resource="http://purl.org/dc/dcmitype/StillImage" /><dc:title></dc:title></cc:Work></rdf:RDF></metadata><defs
     id="defs7" /><sodipodi:namedview
     pagecolor="#ffffff"
     bordercolor="#666666"
     borderopacity="1"
     objecttolerance="10"
     gridtolerance="10"
     guidetolerance="10"
     inkscape:pageopacity="0"
     inkscape:pageshadow="2"
     inkscape:window-width="2560"
     inkscape:window-height="1017"
     id="namedview5"
     showgrid="false"
     inkscape:zoom="0.2979798"
     inkscape:cx="306"
     inkscape:cy="396"
     inkscape:window-x="1912"
     inkscape:window-y="-8"
     inkscape:window-maximized="1"
     inkscape:current-layer="Layer_1" /><path
     d="m 649.73729,468.85593 0,17 c -1,8 -1,15 -3,21 -9,4 -20,8 -31,12 -59,21 -231,88 -243,88 -6,0 -38,-13 -39,-13 l 0,-42 312,-83 4,0 z m 88,-20 c 20,20 40,39 60,60 3,3 11,10 11,13 l 0,16 -30,5 c -17,-13 -40,-38 -54,-52 l 0,57 -38,5 0,-95 47,-9 4,0 z m 523.00001,-10 4,62 -19,0 c -7,-1 -14,-1 -21,-3 -7,-10 -15,-21 -21,-32 l 53,-27 4,0 z m 120,-6 c -1,1 -6,2 -7,6 -12,27 -48,52 -72,54 -3,0 -5,2 -8,2 l -20,0 c -1,1 -3,2 -4,2 l 0,-20 c 5,0 13,1 15,1 28,0 64,-17 78,-55 6,3 12,7 18,10 z m -490.00001,73 c -13,25 -10,27 -31,27 l -7,0 0,-106 c 10,-1 20,-2 38,-4 l 0,83 z m 175.00001,-72 c -3,11 -1,24 -8,33 -39,39 -83,74 -127,105 -11.00001,7 -25.00001,6 -38.00001,9 -2,-6 -4,-17 -4,-19 l 0,-3 c 41.00001,-35 83.00001,-70 124.00001,-105 l -80,-37 0,-2 71,-6 c 8,0 61,24 62,25 z m 115,39 c -3,9 -6,18 -11,26 -8,2 -16,3 -24,5 l -3,0 0,-68 c -1,-1 0,-1 -3,-1 -2,0 -16,2 -24,2 l -2,2 0,57 c -2,5 -5,10 -7,13 -9,2 -25,6 -28,6 l -3,0 0,-111 105,-5 0,74 z m -245,-122 0,25 c -11.00001,11 -20.00001,27 -35.00001,34 -16,8 -49,8 -52,8 -2,0 -25,-25 -37,-37 l 0,-25 c 8,1 21,0 24,0 12,0 22,18 35,29 11,-10 30,-37 43,-34 l 22.00001,0 z m -243.00001,-4 c 10,2 20,2 30,6 1,0 2,4 2,6 l 1,37 c 3,-4 34,-40 44,-40 2,0 15,1 23,1 l 1,-1 0,27 c -18,18 -33,41 -54,53 -16,9 -36,8 -53,11 l 0,-100 6,0 z m 350.00001,-6 0,33 c -13,8 -25,20 -39,24 -22,6 -64,8 -67,8 l -3,0 0,-7 c 27,-18 54,-37 83,-55 2,-2 7,-2 10,-3 l 16,0 z m 180,1 c -15,18 -19,36 -19,54 0,17 2,32 18,53 -6,4 -13,7 -20,10 1,-1 1,-2 1,-5 0,-3 -16,-33 -16,-44 l 0,-28 c 1,-13 8,-31 17,-43 1,-1 1,-3 1,-5 6,2 12,5 18,8 z m -109,-11 0,62 c -11,-1 -23,0 -38,0 l 0,-57 c 10,-1 20,-3 30,-5 l 8,0 z m 67,-2 0,60 -38,0 0,-64 c 10,-1 27,-4 29,-4 5,0 9,5 9,8 z m -677.00001,-34 c 11,3 21,6 31,8 44,12 90,23 135,38 3,1 4,7 6,10 l -9,28 -4,0 -122,-34 c 0,0 -1,0 -2,1 l 103,114 -41,10 c -47,-47 -94,-101 -138,-150 -2,-2 -2,-4 -2,-7 0,-2 4,-12 6,-18 l 37,0 z m 762.00001,-4 -4,63 -3,0 -54,-27 c 6,-11 14,-23 21,-34 9,0 18,-1 27,-2 l 13,0 z m 236,-49 0,39 -76,17 0,177 c 0,3 -2,5 -3,6 -9,2 -29,4 -31,4 -3,0 -5,-7 -5,-9 l 0,-43 -53,-35 0,-2 c 17,-11 35,-23 53,-35 l 0,-55 c 0,0 -1,-1 -2,-1 l -43,10 c 17,12 26,30 38,43 -4,3 -10,7 -16,11 -1,0 -2,-2 -3,-3 -11,-30 -45,-51 -68,-51 l -23,0 0,-19 c 1,0 1,2 4,2 l 25,0 c 5,1 10,2 15,4 l 0,-21 181,-39 7,0 z"
     id="path3"
     inkscape:connector-curvature="0"
     style="clip-rule:evenodd;fill-rule:evenodd" /></svg>